<svg width="20" height="20" fill="none" xmlns="http://www.w3.org/2000/svg"><defs><clipPath id="a"><path fill="#fff" fill-opacity="0" d="M0 0h20v20H0z"/></clipPath></defs><path d="M0 0h20v20H0z"/><g clip-path="url(#a)"><path d="M18.798 8.596a1.403 1.403 0 00-.248-.018H4.44l.309-.143c.3-.143.574-.336.808-.573l3.957-3.956A1.481 1.481 0 009.72 2.01a1.43 1.43 0 00-2.146-.187L.42 8.98a1.43 1.43 0 00-.002 2.023l.002.001 7.155 7.155a1.43 1.43 0 002.146-.143 1.481 1.481 0 00-.207-1.896l-3.95-3.964a2.864 2.864 0 00-.715-.522l-.43-.193h14.053a1.481 1.481 0 001.51-1.202 1.43 1.43 0 00-1.184-1.642z" fill="#FFF"/></g></svg>