<svg width="20" height="20" fill="none" xmlns="http://www.w3.org/2000/svg"><defs><clipPath id="a"><path fill="#fff" fill-opacity="0" d="M0 0h20v20H0z"/></clipPath></defs><path d="M0 0h20v20H0z"/><g clip-path="url(#a)" fill="#8C3213"><path d="M17.27 3.131l1.214-.102-.097-1.168-3.322.278.279 3.322 1.168-.098-.123-1.455A8.773 8.773 0 0118.829 10a8.767 8.767 0 01-2.587 6.242A8.772 8.772 0 0110 18.827a8.772 8.772 0 01-6.242-2.585A8.767 8.767 0 011.172 10c0-2.358.918-4.575 2.586-6.242A8.772 8.772 0 0110 1.173V0a9.932 9.932 0 00-7.07 2.929A9.935 9.935 0 000 10a9.935 9.935 0 002.93 7.071A9.932 9.932 0 0010 20a9.93 9.93 0 007.07-2.929A9.935 9.935 0 0020 10a9.949 9.949 0 00-2.73-6.869z"/><path d="M9.414 5.198V3.823a6.215 6.215 0 00-5.59 5.59h1.373v1.173H3.824a6.215 6.215 0 005.59 5.59v-1.373h1.174v1.373a6.216 6.216 0 005.59-5.59h-1.375V9.414h1.375a6.217 6.217 0 00-5.59-5.59v1.374H9.414zm1.174 5.075L8.38 12.129l-.756-.897 1.79-1.505V6.43h1.173v3.843z"/></g></svg>