<svg width="20" height="20" fill="none" xmlns="http://www.w3.org/2000/svg"><defs><clipPath id="a"><path fill="#fff" fill-opacity="0" d="M0 0h20v20H0z"/></clipPath></defs><path d="M0 0h20v20H0z"/><g clip-path="url(#a)" fill="#8C3213"><path d="M17.867 3.826h.617a.391.391 0 000-.781H17a.391.391 0 00-.39.39V4.92a.391.391 0 00.78 0v-.43A9.195 9.195 0 0119.22 10c0 5.084-4.137 9.22-9.219 9.22S.781 15.083.781 10C.781 4.916 4.918.78 10 .78c.375 0 .754.024 1.125.069a.388.388 0 00.434-.34.388.388 0 00-.34-.435A10.158 10.158 0 0010 0a9.928 9.928 0 00-7.07 2.929A9.927 9.927 0 000 10a9.927 9.927 0 002.93 7.071A9.928 9.928 0 0010 20a9.928 9.928 0 007.07-2.929A9.927 9.927 0 0020 10a9.978 9.978 0 00-2.133-6.174z"/><path d="M4.234 5.895a.39.39 0 00-.539.121 7.508 7.508 0 00-1.113 4.767 7.496 7.496 0 002.145 4.49A7.434 7.434 0 0010 17.452a7.431 7.431 0 005.27-2.18 7.459 7.459 0 00-4.48-12.687 7.485 7.485 0 00-4.763 1.102.39.39 0 00.418.66 6.635 6.635 0 018.274.932 6.685 6.685 0 010 9.44c-2.602 2.603-6.836 2.603-9.442 0C3.09 12.53 2.7 9.046 4.355 6.434a.395.395 0 00-.12-.539z"/><path d="M15.074 10.397h.48a.391.391 0 000-.781h-.48a.391.391 0 000 .78zM4.055 9.994c0 .215.175.39.39.39h.48a.391.391 0 000-.78h-.48a.391.391 0 00-.39.39zm6.343-5.069v-.481a.391.391 0 00-.78 0v.481a.391.391 0 00.78 0zm-.796 10.15v.481a.391.391 0 00.78 0v-.481a.391.391 0 00-.78 0zM8.043 7.491a.39.39 0 10-.555.552l1.324 1.323c-.101.19-.16.405-.16.634 0 .742.606 1.345 1.348 1.345a1.343 1.343 0 001.184-1.979l2.668-2.67a.39.39 0 00-.551-.551l-2.668 2.67a1.347 1.347 0 00-1.27 0L8.043 7.49zM10.563 10a.565.565 0 11-1.13-.002.565.565 0 011.13.002zM5.281 5.28a.402.402 0 00.114-.276.403.403 0 00-.114-.276.402.402 0 00-.277-.115.401.401 0 00-.277.115.402.402 0 00-.114.276.4.4 0 00.114.276.402.402 0 00.277.114.402.402 0 00.277-.114zm7.422-4.114a.4.4 0 00.277-.114.402.402 0 00.114-.276A.403.403 0 0012.98.5a.402.402 0 00-.277-.114.401.401 0 00-.277.114.403.403 0 00-.114.276.4.4 0 00.114.276.4.4 0 00.277.114z"/></g></svg>