<svg width="50" height="50" fill="none" xmlns="http://www.w3.org/2000/svg"><defs><clipPath id="a"><path fill="#fff" fill-opacity="0" d="M0 0h50v50H0z"/></clipPath></defs><path d="M0 0h50v50H0z"/><g clip-path="url(#a)" fill="#84C551"><path d="M39.64 6.551h-4.523V4.527c0-.654-.71-.952-1.367-.952h-3.512C29.406 1.195 27.32.004 24.941.004a5.415 5.415 0 00-5.296 3.571H16.19c-.652 0-1.308.298-1.308.952v2.024h-4.524a5.06 5.06 0 00-5 4.821v34.105c0 2.619 2.38 4.523 5 4.523H39.64c2.62 0 5-1.904 5-4.523V11.372a5.057 5.057 0 00-5-4.821zm-22.378-.595h3.273a1.31 1.31 0 001.133-1.071 3.451 3.451 0 013.273-2.679 3.395 3.395 0 013.215 2.679 1.306 1.306 0 001.192 1.07h3.39v4.762H17.262V5.956zm25 39.52c0 1.31-1.309 2.143-2.621 2.143H10.359c-1.308 0-2.62-.833-2.62-2.142V11.372a2.684 2.684 0 012.62-2.44h4.524v3.035a1.25 1.25 0 001.308 1.131H33.75a1.307 1.307 0 001.367-1.13V8.931h4.524a2.678 2.678 0 012.62 2.44v34.105z"/><path d="M20.418 26.609a1.187 1.187 0 00-1.664-.06l-3.809 3.63-1.61-1.666a1.187 1.187 0 00-1.663-.059 1.242 1.242 0 000 1.726l2.437 2.5c.211.236.516.367.836.357a1.19 1.19 0 00.832-.357l4.641-4.405a1.13 1.13 0 00.07-1.597c-.023-.024-.043-.047-.07-.07zM37.5 29.168H23.812a1.19 1.19 0 100 2.381H37.5a1.19 1.19 0 100-2.38zM20.418 17.086a1.187 1.187 0 00-1.664-.06l-3.809 3.631-1.61-1.666a1.187 1.187 0 00-1.663-.06 1.242 1.242 0 000 1.726l2.437 2.5c.211.237.516.367.836.357.313-.004.614-.133.832-.357l4.641-4.405a1.13 1.13 0 00.07-1.597c-.023-.024-.043-.047-.07-.07zM37.5 19.645H23.812a1.19 1.19 0 100 2.38H37.5a1.19 1.19 0 100-2.38zM20.418 36.132a1.187 1.187 0 00-1.664-.06l-3.809 3.63-1.61-1.666a1.187 1.187 0 00-1.663-.06 1.242 1.242 0 000 1.727l2.437 2.5c.211.236.516.367.836.357a1.19 1.19 0 00.832-.357l4.641-4.405a1.13 1.13 0 00.07-1.597c-.023-.024-.043-.047-.07-.07zM37.5 38.691H23.812a1.19 1.19 0 100 2.381H37.5a1.19 1.19 0 100-2.38z"/></g></svg>