<svg width="50" height="50" fill="none" xmlns="http://www.w3.org/2000/svg"><defs><clipPath id="a"><path fill="#fff" fill-opacity="0" d="M0 0h50v50H0z"/></clipPath></defs><path d="M0 0h50v50H0z"/><g clip-path="url(#a)"><path d="M30.125 50H5.227a2.2 2.2 0 01-2.2-2.197v-36.65a2.2 2.2 0 012.2-2.198h4.207a.733.733 0 110 1.465H5.227a.733.733 0 00-.735.732v36.65c0 .404.328.733.735.733h24.898a.734.734 0 00.734-.732V30.762H14.016a2.2 2.2 0 01-2.2-2.198V2.197A2.2 2.2 0 0114.016 0h21.968a2.2 2.2 0 012.2 2.197v7.324a.732.732 0 11-1.465 0V2.197a.733.733 0 00-.735-.732H14.016a.733.733 0 00-.735.732v26.367c0 .404.328.733.735.733h21.968a.733.733 0 00.735-.733V12.451c0-.404.328-.732.734-.732h4.39a.733.733 0 110 1.465h-3.66v2.93h3.66a.733.733 0 110 1.464h-3.66v2.93h3.66a.733.733 0 110 1.465h-3.66v2.93h3.66a.733.733 0 110 1.464h-3.66v2.197c0 .257-.042.504-.124.733h3.785a.733.733 0 110 1.465h-9.52v2.93h9.52a.733.733 0 110 1.464h-9.52v4.59h12.45a.733.733 0 00.734-.732V6.758a.733.733 0 00-.735-.733h-4.39a.733.733 0 110-1.464h4.39a2.2 2.2 0 012.2 2.197v32.256a2.2 2.2 0 01-2.2 2.197H32.324v4.395h8.059c.402 0 .73-.33.73-.733v-1.465a.732.732 0 111.465 0v1.465a2.199 2.199 0 01-2.195 2.197h-8.059v.733A2.2 2.2 0 0130.125 50zm4.395-22.168H15.477a.732.732 0 01-.73-.732v-2.545c0-3.763 2.487-4.624 4.304-5.253 1.5-.52 2.351-.869 2.5-1.997a6.133 6.133 0 01-2.68-5.062v-3.02A6.135 6.135 0 0125 3.096a6.135 6.135 0 016.129 6.127v3.02a6.133 6.133 0 01-2.68 5.062c.149 1.128 1 1.478 2.5 1.997 1.817.629 4.305 1.49 4.305 5.253V27.1a.733.733 0 01-.734.732zm-18.31-1.465h17.58v-1.812c0-2.72-1.54-3.253-3.321-3.869-1.317-.455-2.899-1.004-3.371-2.686-.657.24-1.364.37-2.098.37-.734 0-1.441-.13-2.098-.37-.472 1.682-2.054 2.231-3.37 2.686-1.782.616-3.321 1.149-3.321 3.87v1.811zM25 4.561a4.67 4.67 0 00-4.664 4.662v3.02A4.67 4.67 0 0025 16.905a4.67 4.67 0 004.664-4.662v-3.02A4.67 4.67 0 0025 4.56z" fill="#84C551"/></g></svg>