<svg width="24" height="24" fill="none" xmlns="http://www.w3.org/2000/svg"><defs><clipPath id="a"><path fill="#fff" fill-opacity="0" d="M0 0h24v24H0z"/></clipPath></defs><path d="M0 0h24v24H0z"/><g clip-path="url(#a)" fill="#84BE51"><path d="M11.402 6a.6.6 0 100 1.2.6.6 0 000-1.2zM15 6a.6.6 0 100 1.2.6.6 0 000-1.2zM9.602 17.6h.8v.8h-.8v-.8zm6.398 0h.8v.8H16v-.8zm-6.398 5.2c0 .106.043.208.117.283l.8.8a.396.396 0 00.282.117h4.8a.396.396 0 00.282-.117l.8-.8a.404.404 0 00.118-.283v-3.2a.4.4 0 00-.399-.4H10a.4.4 0 00-.398.4v3.2zm.8-2.8H16v2.634l-.563.566H10.97l-.567-.566V20z"/><path d="M3.602 18h-.403a.4.4 0 00-.398.4v4c0 .22.18.4.398.4h.403V24h.796v-1.2H5.2V24H6v-.028a3.2 3.2 0 002-1.062V24h.8v-7.2h8.802V24h.796v-2.8h2V24h.801v-2.8h.403a.4.4 0 00.398-.4v-1.6a.4.4 0 00-.398-.4h-.403v-3.6A3.202 3.202 0 0018 12h-2v-.351A4.01 4.01 0 0017.18 9.2h.02a1.598 1.598 0 001.527-1.149A1.999 1.999 0 0017.602 4.4h-.403V2.592c0-1.08-.328-1.825-1.004-2.275A1.871 1.871 0 0015.148 0h-.296c-.375 0-.739.11-1.047.317a1.086 1.086 0 01-1.207 0A1.89 1.89 0 0011.55 0h-.301c-.371 0-.738.11-1.047.317C9.527.767 9.2 1.51 9.2 2.592V4.4h-.398a1.98 1.98 0 00-1.2.41V2.33a2.31 2.31 0 01.68-1.648L7.72.117a3.102 3.102 0 00-.92 2.215V5.6A1.205 1.205 0 016 6.726V2.332c0-.62.246-1.213.684-1.65L6.117.118A3.118 3.118 0 005.2 2.332V6.8h-.8V2.332c0-.62.246-1.213.683-1.65L4.516.118a3.115 3.115 0 00-.914 2.215v4.394a1.195 1.195 0 01-.801-1.126V2.332a2.297 2.297 0 01.683-1.65L2.918.118A3.102 3.102 0 002 2.332V5.6a2 2 0 001.602 1.96V18zm.796-8.8H5.2V18h-.8V9.2zm2.403 10.4H8v.8H6.8v-.8zM8 16.4v2.4H6.727A1.197 1.197 0 006 18.074V15.2a2.405 2.405 0 012-2.364V16.4zM4 22h-.398v-3.2h2a.4.4 0 01.398.4v2.4a.4.4 0 01-.398.4H4zm2 1.164v-.438c.477-.169.797-.62.8-1.126v-.4h1.17A2.408 2.408 0 016 23.164zM8.8 16v-3.2h.802V16H8.8zm1.72-3.2c.152.505.445.957.84 1.304L12.495 16h-2.098v-3.2h.122zM13.2 14a2.006 2.006 0 01-2-2v-1.6a2 2 0 114 0V12a2 2 0 01-2 2zm.515.75l-.516.869-.52-.87a2.734 2.734 0 001.036.001zm7.484 5.65h-2.8v-.8h2.8v.8zm-.8-5.2v3.6h-2v-5.964c1.156.196 2 1.194 2 2.364zm-2.797-2.4V16H16.8v-3.2h.8zM16 12.8V16h-2.098l1.106-1.867a2.8 2.8 0 00.875-1.333H16zm-.004-2.452a2.798 2.798 0 00-5.594 0A3.203 3.203 0 0110 8.8V5.2h6.398v3.6a3.16 3.16 0 01-.402 1.548zM17.2 8.4V6.8a.801.801 0 010 1.6zm.403-3.2a1.205 1.205 0 011.063 1.757A1.603 1.603 0 0017.198 6v-.8h.403zM10.648.983A1.07 1.07 0 0111.25.8h.3c.216 0 .423.064.602.183a1.883 1.883 0 002.094 0c.18-.12.39-.183.606-.183h.296a1.1 1.1 0 01.606.183c.277.184.644.553.644 1.609V2.8H10v-.208c0-1.056.371-1.425.648-1.61zM10 3.6h6.398v.8H10v-.8zM8.8 5.2h.4V6a1.597 1.597 0 00-1.458.95 1.184 1.184 0 01.031-1.176c.215-.36.606-.578 1.028-.574zm-.402 2.4a.8.8 0 01.801-.8v1.6a.8.8 0 01-.8-.8zm-1.472-.515c.144.39.402.725.746.96.195.682.82 1.153 1.527 1.155h.024a4.005 4.005 0 001.175 2.449V12h-2A3.19 3.19 0 006 13.09V7.56c.344-.073.664-.237.926-.475zM5.199 8.4h-.8v-.8h.8v.8z"/><path d="M12.688 9.32l-.57.56a1.392 1.392 0 002.167-.001l-.566-.56a.616.616 0 01-1.031 0z"/></g></svg>