<svg width="24" height="24" fill="none" xmlns="http://www.w3.org/2000/svg"><defs><clipPath id="a"><path fill="#fff" fill-opacity="0" d="M0 0h24v24H0z"/></clipPath></defs><path d="M0 0h24v24H0z"/><g clip-path="url(#a)" fill="#84BE51"><path d="M17.867 19.685a.321.321 0 00-.23.096.326.326 0 000 .464.322.322 0 00.23.096c.207 0 .402.083.551.228a.78.78 0 01.227.55c0 .086.035.17.097.231a.321.321 0 00.23.096.321.321 0 00.231-.096.326.326 0 00.098-.232c0-.38-.153-.744-.422-1.013a1.429 1.429 0 00-1.012-.42z"/><path d="M17.664 19.524q-.094.039-.172.116-.074.077-.113.17-.04.094-.04.203 0 .11.04.203.039.093.113.17.078.078.172.117.094.038.203.038.117 0 .219.043.105.042.187.127.086.084.13.186.042.102.042.222 0 .108.04.201.035.094.113.172.078.077.172.116.093.038.203.038.109 0 .203-.038.094-.039.172-.116.074-.078.113-.171.039-.093.039-.203 0-.164-.031-.321-.032-.155-.094-.304-.063-.15-.148-.282-.09-.132-.204-.247-.117-.115-.25-.203-.132-.089-.28-.151-.15-.062-.305-.094-.157-.03-.32-.03-.11 0-.204.038zm.203.161a.321.321 0 00-.23.096.326.326 0 000 .464.322.322 0 00.23.096c.207 0 .402.083.551.228a.78.78 0 01.227.55c0 .086.035.17.097.231a.321.321 0 00.23.096.321.321 0 00.231-.096.326.326 0 00.098-.232c0-.38-.153-.744-.422-1.013a1.429 1.429 0 00-1.012-.42z" fill-rule="evenodd"/><path d="M15.957 18.142c-.387 0-.754.153-1.023.424a1.44 1.44 0 00-.426 1.024c0 .087.035.17.098.232a.321.321 0 00.23.096.321.321 0 00.23-.096.326.326 0 00.098-.232.79.79 0 01.793-.792.328.328 0 000-.656z"/><path d="M15.04 18.22q-.134.09-.25.205-.114.116-.204.25-.09.133-.152.284-.063.152-.094.31-.031.157-.031.32 0 .11.039.204.039.093.113.17.078.078.172.116.094.039.203.039.11 0 .203-.039.094-.038.172-.116.074-.077.113-.17.04-.094.04-.203 0-.122.042-.227.043-.105.133-.192.086-.086.191-.13.102-.043.227-.043.11 0 .2-.039.093-.038.171-.116.078-.077.117-.17.04-.094.04-.203 0-.11-.04-.203-.039-.093-.117-.17-.078-.078-.168-.117-.094-.038-.203-.038-.168 0-.328.032-.152.031-.305.094-.148.062-.285.152zm.917-.078c-.387 0-.754.153-1.023.424a1.44 1.44 0 00-.426 1.024c0 .087.035.17.098.232a.321.321 0 00.23.096.321.321 0 00.23-.096.326.326 0 00.098-.232.79.79 0 01.793-.792.328.328 0 000-.656z" fill-rule="evenodd"/><path d="M9.11 14.597v.752c0 .087.035.17.097.232a.322.322 0 00.23.097.338.338 0 00.235-.097.339.339 0 00.094-.232v-.752a2.598 2.598 0 002.265-2.57.339.339 0 00-.094-.233.33.33 0 00-.234-.096 2.595 2.595 0 00-1.937.876v-.593a2.59 2.59 0 00-.094-3.562.328.328 0 00-.465 0 2.6 2.6 0 00-.758 1.762 2.607 2.607 0 00.66 1.8v.593a2.576 2.576 0 00-1.938-.876.322.322 0 00-.23.096.326.326 0 00-.097.232 2.598 2.598 0 002.266 2.571zm2.234-2.209a1.965 1.965 0 01-.535 1.009 1.934 1.934 0 01-1.008.534c.074-.382.258-.733.535-1.008a1.934 1.934 0 011.008-.535zM9.438 9.163a1.94 1.94 0 010 2.182 1.942 1.942 0 010-2.183v.001zm-.364 4.768a1.928 1.928 0 01-1.54-1.542 1.93 1.93 0 011.54 1.542z"/><path d="M8.91 14.768v.581q0 .11.04.203.038.094.116.17.075.078.168.117.094.038.204.038.109 0 .203-.038.093-.039.171-.116.079-.078.114-.171.039-.093.039-.203v-.58q.164-.032.316-.081.242-.076.465-.196.227-.12.422-.274.2-.155.367-.347.168-.19.297-.405.129-.215.219-.453.09-.239.136-.485.043-.247.047-.501 0-.11-.039-.204-.039-.093-.117-.17-.078-.077-.172-.116-.094-.039-.203-.039-.3 0-.586.063-.285.062-.558.184-.274.124-.508.298l-.086.064v-.05q.148-.174.265-.366.137-.226.227-.477.094-.252.137-.511.043-.26.035-.527-.008-.268-.063-.525-.058-.257-.164-.503-.105-.246-.254-.464-.148-.217-.335-.407-.079-.077-.172-.116-.094-.038-.204-.038-.109 0-.203.038-.093.039-.168.116-.191.192-.34.413-.148.215-.25.459-.105.246-.164.502-.054.257-.062.524-.008.268.035.527.043.26.133.511.094.251.23.477.114.192.262.366v.051l-.086-.064q-.234-.174-.508-.298-.273-.123-.558-.185-.285-.062-.586-.062-.11 0-.203.04-.094.038-.172.115-.074.077-.113.17-.04.094-.04.203 0 .258.047.507.043.244.133.48.09.238.219.453.133.214.3.405.169.191.364.346.195.156.422.275.226.12.465.195.156.05.316.081zm.2-.17v.751c0 .087.035.17.097.232a.322.322 0 00.23.097.338.338 0 00.235-.097.339.339 0 00.094-.232v-.752a2.598 2.598 0 002.265-2.57.339.339 0 00-.094-.233.33.33 0 00-.234-.096 2.595 2.595 0 00-1.937.876v-.593a2.59 2.59 0 00-.094-3.562.328.328 0 00-.465 0 2.6 2.6 0 00-.758 1.762 2.607 2.607 0 00.66 1.8v.593a2.6 2.6 0 00-1.938-.876.322.322 0 00-.23.096.326.326 0 00-.097.232 2.598 2.598 0 002.266 2.571zm.214-5.244a1.944 1.944 0 00-.222.9 1.944 1.944 0 00.335 1.09 1.92 1.92 0 00.118-.19 1.94 1.94 0 00-.004-1.8 1.348 1.348 0 00-.114-.19v-.002a1.902 1.902 0 00-.113.192zm.114.223q-.036.08-.06.164-.073.245-.073.513t.074.512q.023.084.059.165.035-.081.062-.165.074-.244.074-.512T9.5 9.742q-.027-.084-.063-.165zm1.539 3.263q-.122.226-.309.415-.191.19-.418.31-.074.04-.156.073.031-.081.074-.158.117-.226.309-.415.187-.19.414-.31.078-.04.16-.074-.035.082-.074.159zm.148-.397a1.944 1.944 0 00-1.324 1.489 1.956 1.956 0 001.008-.535 1.943 1.943 0 00.535-1.009 1.88 1.88 0 00-.219.055zm-2.5 1.122q-.227-.12-.414-.31-.191-.189-.309-.415-.043-.077-.074-.158.082.033.156.074.227.12.414.309.192.19.313.415.039.077.07.158-.078-.033-.156-.073zm.398.15a1.942 1.942 0 00-1.488-1.326 1.977 1.977 0 00.531 1.008 1.959 1.959 0 001.008.534 2.009 2.009 0 00-.05-.216z" fill-rule="evenodd"/><path d="M4.39 12a5.048 5.048 0 105.048-5.047A5.054 5.054 0 004.39 12zm5.049-4.39a4.386 4.386 0 014.309 5.248 4.418 4.418 0 01-1.204 2.248 4.381 4.381 0 01-2.25 1.202 4.384 4.384 0 01-2.535-.25 4.413 4.413 0 01-1.973-1.617 4.388 4.388 0 01.55-5.543A4.386 4.386 0 019.439 7.61z"/><path d="M4.695 14.244q.164.348.38.672.218.323.476.608.258.286.558.533.301.247.63.445.331.198.69.347.36.148.735.242.371.094.762.132.386.038.77.019.386-.019.765-.095.383-.076.746-.206t.703-.313q.344-.183.652-.412.313-.23.586-.505.278-.276.504-.585.23-.309.414-.652.184-.343.313-.705.129-.363.207-.745.074-.382.094-.767.02-.384-.02-.771-.039-.388-.133-.761-.093-.373-.242-.733-.148-.36-.344-.69-.199-.33-.445-.63-.25-.302-.535-.56-.285-.259-.606-.475-.324-.216-.671-.38-.352-.165-.723-.278-.371-.114-.754-.17-.379-.056-.77-.056-.523 0-1.027.101-.5.1-.98.3-.48.2-.907.484-.425.284-.793.653-.37.37-.656.794-.281.426-.484.908-.2.482-.297.983-.102.502-.102 1.024 0 .392.055.775.059.379.172.748.113.373.277.72zM4.391 12a5.048 5.048 0 105.046-5.047A5.054 5.054 0 004.391 12zm5.046-4.39a4.386 4.386 0 014.309 5.248 4.418 4.418 0 01-1.203 2.248 4.381 4.381 0 01-2.25 1.202 4.384 4.384 0 01-2.535-.25 4.413 4.413 0 01-1.973-1.617 4.388 4.388 0 01.55-5.543A4.386 4.386 0 019.438 7.61zm1.793.602q.278.132.536.304.257.173.488.38.226.206.426.446.195.24.355.504.156.264.274.551.12.287.195.585.074.299.105.608.032.31.016.616-.016.308-.074.613-.063.305-.168.594-.102.29-.25.564-.145.274-.328.521-.184.247-.403.467-.218.22-.468.403-.246.183-.52.33-.273.146-.562.25-.29.103-.598.164-.305.06-.61.075-.308.016-.617-.015-.308-.03-.609-.105-.297-.074-.582-.194-.29-.119-.555-.277-.261-.158-.504-.355-.238-.197-.445-.425-.207-.228-.379-.486-.172-.259-.305-.537-.132-.278-.222-.575-.09-.298-.133-.602-.047-.304-.047-.615 0-.415.082-.814.078-.403.238-.789.16-.385.387-.725.227-.34.524-.634.293-.295.632-.522.34-.227.727-.387.383-.16.785-.24.402-.08.816-.08.31 0 .61.044.308.045.61.136.296.09.573.222z" fill-rule="evenodd"/><path d="M21.871 20.981a2.12 2.12 0 00-.492-1.198 2.133 2.133 0 00-1.102-.686v-.05a2.101 2.101 0 00-1.941-2.095 1.38 1.38 0 00-.063-.216c.207-1.545.317-3.1.329-4.659v-.154c0-3.942-.926-8.405-1.016-8.828V1.183a.326.326 0 00-.098-.232.321.321 0 00-.23-.097H2.195a.325.325 0 00-.3.203.281.281 0 00-.028.126v1.912c-.09.423-1.015 4.886-1.015 8.828v.154c0 3.942.925 8.405 1.015 8.827v1.913c0 .043.008.086.028.126a.3.3 0 00.07.106.326.326 0 00.23.096h20.621a.342.342 0 00.125-.025.343.343 0 00.106-.07.348.348 0 00.098-.232 1.946 1.946 0 00-1.273-1.836zM2.523 1.511H16.93v1.291H2.523V1.511zM1.508 11.923c0-3.503.746-7.437.957-8.465h14.527c.207 1.028.953 4.962.953 8.465v.154a34.728 34.728 0 01-.226 3.769 2.268 2.268 0 00-2.227-.56 2.275 2.275 0 00-1.578 1.666 2.106 2.106 0 00-1.379.67c-.36.388-.558.897-.562 1.426v.05c-.352.09-.68.27-.946.523-.261.253-.457.57-.562.92h-8c-.211-1.027-.957-4.961-.957-8.464v-.154zm1.015 9.275h7.438a1.958 1.958 0 00-.824 1.291H2.523v-1.291zm10.883 1.291a.902.902 0 01.324-.405.904.904 0 01.497-.153.33.33 0 00.234-.096.339.339 0 00.094-.232.339.339 0 00-.094-.232.33.33 0 00-.234-.096 1.541 1.541 0 00-1.504 1.214H9.805a1.295 1.295 0 01.977-.943.33.33 0 00.253-.336l-.004-.036v-.036c0-.363.137-.712.383-.978s.582-.431.945-.462a.313.313 0 00.13-.04.304.304 0 00.105-.088.355.355 0 00.058-.122.318.318 0 00.004-.137 1.193 1.193 0 01-.027-.262c0-.384.152-.751.426-1.023a1.44 1.44 0 011.086-.42l.03.001a.322.322 0 00.231-.078.32.32 0 00.114-.218 1.62 1.62 0 011.609-1.459 1.614 1.614 0 011.605 1.46.336.336 0 00.114.218.333.333 0 00.234.077l.027-.001c.024-.002.047-.004.07-.004.212 0 .423.046.614.135a1.429 1.429 0 01.785.945c.055.206.063.42.024.63a.266.266 0 00.004.136.255.255 0 00.058.123.329.329 0 00.23.127 1.453 1.453 0 011.329 1.44v.035l-.004.038a.327.327 0 00.258.336 1.302 1.302 0 01.972.943h-9.039z"/><path d="M21.742 19.946q-.094-.154-.21-.292-.118-.14-.255-.256-.136-.118-.289-.214-.156-.096-.32-.166-.094-.04-.191-.072-.008-.167-.04-.33-.043-.208-.12-.408-.079-.202-.192-.383t-.262-.34q-.148-.16-.32-.287-.172-.127-.367-.222t-.399-.15q-.14-.038-.28-.058l-.017-.051q.149-1.13.227-2.263.086-1.185.094-2.375v-.156q0-2.502-.477-5.763-.152-1.06-.344-2.098-.105-.574-.195-.988V1.183q0-.11-.039-.203-.039-.094-.113-.17-.078-.078-.172-.117-.094-.038-.203-.038H2.195q-.05 0-.101.01-.051.01-.098.03-.05.02-.094.048-.043.029-.078.066-.039.037-.066.08-.031.043-.051.091-.02.05-.027.1-.012.05-.012.103v1.891q-.086.414-.191.989-.192 1.036-.348 2.098-.477 3.26-.477 5.762v.154q0 2.502.477 5.762.156 1.062.348 2.099.105.576.191.988v1.891q0 .052.012.102.008.051.027.1.02.049.05.092.028.043.067.08.035.037.078.065.043.029.094.05.047.02.098.03.05.01.101.01h20.621q.051 0 .102-.01.05-.01.098-.03.05-.02.093-.05.043-.028.078-.065.04-.037.067-.08.027-.043.047-.092.023-.048.031-.099.012-.05.012-.103 0-.335-.094-.64-.094-.311-.29-.592-.19-.278-.448-.476-.207-.16-.453-.268-.016-.117-.043-.231-.043-.175-.114-.343-.07-.168-.16-.321zm.13 1.035a2.12 2.12 0 00-.493-1.198 2.133 2.133 0 00-1.102-.686v-.05a2.101 2.101 0 00-1.941-2.095 1.38 1.38 0 00-.063-.216c.207-1.545.317-3.1.329-4.659v-.154c0-3.942-.926-8.405-1.016-8.828V1.183a.326.326 0 00-.098-.232.321.321 0 00-.23-.097H2.195a.325.325 0 00-.3.203.281.281 0 00-.028.126v1.912c-.09.423-1.015 4.886-1.015 8.828v.154c0 3.942.925 8.405 1.015 8.827v1.913c0 .043.008.086.028.126a.3.3 0 00.07.106.326.326 0 00.23.096h20.621a.342.342 0 00.125-.025.343.343 0 00.106-.07.348.348 0 00.098-.232 1.946 1.946 0 00-1.273-1.836zM16.93 1.511H2.523v1.291H16.93V1.511zm-.2.2v.891H2.723v-.891H16.73zM1.508 11.923c0-3.503.746-7.437.957-8.465h14.527c.207 1.028.953 4.962.953 8.465v.154a35.35 35.35 0 01-.199 3.522c-.008.082-.02.165-.027.247a2.269 2.269 0 00-2.227-.56 2.275 2.275 0 00-1.578 1.666 2.106 2.106 0 00-1.379.67c-.36.388-.558.897-.562 1.426v.05c-.352.09-.68.27-.946.523-.261.253-.457.57-.562.92h-8c-.211-1.027-.957-4.961-.957-8.464v-.154zm1.12 8.418q-.296-1.486-.523-3.13-.398-2.897-.398-5.134v-.153q0-2.238.398-5.134.227-1.655.524-3.132h14.2q.292 1.49.519 3.132.398 2.896.398 5.133v.154q-.004.838-.05 1.673-.048.852-.134 1.702-.109-.077-.226-.142-.281-.158-.605-.24-.325-.082-.649-.076-.324.006-.645.1-.324.093-.597.262-.277.168-.508.411-.23.244-.383.528-.12.224-.195.474-.14.02-.281.057-.204.056-.399.151-.195.095-.367.222t-.32.287q-.149.16-.262.34-.113.181-.191.383-.079.202-.118.412-.03.16-.039.325-.214.07-.406.176-.258.143-.48.354-.223.211-.375.463-.118.19-.196.402H2.63zm18.59.832v-.035a1.453 1.453 0 00-1.328-1.44.328.328 0 01-.292-.387 1.428 1.428 0 00-.024-.629 1.429 1.429 0 00-.785-.945 1.433 1.433 0 00-.613-.135c-.024 0-.047.002-.07.004l-.028.001a.333.333 0 01-.234-.077.336.336 0 01-.114-.219 1.614 1.614 0 00-2.691-1.04 1.62 1.62 0 00-.523 1.04.32.32 0 01-.114.218.322.322 0 01-.23.078l-.031-.002a1.44 1.44 0 00-1.086.42 1.438 1.438 0 00-.426 1.024c0 .088.008.176.027.262a.318.318 0 01-.004.137.355.355 0 01-.058.122.304.304 0 01-.106.089.313.313 0 01-.129.039 1.45 1.45 0 00-.945.462 1.441 1.441 0 00-.383.978v.036l.004.036a.327.327 0 01-.254.336 1.295 1.295 0 00-.976.943h2.918a1.541 1.541 0 011.504-1.214.33.33 0 01.234.096.339.339 0 01.094.232c0 .087-.035.17-.094.232a.33.33 0 01-.234.096.88.88 0 00-.707.358.806.806 0 00-.114.2h.219l8.613.001h.207a.923.923 0 00-.07-.2 1.302 1.302 0 00-.902-.743.326.326 0 01-.258-.336l.004-.038zm.938 1.117q-.008-.015-.02-.029-.073-.129-.183-.236-.11-.106-.238-.175-.133-.074-.29-.108-.093-.021-.167-.07-.078-.05-.133-.126-.055-.07-.082-.151-.031-.093-.027-.197l.004-.045v-.015q0-.116-.02-.23-.023-.113-.066-.222-.043-.109-.106-.206-.058-.098-.14-.184-.079-.086-.172-.155-.09-.069-.196-.12-.113-.056-.23-.087-.106-.027-.215-.037-.055-.004-.105-.02-.055-.016-.102-.042-.05-.027-.094-.063-.039-.035-.074-.08-.035-.044-.059-.094-.023-.05-.035-.104-.011-.048-.015-.097-.004-.061.007-.123.028-.136.024-.272-.004-.135-.04-.27-.034-.134-.097-.255-.062-.12-.148-.227-.09-.107-.2-.19-.105-.083-.23-.141-.125-.057-.25-.087-.137-.03-.281-.03l-.051.003h-.008l-.023.002q-.11.007-.203-.024-.094-.031-.176-.1-.082-.07-.13-.16-.042-.087-.054-.193-.011-.13-.047-.255-.035-.125-.097-.243-.059-.118-.137-.22-.078-.104-.176-.193-.097-.088-.207-.156-.11-.068-.234-.116-.121-.047-.25-.071-.125-.024-.258-.024t-.262.024q-.125.024-.25.071-.12.048-.23.116-.113.068-.211.156-.098.09-.176.192-.078.103-.137.221-.058.12-.093.245-.036.124-.051.253-.008.107-.055.194-.047.088-.125.158-.082.068-.176.1-.093.032-.203.025l-.027-.002h-.008l-.043-.003q-.125 0-.246.024-.117.024-.234.072-.114.047-.215.115-.102.067-.188.155-.086.088-.156.189-.066.1-.113.215-.051.12-.074.246-.024.113-.024.23 0 .019.004.038 0 .095.02.19.011.054.007.109 0 .055-.011.11-.016.054-.04.103-.023.05-.058.094-.031.045-.074.08-.043.036-.09.063-.055.03-.113.045-.047.013-.098.017-.117.01-.227.04-.113.031-.214.083-.106.052-.2.12-.093.07-.171.156-.079.086-.141.184-.063.097-.106.206-.043.116-.066.236-.02.105-.02.214v.03l.004.034q.004.097-.023.183-.024.086-.082.163-.059.075-.133.123-.078.05-.172.073-.152.033-.285.104-.129.07-.242.178-.11.108-.184.236l-.015.03h2.468l.047-.125q.055-.136.133-.263.078-.127.176-.237.098-.11.215-.204.113-.093.242-.165.129-.071.27-.121.136-.049.28-.074.145-.026.298-.026.109 0 .203.039.093.038.172.116.078.077.117.17.035.094.035.203 0 .11-.035.203-.04.093-.117.17-.079.078-.172.117-.094.038-.203.038-.106 0-.2.03-.097.03-.183.089-.028.019-.055.04h8.367zm-12.52-1.092h.325c-.086.06-.168.127-.246.2a1.844 1.844 0 00-.297.36 1.905 1.905 0 00-.281.731H2.523v-1.291h7.114zm-.198.2H2.723v.891h6.25q.03-.128.078-.251.078-.202.199-.387.086-.135.188-.253z" fill-rule="evenodd"/><path d="M3.828 5.044h2.73a.328.328 0 000-.656h-2.73a.321.321 0 00-.23.096.326.326 0 000 .464.321.321 0 00.23.096z"/><path d="M3.828 5.244h2.73q.11 0 .2-.039.094-.038.172-.116.078-.077.117-.17.039-.094.039-.203 0-.11-.04-.203-.038-.093-.116-.17-.078-.078-.172-.117-.09-.038-.2-.038h-2.73q-.11 0-.203.038-.094.04-.172.116-.074.078-.113.171-.04.093-.04.203 0 .11.04.202.039.094.113.171.078.077.172.116.094.039.203.039zm0-.2h2.73a.328.328 0 000-.656h-2.73a.321.321 0 00-.23.096.326.326 0 000 .464.321.321 0 00.23.096z" fill-rule="evenodd"/><path d="M7.875 5.044h.746a.321.321 0 00.23-.096.326.326 0 000-.464.321.321 0 00-.23-.096h-.746a.321.321 0 00-.23.096.326.326 0 000 .464.321.321 0 00.23.096z"/><path d="M7.875 5.244h.746q.11 0 .203-.039.094-.038.172-.116.074-.077.113-.17.04-.094.04-.203 0-.11-.04-.203-.039-.093-.113-.17-.078-.078-.172-.117-.094-.038-.203-.038h-.746q-.11 0-.203.038-.094.04-.172.116-.074.078-.113.171-.04.093-.04.203 0 .11.04.202.039.094.113.171.078.077.172.116.094.039.203.039zm0-.2h.746a.321.321 0 00.23-.096.326.326 0 000-.464.321.321 0 00-.23-.096h-.746a.321.321 0 00-.23.096.326.326 0 000 .464.321.321 0 00.23.096z" fill-rule="evenodd"/></g></svg>