<svg width="24" height="24" fill="none" xmlns="http://www.w3.org/2000/svg"><defs><clipPath id="a"><path fill="#fff" fill-opacity="0" d="M0 0h24v24H0z"/></clipPath></defs><path d="M0 0h24v24H0z"/><g clip-path="url(#a)" fill="#84BE51"><path d="M19.004 20.35V17a5.505 5.505 0 004.777-7.021A5.494 5.494 0 0022.04 7.31a4.486 4.486 0 00.938-2.301A4.498 4.498 0 0016.114.711a4.525 4.525 0 00-1.66 1.85 4.524 4.524 0 00-.427 2.448c.094.84.418 1.637.942 2.301a5.504 5.504 0 00-1.715 5.857 5.505 5.505 0 001.793 2.635A5.515 5.515 0 0018.004 17v3a19.088 19.088 0 00-12 0v-3a5.506 5.506 0 004.777-7.021A5.494 5.494 0 009.04 7.31a4.526 4.526 0 00.883-1.927A4.515 4.515 0 008.77 1.43 4.5 4.5 0 001.004 4.5a4.45 4.45 0 00.965 2.785 5.496 5.496 0 00.062 8.522A5.496 5.496 0 005.004 17v3.35A19.312 19.312 0 00.19 23.105a.51.51 0 00-.171.253.5.5 0 00.484.642h23a.509.509 0 00.477-.336.512.512 0 00-.168-.559 19.288 19.288 0 00-4.81-2.755zm-5-8.85a4.487 4.487 0 012-3.73.507.507 0 00.207-.373.51.51 0 00-.156-.397c-.5-.487-.84-1.11-.98-1.791a3.51 3.51 0 01.187-2.032A3.506 3.506 0 0118.504 1c.695 0 1.375.208 1.95.595a3.488 3.488 0 011.288 1.582A3.5 3.5 0 0120.952 7a.51.51 0 00-.156.397.446.446 0 00.063.21c.035.064.082.12.145.163a4.534 4.534 0 011.52 1.72 4.52 4.52 0 01.472 2.245 4.494 4.494 0 01-2.379 3.748 4.493 4.493 0 01-4.434-.116 4.502 4.502 0 01-1.601-1.646 4.47 4.47 0 01-.578-2.221zm-13 0a4.487 4.487 0 012-3.73.508.508 0 00.207-.373A.51.51 0 003.055 7a3.48 3.48 0 01-.98-1.791 3.51 3.51 0 01.187-2.032A3.507 3.507 0 015.504 1c.695 0 1.375.208 1.95.595a3.488 3.488 0 011.288 1.582A3.5 3.5 0 017.952 7a.51.51 0 00-.156.397.447.447 0 00.063.21c.036.064.082.12.145.163a4.534 4.534 0 011.52 1.72 4.52 4.52 0 01.472 2.245 4.494 4.494 0 01-2.379 3.748 4.493 4.493 0 01-4.434-.116 4.502 4.502 0 01-1.601-1.646 4.469 4.469 0 01-.578-2.221zM2.059 23a18.108 18.108 0 0119.895 0H2.058z"/><path d="M5.145 7.355a.52.52 0 00.16.11.52.52 0 00.386 0 .478.478 0 00.16-.11l1.5-1.5A.489.489 0 007.5 5.5a.49.49 0 00-.148-.355.495.495 0 00-.707 0L5.5 6.295l-1.148-1.15a.495.495 0 00-.707 0 .505.505 0 00-.149.355c0 .133.055.261.149.355l1.5 1.5zm0 3.5a.52.52 0 00.16.11.519.519 0 00.386 0 .478.478 0 00.16-.11l1.5-1.5a.47.47 0 00.11-.163A.466.466 0 007.5 9a.467.467 0 00-.04-.192.517.517 0 00-.27-.271.515.515 0 00-.385 0 .517.517 0 00-.16.108L5.5 9.795l-1.148-1.15a.517.517 0 00-.16-.109.515.515 0 00-.387 0 .517.517 0 00-.27.272.467.467 0 00-.039.192c0 .066.012.131.04.192a.47.47 0 00.109.163l1.5 1.5zm.707 3.5l1.5-1.5A.489.489 0 007.5 12.5a.49.49 0 00-.148-.355.495.495 0 00-.707 0L5.5 13.295l-1.148-1.15a.517.517 0 00-.16-.109.515.515 0 00-.387 0 .517.517 0 00-.27.272.466.466 0 00-.039.192c0 .066.012.131.04.192a.47.47 0 00.109.163l1.5 1.5a.52.52 0 00.16.11.519.519 0 00.386 0 .478.478 0 00.16-.11zm12.293-7a.52.52 0 00.16.11.52.52 0 00.386 0 .478.478 0 00.16-.11l1.5-1.5A.489.489 0 0020.5 5.5a.49.49 0 00-.148-.355.495.495 0 00-.707 0L18.5 6.295l-1.148-1.15a.495.495 0 00-.707 0 .506.506 0 00-.149.355c0 .133.055.261.149.355l1.5 1.5zm0 3.5a.52.52 0 00.16.11.519.519 0 00.386 0 .478.478 0 00.16-.11l1.5-1.5A.489.489 0 0020.5 9a.49.49 0 00-.148-.355.495.495 0 00-.707 0L18.5 9.795l-1.148-1.15a.495.495 0 00-.707 0 .506.506 0 00-.149.355c0 .133.055.261.149.355l1.5 1.5zm.707 3.5l1.5-1.5a.489.489 0 00.148-.355.49.49 0 00-.148-.355.495.495 0 00-.707 0l-1.145 1.15-1.148-1.15a.495.495 0 00-.707 0 .506.506 0 00-.149.355c0 .133.055.261.149.355l1.5 1.5a.52.52 0 00.16.11.519.519 0 00.386 0 .478.478 0 00.16-.11z"/></g></svg>