<svg width="18.4" height="16" fill="none" xmlns="http://www.w3.org/2000/svg"><defs><clipPath id="a"><path fill="#fff" fill-opacity="0" d="M0 0h18.4v16H0z"/></clipPath></defs><path d="M0 0h18.4v16H0z"/><g clip-path="url(#a)" fill="#FFF"><path d="M12.191.578a4.593 4.593 0 00-3.39 1.487A4.593 4.593 0 005.41.578 4.615 4.615 0 00.8 5.188c0 1.508.564 3.076 1.676 4.659a.234.234 0 10.382-.27c-1.054-1.502-1.59-2.98-1.59-4.39a4.145 4.145 0 014.141-4.14 4.13 4.13 0 013.21 1.524.235.235 0 00.362 0 4.129 4.129 0 013.21-1.524 4.146 4.146 0 014.14 4.141c0 2.757-2.068 5.267-3.803 6.887a24.42 24.42 0 01-3.728 2.84c-.602-.368-2.586-1.335-4.586-3.802a.232.232 0 00-.328-.035.233.233 0 00-.035.33c2.296 2.835 4.798 3.963 4.832 3.982a.23.23 0 00.117.032.23.23 0 00.117-.032 24.552 24.552 0 003.926-2.966c1.142-1.067 2.054-2.153 2.709-3.229.828-1.36 1.248-2.707 1.248-4.007a4.615 4.615 0 00-4.61-4.61z"/><path d="M9.012 1.85a4.76 4.76 0 00-.211.215A4.588 4.588 0 005.41.578 4.615 4.615 0 00.8 5.188c0 1.508.564 3.076 1.676 4.659a.234.234 0 10.382-.27c-1.054-1.502-1.59-2.98-1.59-4.39a4.145 4.145 0 014.141-4.14 4.13 4.13 0 013.21 1.524.235.235 0 00.362 0 4.129 4.129 0 013.21-1.524 4.146 4.146 0 014.14 4.141c0 2.757-2.068 5.267-3.803 6.887a24.42 24.42 0 01-3.728 2.84c-.602-.368-2.586-1.335-4.586-3.802a.232.232 0 00-.328-.035.233.233 0 00-.035.33c2.296 2.835 4.798 3.963 4.832 3.982a.23.23 0 00.117.032.23.23 0 00.117-.032 24.552 24.552 0 003.926-2.966c1.142-1.067 2.054-2.153 2.709-3.229.828-1.36 1.248-2.707 1.248-4.007a4.615 4.615 0 00-4.61-4.61 4.588 4.588 0 00-3.18 1.273zm-.215 12.714q.586-.366 1.25-.844 1.242-.898 2.277-1.864 1.572-1.469 2.502-2.957 1.205-1.93 1.205-3.711 0-.425-.09-.83-.074-.339-.21-.663-.135-.318-.32-.602-.218-.333-.505-.62-.287-.287-.62-.504-.284-.186-.602-.32-.325-.137-.662-.212-.405-.09-.83-.09-.471 0-.915.108-.377.092-.734.262-.352.167-.656.396-.371.278-.672.648-.037.046-.084.082-.047.037-.102.063-.054.025-.111.038-.057.013-.117.013-.06 0-.117-.013-.057-.013-.112-.038-.054-.026-.101-.062-.045-.036-.084-.083-.303-.37-.672-.649-.307-.228-.656-.395-.36-.17-.735-.262-.443-.108-.914-.108-.426 0-.83.09-.338.075-.662.212-.318.134-.602.32-.334.217-.62.504-.288.287-.505.62-.185.284-.32.601-.137.325-.21.663-.09.405-.09.83 0 2.03 1.534 4.218.063.09.086.19.022.1.002.21-.017.108-.074.195-.055.086-.144.15-.09.063-.19.085-.1.023-.209.003-.11-.019-.195-.073-.086-.055-.15-.146Q.5 7.556.5 5.187q0-.537.113-1.05.096-.439.274-.859.174-.41.414-.777.275-.42.638-.783.364-.364.786-.64.365-.24.775-.413.422-.178.86-.274.513-.113 1.05-.113.56 0 1.094.122.451.102.88.291.438.192.821.458.316.219.596.487.28-.268.595-.487.383-.266.82-.458.43-.189.882-.292.533-.12 1.093-.12.537 0 1.051.112.438.096.86.274.408.173.775.413.422.276.785.64.361.363.639.783.24.367.414.777.178.42.273.858.114.514.114 1.052-.002 2.043-1.293 4.163-1.008 1.657-2.762 3.292-1.227 1.146-2.715 2.184-.467.326-.904.603-.23.145-.36.22-.062.036-.129.054-.066.018-.138.018-.072 0-.139-.018-.062-.017-.119-.048l-.006-.003q-.789-.38-1.71-1.035-.413-.293-.806-.61-1.314-1.067-2.402-2.411-.07-.086-.1-.184-.029-.098-.017-.208.012-.11.06-.2.05-.09.135-.16.086-.07.184-.099.098-.029.209-.017.11.011.2.06.089.049.16.135 1.124 1.389 2.478 2.425.486.373 1.013.706.3.19.752.449l.104.06z" fill-rule="evenodd"/></g></svg>