<svg width="50" height="50" fill="none" xmlns="http://www.w3.org/2000/svg"><defs><clipPath id="a"><path fill="#fff" fill-opacity="0" d="M0 0h50v50H0z"/></clipPath></defs><path d="M0 0h50v50H0z"/><g clip-path="url(#a)" fill="#84C551"><path d="M34.727 31.349a1.71 1.71 0 01-1.711-1.71v-.74a1.71 1.71 0 013.418 0v.74a1.71 1.71 0 01-1.707 1.71zm-7.731 2.777H12.86a1.71 1.71 0 110-3.418h14.137a1.71 1.71 0 010 3.418zm0 7.997H12.86a1.71 1.71 0 110-3.418h14.137a1.71 1.71 0 010 3.418z"/><path d="M11.148 24.527c0 .944.766 1.71 1.711 1.71h14.137c.676 0 1.258-.393 1.535-.962 1.52.617 3.184.958 4.922.958 7.238 0 13.129-5.884 13.129-13.117C46.582 5.885 40.692 0 33.453 0 28.45 0 24.09 2.815 21.875 6.944H6.625a3.209 3.209 0 00-3.207 3.205v36.646A3.209 3.209 0 006.625 50H33.23a3.209 3.209 0 003.208-3.205V34.729a1.71 1.71 0 00-3.419 0v11.852H6.837V10.363H20.62a13.151 13.151 0 00-.18 4.458h-7.58a1.71 1.71 0 100 3.418h8.512a13.219 13.219 0 003.258 4.579H12.86a1.71 1.71 0 00-1.71 1.709zm12.602-11.41c0-5.348 4.352-9.698 9.703-9.698 5.356 0 9.707 4.35 9.707 9.697 0 5.348-4.351 9.698-9.707 9.698-5.351 0-9.703-4.35-9.703-9.697z"/><path d="M37.148 16.685c-.257 0-.52-.059-.765-.183l-3.696-1.858a1.708 1.708 0 01-.94-1.527V6.059a1.71 1.71 0 013.417 0v6.004l2.754 1.385c1.566.789.992 3.237-.77 3.237z"/></g></svg>