<svg width="20" height="20" fill="none" xmlns="http://www.w3.org/2000/svg"><defs><clipPath id="a"><path fill="#fff" fill-opacity="0" d="M0 0h20v20H0z"/></clipPath></defs><path d="M0 0h20v20H0z"/><g clip-path="url(#a)"><path d="M10 0C4.484 0 0 4.486 0 10s4.484 10 10 10 10-4.486 10-10S15.516 0 10 0zm3.55 17.815a8.535 8.535 0 01-3.55.77 8.535 8.535 0 01-3.55-.77v-3.461a1.77 1.77 0 011.769-1.769h3.562c.977 0 1.77.794 1.77 1.769v3.46zm1.415-.817v-2.644a3.186 3.186 0 00-3.184-3.185h-.176a3.728 3.728 0 002.118-3.357A3.728 3.728 0 0010 4.092a3.727 3.727 0 00-3.723 3.72c0 1.478.868 2.757 2.118 3.357h-.176a3.186 3.186 0 00-3.184 3.185v2.644A8.574 8.574 0 011.415 10c0-4.733 3.85-8.584 8.585-8.584 4.734 0 8.586 3.85 8.586 8.584 0 2.884-1.43 5.44-3.621 6.998zM10 10.118a2.308 2.308 0 01-2.305-2.306A2.309 2.309 0 0110 5.508a2.309 2.309 0 012.305 2.306A2.308 2.308 0 0110 10.117z" fill="#FFF"/></g></svg>