<svg width="106" height="48" fill="none" xmlns="http://www.w3.org/2000/svg"><defs><clipPath id="a"><path fill="#fff" fill-opacity="0" d="M0 0h106v48H0z"/></clipPath></defs><path d="M0 0h106v48H0z"/><g clip-path="url(#a)"><path d="M0 30.54V2.202A2.157 2.157 0 01.625.634 2.052 2.052 0 012.13 0h12.542c6.493 0 11.216 1.316 14.167 3.948 2.953 2.632 4.43 6.764 4.434 12.397 0 5.62-1.478 9.743-4.434 12.368-2.955 2.626-7.677 3.939-14.167 3.939H2.129a2.073 2.073 0 01-1.504-.606A1.985 1.985 0 010 30.54zm8.461-4.35h5.965c4.024 0 6.761-.743 8.212-2.23 1.451-1.488 2.177-4.031 2.177-7.63 0-3.604-.726-6.147-2.177-7.628-1.45-1.482-4.188-2.229-8.212-2.241H8.461v19.73z" fill="#FFF"/><path d="M45.361 24.756v.024h3.808c.409 0 .809 0 1.203-.024h-5.01z" fill="#84C551"/><path d="M73.264 4.3V2.16a2.098 2.098 0 01.603-1.548A2.061 2.061 0 0175.395 0h28.472a2.032 2.032 0 011.527.61 2.104 2.104 0 01.602 1.55V4.3a2.105 2.105 0 01-.601 1.536 2.108 2.108 0 01-.705.458 2.07 2.07 0 01-.823.143H93.858v24.102a1.99 1.99 0 01-.616 1.488 2.058 2.058 0 01-1.49.605h-4.23a2.039 2.039 0 01-1.495-.605 2.01 2.01 0 01-.616-1.488V6.451H75.403a2.066 2.066 0 01-1.523-.6 2.07 2.07 0 01-.616-1.55z" fill="#FFF"/><path d="M.63 45.788v-6.123a.487.487 0 01.136-.343.443.443 0 01.324-.133h.95a.432.432 0 01.32.133.477.477 0 01.136.343v5.183h4.23a.421.421 0 01.325.139.48.48 0 01.131.329v.476a.48.48 0 01-.131.325.44.44 0 01-.324.133H1.1a.467.467 0 01-.325-.129.418.418 0 01-.145-.333zm7.662-.168a3.232 3.232 0 01-.749-2.071c0-.759.266-1.493.75-2.072a3.376 3.376 0 012.082-.72c.753 0 1.485.253 2.082.72a2.656 2.656 0 01.747 2.022v.281a.291.291 0 01-.3.305H9.25c.003.326.125.639.343.878.268.209.604.307.94.276a1.077 1.077 0 00.88-.295.764.764 0 01.587-.3h.724a.289.289 0 01.28.186.301.301 0 01.02.118c0 .954-.883 1.43-2.65 1.43a2.899 2.899 0 01-2.083-.757zm.94-2.593h2.257c-.033-.773-.405-1.159-1.124-1.159-.719 0-1.076.386-1.119 1.159h-.014zm7.38 2.145l.668-.061h.178a.293.293 0 01.301.3v.53a.27.27 0 01-.085.19.36.36 0 01-.216.105 6.75 6.75 0 01-1.292.1c-1.386 0-2.08-.737-2.083-2.212v-4.635a.313.313 0 01.085-.22.284.284 0 01.211-.08h1.086a.278.278 0 01.212.08.312.312 0 01.084.22v1.645h1.35a.298.298 0 01.21.081.294.294 0 01.085.22v.581a.301.301 0 01-.084.22.284.284 0 01-.212.08h-1.349v1.803a1.15 1.15 0 00.23.772.774.774 0 00.621.282zm3.013-5.983c.414 0 .625.152.625.476a.811.811 0 01-.07.3l-.578 1.484a.976.976 0 01-.301.4.718.718 0 01-.47.162h-.193c-.202 0-.33-.043-.386-.129a.516.516 0 01-.08-.267 2.427 2.427 0 010-.267l.287-1.582a.652.652 0 01.268-.4.775.775 0 01.47-.163l.428-.014zm1.316 3.151c0-1.065.843-1.595 2.53-1.592 1.767 0 2.655.477 2.655 1.43a.297.297 0 01-.182.279.288.288 0 01-.114.022h-.724a.72.72 0 01-.587-.296 1.15 1.15 0 00-.94-.296c-.627 0-.94.16-.94.477 0 .148.126.267.375.367.305.116.62.202.94.258.364.075.723.169 1.077.281.352.104.675.292.94.548a1.296 1.296 0 01.376.954c0 1.059-.89 1.588-2.67 1.588-1.78 0-2.668-.477-2.665-1.43a.297.297 0 01.184-.285.29.29 0 01.117-.02h.724a.726.726 0 01.587.3 1.17 1.17 0 00.94.295c.738 0 1.11-.157 1.11-.477 0-.147-.127-.271-.376-.367a6.035 6.035 0 00-.94-.267 12.044 12.044 0 01-1.082-.281 2.2 2.2 0 01-.912-.548 1.268 1.268 0 01-.423-.94zm10.093 2.814a2.535 2.535 0 01-.677-1.87 2.331 2.331 0 01.771-1.864 3.257 3.257 0 012.209-.672 7.17 7.17 0 011.462.162c.397.068.781.2 1.138.39v4.554a1.89 1.89 0 01-.71 1.621 3.332 3.332 0 01-2.003.525 4.78 4.78 0 01-1.983-.329 1.104 1.104 0 01-.517-.427 1.13 1.13 0 01-.18-.65.3.3 0 01.085-.22.298.298 0 01.217-.086h.724a.686.686 0 01.559.258 1.155 1.155 0 00.94.338c.33.036.662-.045.94-.229a1.037 1.037 0 00.25-.8v-.23a5.785 5.785 0 01-1.449.2 2.4 2.4 0 01-1.776-.672zm2.204-3.214c-.766 0-1.151.443-1.151 1.344s.376 1.35 1.123 1.35a4.242 4.242 0 001.048-.148v-2.437a3.709 3.709 0 00-1.02-.11zm7.569.157l-.748-.029a1.664 1.664 0 00-1.25.73v3.142a.296.296 0 01-.085.215.28.28 0 01-.211.08h-1.086a.267.267 0 01-.212-.08.293.293 0 01-.085-.215v-4.768a.296.296 0 01.182-.284.285.285 0 01.115-.021h1.086a.28.28 0 01.211.086.296.296 0 01.085.22v.31c.288-.223.604-.404.94-.54a3.459 3.459 0 011.198-.176c.08 0 .158.03.217.086a.297.297 0 01.084.214v.749a.278.278 0 01-.084.214.293.293 0 01-.217.086l-.14-.019zm1.603 3.533a3.244 3.244 0 01-.757-2.086c0-.764.268-1.504.757-2.086a3.687 3.687 0 014.348 0c.488.582.756 1.322.756 2.086 0 .765-.268 1.504-.756 2.086a3.723 3.723 0 01-4.348 0zm1.226-3.366a2.852 2.852 0 000 2.55 1.319 1.319 0 001.88.001 2.85 2.85 0 000-2.551 1.34 1.34 0 00-1.88 0zm4.268-.982a.976.976 0 01-.047-.215c0-.143.085-.214.245-.22h.902a.76.76 0 01.41.115.61.61 0 01.244.32l.794 2.65.785-2.65a.549.549 0 01.199-.32.535.535 0 01.356-.114h.855a.527.527 0 01.358.111.54.54 0 01.197.323l.785 2.65.795-2.65a.594.594 0 01.249-.32.735.735 0 01.409-.114h.897c.16 0 .24.076.245.22a.672.672 0 01-.042.214l-1.472 4.525a.592.592 0 01-.24.314.684.684 0 01-.375.115h-.682a.676.676 0 01-.38-.12.56.56 0 01-.236-.31l-.94-2.932-.94 2.933a.574.574 0 01-.24.31.651.651 0 01-.376.119h-.672a.667.667 0 01-.372-.115.6.6 0 01-.244-.314l-1.467-4.525zm15.376 3.89l.668-.061h.178a.29.29 0 01.301.3v.53a.264.264 0 01-.084.19.36.36 0 01-.217.105 6.736 6.736 0 01-1.292.1c-1.385 0-2.08-.737-2.083-2.212v-4.635a.313.313 0 01.085-.22.282.282 0 01.212-.08h1.085a.278.278 0 01.212.08.313.313 0 01.085.22v1.645h1.353a.3.3 0 01.207.081.296.296 0 01.09.22v.581a.3.3 0 01-.185.281.28.28 0 01-.112.02H62.43v1.802a1.15 1.15 0 00.23.772.772.772 0 00.62.282zm2.35.458a3.244 3.244 0 01-.756-2.086c0-.764.268-1.504.757-2.086a3.687 3.687 0 014.348 0c.488.582.756 1.322.756 2.086 0 .765-.268 1.504-.756 2.086a3.723 3.723 0 01-4.348 0zm1.227-3.366a2.852 2.852 0 000 2.55 1.08 1.08 0 00.94.405 1.095 1.095 0 00.94-.404 2.813 2.813 0 000-2.551 1.106 1.106 0 00-.94-.396 1.087 1.087 0 00-.94.396zM72 45.154a2.535 2.535 0 01-.677-1.87 2.36 2.36 0 01.175-1.021c.134-.323.337-.611.596-.843a3.258 3.258 0 012.214-.672c.49.004.978.058 1.457.162.399.07.784.201 1.143.39v4.554c.022.31-.031.62-.156.903-.125.282-.316.53-.559.718a3.33 3.33 0 01-1.998.525 4.756 4.756 0 01-1.984-.329 1.097 1.097 0 01-.517-.426 1.12 1.12 0 01-.178-.652.296.296 0 01.184-.284.287.287 0 01.117-.02h.733a.678.678 0 01.56.257 1.16 1.16 0 00.94.338c.33.039.663-.042.94-.229a1.043 1.043 0 00.254-.8v-.23a5.822 5.822 0 01-1.453.2A2.398 2.398 0 0172 45.154zm2.205-3.214c-.766 0-1.147.443-1.147 1.344s.371 1.35 1.119 1.35a4.28 4.28 0 001.052-.148V42.05a3.748 3.748 0 00-1.024-.11zm4.338 3.68a3.233 3.233 0 01-.749-2.071c0-.759.266-1.493.75-2.072a3.378 3.378 0 012.082-.72c.753 0 1.486.253 2.082.72a2.629 2.629 0 01.748 2.022v.281a.312.312 0 01-.085.22.292.292 0 01-.216.085h-3.653c.003.326.126.639.344.878.268.209.603.307.94.276a1.077 1.077 0 00.879-.295.763.763 0 01.587-.3h.724a.288.288 0 01.216.086.293.293 0 01.085.218c0 .954-.883 1.43-2.651 1.43a2.899 2.899 0 01-2.083-.757zm.94-2.593h2.257c-.033-.773-.409-1.159-1.123-1.159-.715 0-1.077.386-1.12 1.159h-.013zm7.399 2.145l.663-.061h.183a.292.292 0 01.3.3l.001.53a.255.255 0 01-.084.19.373.373 0 01-.216.105c-.427.074-.86.108-1.293.1-1.388 0-2.083-.737-2.083-2.212v-4.635a.313.313 0 01.085-.22.28.28 0 01.212-.08h1.085a.277.277 0 01.212.08.313.313 0 01.085.22v1.645h1.349a.299.299 0 01.211.081.294.294 0 01.085.22v.581a.297.297 0 01-.085.22.284.284 0 01-.211.08h-1.35v1.803a1.15 1.15 0 00.231.772.772.772 0 00.62.282zm1.942.768v-6.45a.311.311 0 01.084-.22.283.283 0 01.212-.08h1.086a.278.278 0 01.211.08.311.311 0 01.084.22v1.974a2.683 2.683 0 011.777-.715 2.083 2.083 0 011.533.586 2.397 2.397 0 01.592 1.783v2.823a.283.283 0 01-.084.21.293.293 0 01-.216.086h-1.081a.284.284 0 01-.212-.086.288.288 0 01-.085-.21v-2.822c0-.787-.31-1.178-.94-1.178a1.904 1.904 0 00-1.297.705v3.295a.282.282 0 01-.085.21.285.285 0 01-.212.086h-1.085a.281.281 0 01-.212-.086.288.288 0 01-.07-.21zm7.229-.32a3.239 3.239 0 01-.747-2.071c0-.758.265-1.492.747-2.072a2.857 2.857 0 012.083-.73 2.887 2.887 0 012.077.711 2.63 2.63 0 01.748 2.022v.281a.312.312 0 01-.085.22.287.287 0 01-.216.085h-3.666c0 .325.121.638.338.878.268.208.604.306.94.276a1.096 1.096 0 00.884-.295.752.752 0 01.587-.3h.719a.296.296 0 01.217.085c.028.029.05.063.064.1a.283.283 0 01.02.12c0 .953-.883 1.43-2.65 1.43a2.9 2.9 0 01-2.06-.74zm.94-2.593h2.252c-.033-.773-.404-1.159-1.123-1.159-.72 0-1.086.386-1.128 1.159zm8.532-.93l-.747-.029a1.657 1.657 0 00-1.25.73v3.142a.289.289 0 01-.021.116.281.281 0 01-.276.18h-1.066a.263.263 0 01-.212-.081.281.281 0 01-.064-.099.289.289 0 01-.021-.116v-4.768a.306.306 0 01.085-.22.283.283 0 01.212-.085h1.085a.266.266 0 01.212.086c.028.028.05.063.065.1a.3.3 0 01.019.12v.309c.288-.222.605-.403.941-.539a3.468 3.468 0 011.198-.176c.081 0 .158.03.216.086a.299.299 0 01.085.214v.749a.278.278 0 01-.085.215.292.292 0 01-.216.085l-.16-.019z" fill="#84C551"/><path d="M36.726 24.756v.028l-1.495 5.755a3.522 3.522 0 00-.08.682c.023.332.154.648.372.897a1.464 1.464 0 001.255.515H41.2a2.678 2.678 0 001.66-.606 2.649 2.649 0 001.005-1.535l1.495-5.722v-.024l-8.635.01z" fill="#21603F"/><path d="M68.169.024a1.85 1.85 0 00-.324 0H54.56c-4.7.171-8.233 1.344-10.6 3.519-.112.1-.22.2-.324.31a10.716 10.716 0 00-2.773 5.02l-4.127 15.878h13.632c4.678-.172 8.2-1.335 10.567-3.49.113-.1.22-.205.329-.31a10.716 10.716 0 002.82-5.05L68.212.024h-.042zM55.919 13.77a6.181 6.181 0 01-1.97 3.17l-.197.158a5.893 5.893 0 01-3.177 1.216h-3.55l1.97-7.305a6.22 6.22 0 011.603-2.86c.108-.105.22-.21.339-.31l.225-.186a5.892 5.892 0 013.178-1.216h3.554l-1.975 7.333z" fill="#84C551"/><path d="M66.18 15.987a12.231 12.231 0 01-4.879 7.248v7.223a2.087 2.087 0 00.593 1.536 2.029 2.029 0 001.513.605h4.23a2.083 2.083 0 001.505-.605 1.981 1.981 0 00.625-1.488V2.193l-3.586 13.794z" fill="#FFF"/></g></svg>