<svg width="157.997" height="71.011" fill="none" xmlns="http://www.w3.org/2000/svg"><path d="M.001 45.175V3.26A3.165 3.165 0 01.933.94 3.061 3.061 0 013.175.002H21.87c9.679 0 16.718 1.946 21.118 5.84 4.4 3.893 6.603 10.005 6.607 18.337 0 8.313-2.202 14.41-6.607 18.295-4.404 3.883-11.444 5.825-21.118 5.825H3.175a3.113 3.113 0 01-2.242-.896 2.9 2.9 0 01-.932-2.228zm12.612-6.432h8.892c5.997 0 10.078-1.1 12.24-3.301 2.163-2.2 3.245-5.962 3.245-11.284 0-5.332-1.082-9.094-3.244-11.285-2.164-2.19-6.244-3.296-12.241-3.315h-8.892v29.185z" fill="#1F1B1C"/><path d="M67.616 36.62v.035h5.675c.61 0 1.205 0 1.794-.035h-7.47z" fill="#84C551"/><path d="M109.207 6.363V3.197a3.109 3.109 0 01.899-2.29 3.075 3.075 0 012.275-.905h42.439a3.05 3.05 0 012.278.903 3.11 3.11 0 01.897 2.292v3.166a3.084 3.084 0 01-.897 2.271 3.115 3.115 0 01-2.278.889h-14.917v35.652a2.947 2.947 0 01-.918 2.2 3.053 3.053 0 01-2.221.896h-6.306a3.058 3.058 0 01-2.228-.896 2.948 2.948 0 01-.918-2.2V9.545h-14.917a3.104 3.104 0 01-2.97-1.938 3.092 3.092 0 01-.218-1.244z" fill="#1F1B1C"/><path d="M.94 67.73v-9.056a.705.705 0 01.425-.657.655.655 0 01.262-.049h1.415a.648.648 0 01.477.198.709.709 0 01.203.508v7.666h6.306a.632.632 0 01.484.205c.125.13.195.305.195.486v.706a.706.706 0 01-.195.479.662.662 0 01-.484.198H1.64a.697.697 0 01-.483-.19.612.612 0 01-.218-.495zm11.421-.247a4.76 4.76 0 010-6.13 5.058 5.058 0 016.208 0 3.888 3.888 0 011.114 2.991v.416a.46.46 0 01-.126.325.44.44 0 01-.322.127H13.79c.004.481.186.944.511 1.297.4.31.9.455 1.402.41a1.616 1.616 0 001.31-.438 1.136 1.136 0 01.876-.444h1.079a.433.433 0 01.448.451c0 1.41-1.317 2.116-3.952 2.116a4.341 4.341 0 01-3.104-1.121zm1.402-3.837h3.363c-.05-1.143-.603-1.714-1.675-1.714s-1.604.571-1.667 1.714h-.021zm11 3.174l.995-.092h.266a.44.44 0 01.418.272.423.423 0 01.03.172v.783a.384.384 0 01-.126.282.538.538 0 01-.322.155c-.636.111-1.281.16-1.927.148-2.064 0-3.099-1.09-3.104-3.272v-6.855a.46.46 0 01.127-.325.415.415 0 01.315-.12h1.618a.415.415 0 01.316.12.461.461 0 01.126.325v2.433h2.01c.117-.003.23.04.316.12a.443.443 0 01.126.324v.86a.44.44 0 01-.126.325.421.421 0 01-.316.12h-2.01v2.666c-.028.41.094.817.343 1.142a1.147 1.147 0 00.925.417zm4.491-8.852c.617 0 .932.226.932.706a1.195 1.195 0 01-.105.444l-.862 2.193c-.096.234-.25.438-.449.593a1.08 1.08 0 01-.7.24h-.287c-.302 0-.491-.064-.575-.19a.76.76 0 01-.12-.396 3.517 3.517 0 010-.395l.429-2.341a.965.965 0 01.399-.593c.202-.153.447-.237.7-.24l.638-.02zm1.962 4.662c0-1.575 1.257-2.36 3.77-2.355 2.635 0 3.959.705 3.959 2.116a.436.436 0 01-.442.444h-1.079a1.08 1.08 0 01-.876-.437 1.718 1.718 0 00-1.401-.438c-.934 0-1.401.235-1.401.706 0 .218.19.395.56.543.455.17.924.298 1.402.38.541.112 1.077.25 1.604.417a3.413 3.413 0 011.401.81 1.905 1.905 0 01.56 1.411c0 1.566-1.326 2.349-3.979 2.349s-3.977-.705-3.973-2.116a.436.436 0 01.449-.451h1.08a1.087 1.087 0 01.875.444 1.75 1.75 0 001.401.437c1.1 0 1.654-.233 1.654-.705 0-.219-.19-.402-.56-.543a9.08 9.08 0 00-1.402-.395 17.987 17.987 0 01-1.612-.416 3.278 3.278 0 01-1.359-.811 1.875 1.875 0 01-.63-1.39zm15.044 4.161a3.711 3.711 0 01-1.01-2.764 3.452 3.452 0 011.15-2.758 4.884 4.884 0 013.293-.994c.732.005 1.462.086 2.179.24a5.655 5.655 0 011.695.578v6.735a2.784 2.784 0 01-1.058 2.398 4.999 4.999 0 01-2.985.776 7.174 7.174 0 01-2.956-.487 1.643 1.643 0 01-1.037-1.594.431.431 0 01.274-.42.438.438 0 01.174-.031h1.08a1.031 1.031 0 01.833.38 1.714 1.714 0 001.401.502c.492.053.987-.067 1.402-.339a1.535 1.535 0 00.37-1.185v-.338a8.697 8.697 0 01-2.157.296 3.601 3.601 0 01-2.649-.995zm3.285-4.753c-1.142 0-1.716.656-1.716 1.989 0 1.333.56 1.996 1.674 1.996a6.37 6.37 0 001.563-.219V62.2a5.571 5.571 0 00-1.52-.162zm11.281.232l-1.114-.042a2.456 2.456 0 00-1.864 1.08v4.647a.423.423 0 01-.441.437h-1.618a.398.398 0 01-.316-.12.427.427 0 01-.126-.317v-7.053a.438.438 0 01.27-.42.423.423 0 01.172-.031h1.618a.416.416 0 01.315.127.44.44 0 01.126.324v.459a6 6 0 011.401-.797 5.168 5.168 0 011.787-.261c.12 0 .235.045.323.127a.446.446 0 01.126.317v1.108a.41.41 0 01-.126.317.445.445 0 01-.323.127l-.21-.028zm2.389 5.227a4.78 4.78 0 010-6.171 5.525 5.525 0 016.481 0 4.78 4.78 0 010 6.17 5.58 5.58 0 01-6.48 0zm1.829-4.98a4.189 4.189 0 000 3.774 1.977 1.977 0 002.803 0 4.189 4.189 0 000-3.773 2.004 2.004 0 00-2.803 0zm6.362-1.452a1.44 1.44 0 01-.07-.318c0-.211.126-.317.364-.324h1.345c.216-.003.427.056.61.17a.9.9 0 01.364.472l1.185 3.92 1.17-3.92a.815.815 0 01.296-.474.802.802 0 01.53-.168h1.276a.789.789 0 01.827.642l1.17 3.92 1.184-3.92a.88.88 0 01.371-.473 1.1 1.1 0 01.61-.17h1.338c.238 0 .358.114.364.325a.979.979 0 01-.063.318l-2.193 6.693a.873.873 0 01-.357.465c-.167.11-.362.169-.56.17H80.15a1.016 1.016 0 01-.567-.177.832.832 0 01-.35-.458L77.83 63.42l-1.401 4.338a.845.845 0 01-.358.458.976.976 0 01-.56.176H74.51a.997.997 0 01-.553-.169.886.886 0 01-.365-.465l-2.186-6.693zm22.919 5.755l.995-.092h.266a.441.441 0 01.322.127.426.426 0 01.126.317v.783a.382.382 0 01-.126.282.538.538 0 01-.322.155c-.636.111-1.281.16-1.927.148-2.064 0-3.099-1.09-3.104-3.272v-6.855a.461.461 0 01.126-.325.421.421 0 01.316-.12h1.618a.417.417 0 01.316.12.461.461 0 01.126.325v2.433h2.018a.447.447 0 01.308.12.444.444 0 01.133.324v.86a.451.451 0 01-.133.325.417.417 0 01-.308.12h-2.018v2.666c-.028.41.094.817.343 1.142a1.147 1.147 0 00.925.417zm3.503.677a4.78 4.78 0 010-6.171 5.526 5.526 0 016.482 0 4.779 4.779 0 011.127 3.085 4.78 4.78 0 01-1.127 3.086 5.58 5.58 0 01-6.482 0zm1.829-4.98a4.196 4.196 0 000 3.774 1.623 1.623 0 001.401.6 1.65 1.65 0 001.401-.6 4.124 4.124 0 000-3.773 1.662 1.662 0 00-1.401-.586 1.63 1.63 0 00-1.401.585zm7.665 4.274a3.729 3.729 0 01-1.009-2.765 3.46 3.46 0 011.149-2.757 4.884 4.884 0 013.301-.994c.73.006 1.458.086 2.172.24a5.79 5.79 0 011.702.578v6.735a2.778 2.778 0 01-1.065 2.398 4.991 4.991 0 01-2.978.776 7.127 7.127 0 01-2.956-.487 1.636 1.636 0 01-1.037-1.594.436.436 0 01.448-.451h1.093a1.019 1.019 0 01.834.38 1.727 1.727 0 001.401.502 2.09 2.09 0 001.401-.339 1.532 1.532 0 00.379-1.185v-.338a8.747 8.747 0 01-2.165.296 3.6 3.6 0 01-2.67-.995zm3.286-4.753c-1.142 0-1.709.656-1.709 1.989 0 1.333.553 1.996 1.667 1.996a6.414 6.414 0 001.57-.219V62.2a5.632 5.632 0 00-1.528-.162zm6.468 5.445a4.753 4.753 0 01-1.117-3.065c0-1.122.395-2.208 1.117-3.064a5.056 5.056 0 016.208 0c.385.39.684.859.877 1.374a3.9 3.9 0 01.236 1.616v.416a.434.434 0 01-.448.451h-5.444c.004.482.187.945.512 1.298.399.31.899.455 1.401.41a1.613 1.613 0 001.31-.438 1.136 1.136 0 01.876-.444h1.079a.435.435 0 01.448.451c0 1.41-1.317 2.116-3.951 2.116a4.34 4.34 0 01-3.104-1.121zm1.401-3.837h3.363c-.049-1.143-.61-1.714-1.674-1.714-1.065 0-1.605.571-1.668 1.714h-.021zm11.028 3.174l.989-.092h.273a.453.453 0 01.322.127.421.421 0 01.126.317v.783a.391.391 0 01-.126.282.56.56 0 01-.322.155c-.637.11-1.282.16-1.927.148-2.069 0-3.104-1.09-3.104-3.272v-6.855a.46.46 0 01.126-.325.417.417 0 01.315-.12h1.619a.415.415 0 01.315.12.46.46 0 01.126.325v2.433h2.011c.117-.003.23.04.315.12a.442.442 0 01.126.324v.86a.443.443 0 01-.126.324.408.408 0 01-.315.121h-2.011v2.666c-.028.41.095.817.344 1.142a1.14 1.14 0 00.924.417zm2.894 1.135v-9.542a.46.46 0 01.126-.325.426.426 0 01.316-.12h1.618a.415.415 0 01.315.12.46.46 0 01.126.325v2.92a4.018 4.018 0 012.649-1.058 3.12 3.12 0 012.284.867 3.55 3.55 0 01.883 2.638v4.175a.422.422 0 01-.274.408.43.43 0 01-.174.03h-1.612a.431.431 0 01-.441-.438V63.78c0-1.164-.463-1.742-1.402-1.742a2.855 2.855 0 00-1.934 1.044v4.873a.406.406 0 01-.126.31.424.424 0 01-.315.127h-1.619a.423.423 0 01-.315-.127.422.422 0 01-.105-.31zm10.776-.472a4.768 4.768 0 010-6.13 4.28 4.28 0 013.104-1.078 4.325 4.325 0 013.097 1.05 3.88 3.88 0 011.114 2.99v.417a.46.46 0 01-.126.325.435.435 0 01-.322.126h-5.465c.002.481.182.944.504 1.298.4.308.9.454 1.401.41a1.645 1.645 0 001.318-.438 1.11 1.11 0 01.876-.444h1.072a.43.43 0 01.418.276.437.437 0 01.03.175c0 1.41-1.317 2.116-3.951 2.116a4.344 4.344 0 01-3.07-1.093zm1.402-3.837h3.356c-.049-1.143-.602-1.714-1.675-1.714-1.071 0-1.618.571-1.681 1.714zm12.717-1.376l-1.114-.042a2.467 2.467 0 00-1.864 1.08v4.647a.457.457 0 01-.03.172.422.422 0 01-.411.265h-1.591a.398.398 0 01-.315-.12.428.428 0 01-.126-.317v-7.053a.437.437 0 01.27-.42.426.426 0 01.171-.031h1.618a.404.404 0 01.316.127.441.441 0 01.126.324v.459a5.965 5.965 0 011.401-.797 5.21 5.21 0 011.787-.261.47.47 0 01.322.127.449.449 0 01.126.317v1.108a.407.407 0 01-.126.317.441.441 0 01-.322.127l-.238-.028z" fill="#84C551"/><path d="M54.744 36.62v.042l-2.228 8.513a5.102 5.102 0 00-.119 1.008c.034.492.229.958.554 1.326a2.185 2.185 0 001.87.762h6.594a4.01 4.01 0 002.473-.896 3.913 3.913 0 001.5-2.27l2.228-8.464v-.035l-12.872.014z" fill="#21603F"/><path d="M101.612.037a2.793 2.793 0 00-.484 0h-19.8c-7.007.254-12.274 1.99-15.8 5.205-.169.148-.33.296-.484.459a15.81 15.81 0 00-4.134 7.426l-6.152 23.486h20.32c6.974-.254 12.224-1.975 15.75-5.163.169-.148.33-.303.49-.458a15.819 15.819 0 004.205-7.47L101.675.038h-.063zM83.352 20.37a9.118 9.118 0 01-2.936 4.69l-.293.233a8.823 8.823 0 01-4.737 1.799h-5.29l2.936-10.805a9.182 9.182 0 012.389-4.232c.161-.155.329-.31.504-.458l.337-.275a8.821 8.821 0 014.736-1.799h5.297L83.353 20.37z" fill="#84C551"/><path d="M98.648 23.65a18.084 18.084 0 01-7.273 10.72v10.685a3.08 3.08 0 00.884 2.272 3.034 3.034 0 002.255.895h6.306a3.13 3.13 0 002.242-.896 2.928 2.928 0 00.932-2.2V3.245L98.648 23.65z" fill="#1F1B1C"/></svg>