<svg width="20" height="20" fill="none" xmlns="http://www.w3.org/2000/svg"><defs><clipPath id="a"><path fill="#fff" fill-opacity="0" d="M0 0h20v20H0z"/></clipPath></defs><path d="M0 0h20v20H0z"/><g clip-path="url(#a)"><path d="M10 0C5.94 0 2.637 3.303 2.637 7.363c0 1.06.217 2.07.644 3.006 1.84 4.028 5.37 8.281 6.408 9.488a.41.41 0 00.621 0c1.038-1.207 4.567-5.46 6.409-9.488a7.175 7.175 0 00.644-3.006C17.363 3.303 14.06 0 10 0zm0 11.188a3.828 3.828 0 01-3.824-3.825A3.828 3.828 0 0110 3.538a3.83 3.83 0 013.824 3.825A3.828 3.828 0 0110 11.188z" fill="#8C3213"/></g></svg>