<svg width="24" height="24" fill="none" xmlns="http://www.w3.org/2000/svg"><defs><clipPath id="a"><path fill="#fff" fill-opacity="0" d="M0 0h24v24H0z"/></clipPath></defs><path d="M0 0h24v24H0z"/><g clip-path="url(#a)" fill="#84BE51"><path d="M3.367 19.13l2.258 1.129v2.522c0 .26.21.469.469.469h4.968a.47.47 0 00.47-.469v-6.12a2.775 2.775 0 00-2.505-2.77c-.004 0-1.98-.31-2.898-1.227l-1.055-1.052a1.856 1.856 0 00-1.324-.55v-3.75c0-1.033-.84-1.875-1.875-1.875A1.876 1.876 0 000 7.313v6.368a6.104 6.104 0 003.367 5.45zM.937 7.313a.94.94 0 01.938-.938.94.94 0 01.938.938v4c-.57.331-.938.948-.938 1.624 0 .501.195.972.55 1.326l2.4 2.401a.47.47 0 00.663-.663l-2.402-2.4a.937.937 0 01.352-1.547.94.94 0 01.976.22l1.05 1.053c1.087 1.087 3.462 1.496 3.47 1.497.945.095 1.66.885 1.66 1.838v5.65H6.563V19.97a.472.472 0 00-.258-.42l-2.516-1.257A5.13 5.13 0 01.937 13.68V7.313zm10.594 4.218a.47.47 0 00.938 0v-1.406h1.793a4.775 4.775 0 004.77-4.768V3.094a.468.468 0 00-.802-.332c-.515.516-1.203.8-1.93.8-1.57 0-2.96.761-3.831 1.933V1.219a.47.47 0 00-.938 0v2.4A4.765 4.765 0 007.7 1.688a2.714 2.714 0 01-1.93-.8.47.47 0 00-.8.332v2.263a4.775 4.775 0 004.77 4.768h1.792v3.281zm4.77-7.031c.637 0 1.25-.162 1.793-.467v1.324a3.836 3.836 0 01-3.832 3.83h-.856l2.625-1.968a.468.468 0 10-.562-.75l-3 2.25V8.33A3.835 3.835 0 0116.3 4.5zM5.906 3.482V2.158a3.652 3.652 0 001.793.467 3.835 3.835 0 013.832 3.83v.389l-3-2.25a.469.469 0 00-.562.75l2.625 1.968h-.856a3.835 3.835 0 01-3.832-3.83z"/><path d="M21.984 18a.47.47 0 11-.939-.001.47.47 0 01.94.001z" fill-rule="evenodd"/><path d="M22.125 5.438a1.876 1.876 0 00-1.875 1.875v3.75c-.5 0-.973.195-1.324.549l-1.055 1.052c-.898.897-2.89 1.226-2.894 1.227a2.776 2.776 0 00-2.508 2.77v6.12c0 .26.21.469.469.469h4.968a.47.47 0 00.469-.469V20.26l1.535-.768a.468.468 0 00.207-.628.467.467 0 00-.629-.21l-1.793.896a.473.473 0 00-.258.42v2.343h-4.03v-5.65a1.84 1.84 0 011.663-1.838c.008-.002 2.317-.351 3.465-1.497l1.05-1.052a.938.938 0 111.328 1.326L18.513 16a.47.47 0 00.664.663l2.398-2.4a1.86 1.86 0 00.551-1.326 1.88 1.88 0 00-.938-1.624V7.312a.94.94 0 01.938-.937.94.94 0 01.938.938v6.367c0 .858-.215 1.709-.625 2.462a.468.468 0 10.824.448c.484-.89.738-1.896.738-2.91V7.313c0-1.034-.84-1.875-1.875-1.875z"/></g></svg>