<svg width="15" height="15" fill="none" xmlns="http://www.w3.org/2000/svg"><defs><clipPath id="a"><path fill="#fff" fill-opacity="0" d="M0 0h15v15H0z"/></clipPath></defs><path d="M0 0h15v15H0z"/><g clip-path="url(#a)"><path d="M14.817 13.933L10.55 9.668a5.91 5.91 0 001.324-3.73A5.945 5.945 0 005.937 0 5.944 5.944 0 000 5.938a5.944 5.944 0 005.938 5.937 5.912 5.912 0 003.73-1.324l4.265 4.266a.623.623 0 00.884 0 .625.625 0 000-.884zm-8.88-3.308A4.692 4.692 0 011.25 5.938 4.692 4.692 0 015.938 1.25a4.692 4.692 0 014.687 4.688 4.692 4.692 0 01-4.688 4.687z" fill="#84BE51"/></g></svg>