<svg width="24" height="24" fill="none" xmlns="http://www.w3.org/2000/svg"><defs><clipPath id="a"><path fill="#fff" fill-opacity="0" d="M0 0h24v24H0z"/></clipPath></defs><path d="M0 0h24v24H0z"/><g clip-path="url(#a)" fill="#84BE51"><path d="M19.774 17.173a.352.352 0 00-.497-.013c-1.635 1.552-3.534 2.933-4.838 3.516a6.18 6.18 0 01-4.04.364 7.014 7.014 0 001.677-1.36c2.834-.36 4.87-2.405 4.955-2.492a.352.352 0 00-.502-.492c-.017.017-1.59 1.598-3.806 2.149a6.891 6.891 0 001.14-3.806 9.49 9.49 0 00-.04-.838.352.352 0 00-.7.063c.025.283.037.544.037.775a6.236 6.236 0 01-6.228 6.229 6.236 6.236 0 01-6.229-6.229c0-1.872.798-5.048 1.898-7.55 1.328-3.023 2.907-4.757 4.33-4.757 1.294 0 2.435 1.374 3.165 2.527a.352.352 0 00.594-.376C9.491 2.99 8.227 2.03 6.932 2.03c-.957 0-1.908.534-2.827 1.587-.764.877-1.487 2.084-2.148 3.59C.805 9.828 0 13.05 0 15.039a6.94 6.94 0 006.932 6.932c.897 0 1.755-.171 2.543-.483.787.293 1.604.44 2.42.44a6.91 6.91 0 002.832-.61c1.391-.623 3.32-2.02 5.035-3.648a.352.352 0 00.012-.497z"/><path d="M19.321 16.899q-.098.038-.181.116-1.217 1.155-2.524 2.105-1.3.944-2.259 1.374-.583.26-1.193.394-.365.079-.74.112-.44.04-.878.014-.31-.018-.62-.07.228-.154.443-.325.429-.342.805-.75.967-.133 1.936-.533.808-.333 1.583-.837.562-.364 1.056-.783.265-.224.425-.388.08-.081.12-.18.039-.097.038-.211 0-.115-.043-.212-.041-.097-.122-.177-.082-.08-.18-.12-.097-.039-.212-.038-.114.001-.211.043-.097.041-.177.122-.091.093-.279.255-.359.31-.771.596-1.075.745-2.177 1.105.152-.27.277-.551.185-.41.318-.843.127-.416.201-.841.107-.61.107-1.237 0-.389-.042-.856-.01-.114-.06-.207-.048-.094-.136-.167-.087-.073-.187-.104-.1-.032-.215-.022-.115.01-.21.06-.092.05-.164.136-.073.088-.105.189-.032.1-.021.214.038.418.038.757 0 .665-.14 1.3-.118.533-.335 1.044-.212.5-.504.947-.34.521-.79.97-.449.45-.97.79-.447.292-.946.504-.511.216-1.046.334-.633.14-1.298.14t-1.3-.14q-.533-.118-1.044-.334-.5-.212-.947-.505-.52-.34-.97-.789-.45-.449-.79-.97-.292-.447-.503-.947-.217-.51-.335-1.044-.14-.634-.14-1.3 0-.677.14-1.587.137-.891.39-1.903.255-1.013.597-2.024.35-1.039.754-1.956.983-2.237 2.094-3.458.536-.588 1.061-.887.514-.292.993-.292.798 0 1.659.78.677.613 1.336 1.654.061.097.147.158.086.06.199.085.11.025.214.007.105-.018.2-.079.097-.06.158-.147.061-.086.086-.198.025-.111.008-.215-.02-.104-.08-.2Q9.08 1.965 7.123 1.834q-.096-.006-.191-.006-.077 0-.153.004-1.452.078-2.824 1.652-1.172 1.344-2.182 3.64-.87 1.983-1.42 4.186-.265 1.06-.407 2.004-.146.973-.146 1.724 0 .783.164 1.53.14.635.397 1.244.252.594.6 1.125.401.613.93 1.142.529.529 1.142.93.531.348 1.125.6.609.258 1.243.397.747.164 1.53.164.745 0 1.458-.149.553-.115 1.088-.32.71.256 1.443.358.483.068.976.068.642 0 1.264-.113.843-.154 1.649-.515 1.061-.475 2.431-1.467 1.364-.988 2.66-2.218.082-.078.125-.175.043-.096.046-.21.003-.114-.035-.213-.038-.098-.116-.181-.08-.083-.176-.126-.096-.043-.21-.046-.114-.003-.213.035zm-9.846 4.589c.787.293 1.604.44 2.42.44a6.91 6.91 0 002.832-.61c1.391-.623 3.32-2.02 5.035-3.648a.352.352 0 00-.485-.51c-1.635 1.552-3.534 2.933-4.838 3.516a6.183 6.183 0 01-4.04.364 7.002 7.002 0 001.677-1.359c2.834-.361 4.87-2.406 4.955-2.493a.352.352 0 00-.502-.492c-.016.016-1.456 1.463-3.52 2.07-.094.029-.19.055-.286.079a6.887 6.887 0 001.14-3.805 9.49 9.49 0 00-.04-.84.352.352 0 00-.7.064c.025.283.037.544.037.775a6.236 6.236 0 01-6.228 6.229 6.236 6.236 0 01-6.229-6.229c0-1.872.798-5.048 1.898-7.55 1.328-3.023 2.907-4.757 4.33-4.757 1.294 0 2.435 1.374 3.165 2.527a.352.352 0 00.594-.376C9.491 2.99 8.227 2.03 6.932 2.03c-.957 0-1.908.534-2.827 1.587-.764.877-1.487 2.084-2.148 3.59C.805 9.828 0 13.05 0 15.039a6.94 6.94 0 006.932 6.932c.897 0 1.755-.171 2.543-.483z" fill-rule="evenodd"/><path d="M23.766 9.672c-.585-1.306-2.29-2.12-4.932-2.354-1.973-.175-4.453-.01-6.694.44a21.223 21.223 0 00-.687-1.519.352.352 0 00-.629.316c.92 1.826 1.701 4.173 2.094 6.277a.352.352 0 00.691-.129 24.33 24.33 0 00-.46-1.977c3.806-1.355 6.66-.718 6.688-.711a.352.352 0 10.161-.685c-.125-.03-3.055-.691-7.045.72a27.498 27.498 0 00-.553-1.628c2.146-.419 4.498-.57 6.373-.404 1.654.147 3.751.603 4.351 1.941.608 1.358-.422 3.61-2.827 6.178a.352.352 0 10.513.48c1.533-1.636 3.956-4.715 2.956-6.945z"/><path d="M22.157 7.913q-1.288-.615-3.305-.794-1.493-.132-3.278-.015-1.693.111-3.312.425-.305-.731-.63-1.38-.052-.102-.132-.17-.08-.07-.188-.105-.108-.036-.213-.029-.106.008-.208.06-.102.05-.171.13-.069.08-.105.19-.036.108-.028.213.008.105.059.207.682 1.357 1.233 3.008.55 1.651.843 3.216.018.099.066.18.048.081.125.145.078.063.167.095.086.03.184.03.03 0 .061-.003l.04-.006q.112-.021.2-.079.09-.057.154-.152.064-.094.086-.197.022-.103 0-.216-.163-.88-.414-1.813 1.207-.413 2.437-.613 1.057-.172 2.083-.18.734-.006 1.381.071.332.04.5.079.108.025.21.01.107-.017.206-.078.097-.06.16-.146.06-.086.086-.197.026-.111.01-.215-.017-.104-.077-.202-.06-.097-.146-.158-.086-.062-.197-.088-.232-.055-.613-.103-.708-.088-1.507-.083-1.1.006-2.236.19-1.311.213-2.605.653-.193-.617-.413-1.219 1.488-.275 3.031-.373 1.666-.106 3.054.017 1.5.133 2.52.512 1.294.481 1.666 1.311.206.457.137 1.074-.07.63-.419 1.396-.726 1.587-2.509 3.489-.078.083-.115.182-.037.099-.033.213.004.114.047.21.044.096.127.175.08.074.175.111.093.038.202.038.12 0 .22-.044.101-.044.183-.13 1.618-1.729 2.458-3.293 1.178-2.195.597-3.72-.03-.077-.063-.152-.017-.04-.037-.079-.482-.991-1.754-1.598zm-9.686.7l-.07-.19c.066-.014.132-.026.199-.039 2.09-.39 4.356-.526 6.173-.366 1.654.147 3.751.603 4.351 1.941.608 1.358-.422 3.61-2.827 6.178a.352.352 0 10.513.48c1.533-1.636 3.956-4.715 2.956-6.945-.585-1.306-2.29-2.12-4.932-2.354-1.973-.175-4.453-.01-6.694.44a21.223 21.223 0 00-.687-1.519.352.352 0 00-.629.316c.92 1.826 1.701 4.173 2.094 6.277a.352.352 0 00.691-.129 24.33 24.33 0 00-.46-1.977c3.806-1.355 6.66-.718 6.688-.711a.352.352 0 10.161-.685c-.123-.029-2.963-.67-6.856.654a12.44 12.44 0 00-.189.065c-.02-.063-.039-.127-.06-.19-.13-.42-.272-.838-.422-1.247z" fill-rule="evenodd"/><path d="M19.003 13.13a.351.351 0 00-.47-.161l-4.092 2.01a.352.352 0 00.311.632l4.09-2.01a.352.352 0 00.16-.472z"/><path d="M18.652 12.732q-.105.007-.208.058l-4.09 2.01q-.103.05-.172.13-.07.079-.107.187-.037.108-.03.214.007.105.057.207.036.074.088.131.052.056.12.097.066.04.138.06.072.02.149.02.06 0 .119-.012.063-.014.124-.044l4.09-2.01q.103-.05.174-.13.069-.08.106-.188.037-.108.03-.213-.007-.105-.057-.208-.051-.102-.13-.172-.08-.07-.188-.107-.107-.036-.213-.03zm.35.398a.351.351 0 00-.47-.161l-4.09 2.01a.352.352 0 00.31.632l4.09-2.01a.352.352 0 00.16-.472z" fill-rule="evenodd"/><path d="M5.571 5.261a.35.35 0 00-.492.066c-.035.046-.863 1.143-1.516 3.146-.597 1.836-1.15 4.819-.397 8.6a.35.35 0 10.69-.138c-.721-3.615-.199-6.461.366-8.212.613-1.9 1.408-2.959 1.416-2.97a.352.352 0 00-.067-.492z"/><path d="M5.08 5.062q-.09.053-.16.144-.067.088-.168.24-.187.282-.375.624-.589 1.066-1.004 2.341-.559 1.717-.714 3.616-.206 2.496.31 5.085.02.098.07.178.047.08.124.142.077.063.166.094.085.03.182.03.025 0 .05-.003.029-.003.057-.009.112-.022.2-.08.087-.059.152-.154.063-.095.084-.199.02-.103-.002-.215-.484-2.422-.296-4.75.141-1.768.656-3.362.378-1.17.92-2.158.169-.309.335-.562.085-.13.13-.19.068-.09.096-.19.027-.103.011-.217-.014-.113-.067-.204-.053-.091-.144-.16-.09-.07-.193-.097-.102-.027-.215-.012t-.205.068zm.491.2a.35.35 0 00-.492.065c-.035.046-.863 1.143-1.516 3.146-.597 1.836-1.15 4.819-.397 8.6a.35.35 0 10.69-.138c-.721-3.615-.199-6.461.366-8.212.613-1.9 1.408-2.959 1.416-2.97a.352.352 0 00-.067-.492z" fill-rule="evenodd"/><path d="M11.597 14.139a9.814 9.814 0 00-.56-2.891.352.352 0 00-.655.256 9.24 9.24 0 01.513 2.686c.08 1.989-.512 3.615-1.76 4.833a.35.35 0 10.49.503c1.383-1.349 2.065-3.212 1.972-5.387z"/><path d="M11.224 11.175q-.042-.107-.116-.183-.073-.076-.177-.121-.105-.046-.21-.048-.106-.002-.212.04-.107.04-.183.114-.076.073-.12.178-.047.104-.05.21-.002.105.04.211.108.279.227.757.234.94.272 1.865.082 2.04-.787 3.52-.37.632-.913 1.162-.082.08-.124.177-.04.097-.043.21 0 .115.038.213.04.098.12.18.08.083.179.125.099.041.215.041.112 0 .208-.039.097-.04.178-.118.489-.477.863-1.033.442-.658.723-1.425.515-1.41.444-3.08-.044-1.04-.304-2.076-.135-.54-.268-.88zm.373 2.964a9.814 9.814 0 00-.56-2.891.352.352 0 00-.655.256 9.24 9.24 0 01.513 2.686c.08 1.989-.512 3.615-1.76 4.833a.35.35 0 10.49.503c1.383-1.349 2.065-3.212 1.972-5.387z" fill-rule="evenodd"/><path d="M8.504 8.127a.352.352 0 00-.703.025l.162 4.556c.007.19.163.339.351.339h.013a.352.352 0 00.339-.364l-.162-4.556z"/><path d="M8.35 7.623q-.1-.038-.216-.035h-.001q-.114.005-.21.048-.097.044-.174.128-.078.083-.115.182-.037.1-.032.213l.16 4.556q.005.111.048.206.042.094.122.171.08.078.176.117.095.038.206.038h.019q.115-.005.212-.05.096-.043.173-.126.078-.083.115-.182.036-.1.032-.213L8.703 8.12q-.004-.114-.048-.21-.044-.096-.127-.174-.082-.075-.178-.113zm.154.504a.352.352 0 00-.703.025l.162 4.556c.007.19.163.339.351.339h.013a.352.352 0 00.339-.364l-.162-4.556z" fill-rule="evenodd"/><path d="M5.957 19.51c-.794-.288-1.47-1.025-1.481-1.038a.351.351 0 10-.522.472c.032.036.8.877 1.763 1.227a.35.35 0 00.45-.21.351.351 0 00-.21-.45z"/><path d="M5.05 18.733q-.269-.22-.426-.395-.077-.084-.172-.13-.096-.045-.21-.05-.113-.006-.213.03-.1.035-.184.111-.084.077-.13.172-.045.095-.05.21-.007.114.028.213.036.1.113.184.217.242.553.517.653.533 1.29.764.045.017.093.025.047.008.095.008.084 0 .161-.023.08-.024.152-.074.072-.05.122-.115.053-.067.083-.15.04-.108.035-.213-.005-.106-.053-.21-.049-.103-.126-.174-.078-.071-.186-.11-.464-.17-.975-.59zm.907.777c-.794-.288-1.47-1.025-1.481-1.038a.351.351 0 10-.522.472c.032.036.8.877 1.763 1.227a.35.35 0 00.45-.21.351.351 0 00-.21-.45z" fill-rule="evenodd"/><path d="M8.513 13.746a.351.351 0 00-.352.352v.032a.351.351 0 10.703 0v-.032a.351.351 0 00-.351-.352z"/><path d="M8.002 13.886q-.041.097-.041.212v.032q0 .114.041.211.04.098.121.179.08.08.178.12.097.041.212.041.114 0 .212-.04.097-.04.177-.121.081-.081.121-.179.041-.097.041-.211v-.032q0-.115-.04-.212-.04-.098-.122-.178-.08-.081-.177-.122-.098-.04-.212-.04-.115 0-.212.04-.098.04-.178.122-.081.08-.121.178zm.16.212a.351.351 0 11.702 0v.032a.351.351 0 11-.703 0v-.032z" fill-rule="evenodd"/><path d="M7.646 14.672a.351.351 0 00-.351.352v.032a.351.351 0 10.703 0v-.032a.351.351 0 00-.352-.352z"/><path d="M7.136 14.812q-.041.098-.041.212v.032q0 .114.04.212.04.097.122.178.08.08.178.121.097.04.211.04.115 0 .212-.04.098-.04.178-.121.081-.08.121-.178.041-.098.041-.212v-.032q0-.114-.04-.212-.04-.097-.122-.178-.08-.08-.178-.121-.097-.04-.212-.04-.114 0-.211.04-.098.04-.178.12-.081.082-.121.18zm.159.212a.351.351 0 11.703 0v.032a.351.351 0 11-.703 0v-.032z" fill-rule="evenodd"/><path d="M8.765 16.247a.351.351 0 00-.352.352v.032a.352.352 0 10.703 0v-.032a.351.351 0 00-.351-.352z"/><path d="M8.254 16.387q-.041.097-.041.212v.032q0 .114.04.211.041.098.122.178.08.081.178.122.097.04.212.04.114 0 .212-.04.097-.04.177-.122.081-.08.121-.178.041-.097.041-.211v-.032q0-.115-.04-.212-.04-.098-.122-.178-.08-.081-.177-.122-.098-.04-.212-.04-.115 0-.212.04-.098.04-.178.122-.081.08-.121.178zm.16.212a.351.351 0 11.702 0v.032a.351.351 0 11-.703 0v-.032z" fill-rule="evenodd"/></g></svg>