<svg width="50" height="50" fill="none" xmlns="http://www.w3.org/2000/svg"><defs><clipPath id="a"><path fill="#fff" fill-opacity="0" d="M0 0h50v50H0z"/></clipPath></defs><path d="M0 0h50v50H0z"/><g clip-path="url(#a)"><path d="M35.938 18.75h-18.75v-5.14c0-1.952.773-3.824 2.156-5.204a7.353 7.353 0 015.203-2.156h.906a7.35 7.35 0 015.203 2.156 7.348 7.348 0 012.157 5.203 1.562 1.562 0 103.124 0A10.5 10.5 0 0025.453 3.125h-.906a10.499 10.499 0 00-10.485 10.484v5.141a4.686 4.686 0 00-4.688 4.688l.001 14.53a8.922 8.922 0 008.906 8.906l13.438.001a8.922 8.922 0 008.906-8.906V23.437a4.686 4.686 0 00-4.688-4.687zM37.5 37.969c0 1.533-.61 3.003-1.691 4.088a5.785 5.785 0 01-4.09 1.693H18.28a5.785 5.785 0 01-4.09-1.693 5.788 5.788 0 01-1.691-4.088V23.437a1.562 1.562 0 011.563-1.562h21.874a1.564 1.564 0 011.563 1.563v14.53zm-10.938-5.594V37.5a1.562 1.562 0 11-3.125 0v-5.125a3.107 3.107 0 01-1.324-1.51 3.15 3.15 0 01-.133-2.005A3.129 3.129 0 0125 26.544a3.128 3.128 0 013.02 2.316 3.15 3.15 0 01-.133 2.005 3.107 3.107 0 01-1.325 1.51z" fill="#84C551"/></g></svg>