<svg width="20.000000" height="20.000000" viewBox="0 0 20 20" fill="none" xmlns="http://www.w3.org/2000/svg" xmlns:xlink="http://www.w3.org/1999/xlink">
	<desc>
			Created with Pixso.
	</desc>
	<defs>
		<clipPath id="clip25_400">
			<rect id="arrow 1" width="20.000000" height="20.000000" fill="white" fill-opacity="0"/>
		</clipPath>
	</defs>
	<rect id="arrow 1" width="20.000000" height="20.000000" fill="#FFFFFF" fill-opacity="0"/>
	<g clip-path="url(#clip25_400)">
		<path id="Vector" d="M18.7979 8.59619C18.7158 8.58276 18.6333 8.57666 18.5503 8.57788L4.44092 8.57788L4.74854 8.43457C5.04932 8.29224 5.32275 8.09863 5.55713 7.8623L9.51367 3.90552C10.0347 3.4082 10.1221 2.60791 9.72119 2.00952C9.25439 1.37183 8.35889 1.2334 7.72119 1.70044C7.66943 1.73804 7.62061 1.7793 7.57471 1.82349L0.419922 8.97852C-0.139648 9.53687 -0.140137 10.4431 0.418457 11.0022C0.418945 11.0024 0.419434 11.0029 0.419922 11.0032L7.57471 18.1582C8.13428 18.7163 9.04004 18.7151 9.59814 18.1555C9.64209 18.1113 9.68311 18.0645 9.72119 18.0151C10.1221 17.4167 10.0347 16.6165 9.51367 16.1191L5.56396 12.1553C5.354 11.9451 5.11279 11.7688 4.84863 11.6328L4.41943 11.4397L18.4717 11.4397C19.2026 11.4668 19.8438 10.9563 19.9814 10.2378C20.1079 9.45752 19.5781 8.72266 18.7979 8.59619Z" fill="#FFFFFF" fill-opacity="1.000000" fill-rule="nonzero"/>
	</g>
</svg>
