<svg width="20.000000" height="20.000000" viewBox="0 0 20 20" fill="none" xmlns="http://www.w3.org/2000/svg" xmlns:xlink="http://www.w3.org/1999/xlink">
	<desc>
			Created with Pixso.
	</desc>
	<defs>
		<clipPath id="clip114_6281">
			<rect id="back-in-time (2) 1" width="20.000000" height="20.000000" fill="white" fill-opacity="0"/>
		</clipPath>
	</defs>
	<rect id="back-in-time (2) 1" width="20.000000" height="20.000000" fill="#FFFFFF" fill-opacity="0"/>
	<g clip-path="url(#clip114_6281)">
		<path id="XMLID_1030_" d="M17.8672 3.82568L18.4844 3.82568C18.6992 3.82568 18.875 3.65082 18.875 3.4353C18.875 3.21973 18.6992 3.04492 18.4844 3.04492L17 3.04492C16.7852 3.04492 16.6094 3.21973 16.6094 3.4353L16.6094 4.9187C16.6094 5.13428 16.7852 5.30908 17 5.30908C17.2148 5.30908 17.3906 5.13428 17.3906 4.9187L17.3906 4.48914C18.5742 6.07489 19.2188 7.9989 19.2188 10C19.2188 15.0836 15.082 19.2192 10 19.2192C4.91797 19.2192 0.78125 15.0836 0.78125 10C0.78125 4.91644 4.91797 0.780762 10 0.780762C10.375 0.780762 10.7539 0.803589 11.125 0.848572C11.3398 0.874451 11.5352 0.722229 11.5586 0.508179C11.5859 0.294189 11.4336 0.0995483 11.2188 0.0735474C10.8164 0.0247192 10.4062 0 10 0C7.32812 0 4.81641 1.04016 2.92969 2.92896C1.03906 4.81769 0 7.32892 0 10C0 12.6711 1.03906 15.1823 2.92969 17.071C4.81641 18.9598 7.32812 20 10 20C12.6719 20 15.1836 18.9598 17.0703 17.071C18.9609 15.1823 20 12.6711 20 10C20 7.74597 19.2461 5.58209 17.8672 3.82568Z" fill="#8C3213" fill-opacity="1.000000" fill-rule="nonzero"/>
		<path id="XMLID_1029_" d="M4.23438 5.89508C4.05078 5.77979 3.80859 5.83405 3.69531 6.01611C2.80469 7.42365 2.41016 9.11633 2.58203 10.7825C2.76172 12.4733 3.52344 14.0678 4.72656 15.2723C6.17969 16.7258 8.08984 17.4526 10 17.4526C11.9062 17.4526 13.8164 16.7259 15.2695 15.2723C18.1797 12.3652 18.1797 7.63495 15.2695 4.72784C14.0664 3.52527 12.4766 2.76453 10.7891 2.58575C9.125 2.40948 7.43359 2.8009 6.02734 3.68774C5.84375 3.80267 5.78906 4.04376 5.90625 4.22614C6.01953 4.40851 6.26172 4.46313 6.44531 4.34821C9.09766 2.6767 12.5 3.05975 14.7188 5.27991C17.3203 7.88263 17.3203 12.1175 14.7188 14.7202C12.1172 17.3229 7.88281 17.3229 5.27734 14.7202C3.08984 12.5307 2.69922 9.04578 4.35547 6.43384C4.46875 6.25165 4.41406 6.01044 4.23438 5.89508Z" fill="#8C3213" fill-opacity="1.000000" fill-rule="nonzero"/>
		<path id="XMLID_1028_" d="M15.0742 10.3967L15.5547 10.3967C15.7695 10.3967 15.9453 10.2219 15.9453 10.0063C15.9453 9.79077 15.7695 9.61597 15.5547 9.61597L15.0742 9.61597C14.8594 9.61597 14.6836 9.79077 14.6836 10.0063C14.6836 10.2219 14.8594 10.3967 15.0742 10.3967Z" fill="#8C3213" fill-opacity="1.000000" fill-rule="nonzero"/>
		<path id="XMLID_1004_" d="M4.05469 9.99371C4.05469 10.2092 4.23047 10.3841 4.44531 10.3841L4.92578 10.3841C5.14062 10.3841 5.31641 10.2092 5.31641 9.99371C5.31641 9.77814 5.14062 9.60333 4.92578 9.60333L4.44531 9.60333C4.23047 9.60333 4.05469 9.77808 4.05469 9.99371Z" fill="#8C3213" fill-opacity="1.000000" fill-rule="nonzero"/>
		<path id="XMLID_1001_" d="M10.3984 4.92517L10.3984 4.44379C10.3984 4.22821 10.2227 4.05341 10.0078 4.05341C9.79297 4.05341 9.61719 4.22821 9.61719 4.44379L9.61719 4.92517C9.61719 5.14075 9.79297 5.31555 10.0078 5.31555C10.2227 5.31555 10.3984 5.14075 10.3984 4.92517Z" fill="#8C3213" fill-opacity="1.000000" fill-rule="nonzero"/>
		<path id="XMLID_1415_" d="M9.60156 15.0748L9.60156 15.5562C9.60156 15.7718 9.77734 15.9466 9.99219 15.9466C10.207 15.9466 10.3828 15.7718 10.3828 15.5562L10.3828 15.0748C10.3828 14.8593 10.207 14.6844 9.99219 14.6844C9.77734 14.6844 9.60156 14.8592 9.60156 15.0748Z" fill="#8C3213" fill-opacity="1.000000" fill-rule="nonzero"/>
		<path id="XMLID_996_" d="M8.04297 7.49121C7.89062 7.33881 7.64062 7.33881 7.48828 7.49121C7.33594 7.64368 7.33594 7.89081 7.48828 8.04333L8.8125 9.36633C8.71094 9.55524 8.65234 9.771 8.65234 10C8.65234 10.7415 9.25781 11.3448 10 11.3448C10.7383 11.3448 11.3438 10.7415 11.3438 10C11.3438 9.771 11.2852 9.55524 11.1836 9.36633L13.8516 6.69684C14.0039 6.54443 14.0039 6.29724 13.8516 6.14478C13.6992 5.99237 13.4531 5.99237 13.3008 6.14478L10.6328 8.81421C10.4414 8.71283 10.2266 8.65515 10 8.65515C9.76953 8.65515 9.55469 8.71289 9.36328 8.81421L8.04297 7.49121ZM10.5625 10C10.5625 10.311 10.3086 10.5641 10 10.5641C9.6875 10.5641 9.43359 10.311 9.43359 10C9.43359 9.68896 9.6875 9.43591 10 9.43591C10.3086 9.43591 10.5625 9.68896 10.5625 10Z" fill="#8C3213" fill-opacity="1.000000" fill-rule="nonzero"/>
		<path id="XMLID_980_" d="M5.28125 5.27966C5.35156 5.20703 5.39453 5.10632 5.39453 5.00366C5.39453 4.901 5.35156 4.80066 5.28125 4.72766C5.20703 4.65509 5.10547 4.61328 5.00391 4.61328C4.90234 4.61328 4.80078 4.65503 4.72656 4.72766C4.65625 4.80029 4.61328 4.901 4.61328 5.00366C4.61328 5.10669 4.65625 5.20703 4.72656 5.27966C4.80078 5.35223 4.90234 5.39404 5.00391 5.39404C5.10547 5.39404 5.20703 5.35223 5.28125 5.27966Z" fill="#8C3213" fill-opacity="1.000000" fill-rule="nonzero"/>
		<path id="XMLID_979_" d="M12.7031 1.16638C12.8047 1.16638 12.9062 1.12494 12.9805 1.052C13.0508 0.97937 13.0938 0.879028 13.0938 0.776001C13.0938 0.67334 13.0508 0.572632 12.9805 0.5C12.9062 0.427429 12.8047 0.38562 12.7031 0.38562C12.6016 0.38562 12.5 0.427368 12.4258 0.5C12.3555 0.572632 12.3125 0.67334 12.3125 0.776001C12.3125 0.879028 12.3555 0.97937 12.4258 1.052C12.5 1.12494 12.6016 1.16638 12.7031 1.16638Z" fill="#8C3213" fill-opacity="1.000000" fill-rule="nonzero"/>
	</g>
</svg>
