<svg width="20.000000" height="20.000000" viewBox="0 0 20 20" fill="none" xmlns="http://www.w3.org/2000/svg" xmlns:xlink="http://www.w3.org/1999/xlink">
	<desc>
			Created with Pixso.
	</desc>
	<defs>
		<clipPath id="clip111_6474">
			<rect id="back-in-time 1" width="20.000000" height="20.000000" fill="white" fill-opacity="0"/>
		</clipPath>
	</defs>
	<rect id="back-in-time 1" width="20.000000" height="20.000000" fill="#FFFFFF" fill-opacity="0"/>
	<g clip-path="url(#clip111_6474)">
		<path id="Vector" d="M17.2695 3.1311L18.4844 3.02905L18.3867 1.8606L15.0645 2.1394L15.3438 5.46094L16.5117 5.36279L16.3887 3.90796C17.9512 5.53955 18.8281 7.70312 18.8281 10C18.8281 12.3579 17.9102 14.5747 16.2422 16.2419C14.5742 17.9092 12.3574 18.8274 10 18.8274C7.64258 18.8274 5.42578 17.9092 3.75781 16.2419C2.08984 14.5747 1.17188 12.3579 1.17188 10C1.17188 7.64209 2.08984 5.42529 3.75781 3.75806C5.42578 2.09082 7.64258 1.17261 10 1.17261L10 0C7.32812 0 4.81836 1.04028 2.92969 2.92896C1.04102 4.81763 0 7.32886 0 10C0 12.6711 1.04102 15.1824 2.92969 17.071C4.81836 18.9597 7.32812 20 10 20C12.6719 20 15.1816 18.96 17.0703 17.071C18.959 15.1824 20 12.6711 20 10C20 7.41357 19.0176 4.97559 17.2695 3.1311Z" fill="#8C3213" fill-opacity="1.000000" fill-rule="nonzero"/>
		<path id="Vector" d="M9.41406 5.19751L9.41406 3.82349C6.46094 4.10181 4.10156 6.45947 3.82422 9.41382L5.19727 9.41382L5.19727 10.5862L3.82422 10.5862C4.10156 13.5403 6.46094 15.8982 9.41406 16.1765L9.41406 14.8025L10.5879 14.8025L10.5879 16.1765C13.541 15.8982 15.8984 13.5405 16.1777 10.5862L14.8027 10.5862L14.8027 9.41382L16.1777 9.41382C15.8984 6.45972 13.541 4.10181 10.5879 3.82349L10.5879 5.19751L9.41406 5.19751ZM10.5879 10.2729L8.38086 12.1292L7.625 11.2319L9.41406 9.72705L9.41406 6.43042L10.5879 6.43042L10.5879 10.2729Z" fill="#8C3213" fill-opacity="1.000000" fill-rule="nonzero"/>
	</g>
</svg>
