<svg width="50.000000" height="50.000000" viewBox="0 0 50 50" fill="none" xmlns="http://www.w3.org/2000/svg" xmlns:xlink="http://www.w3.org/1999/xlink">
	<desc>
			Created with Pixso.
	</desc>
	<defs>
		<clipPath id="clip118_6602">
			<rect id="clipboard (1) 2" width="50.000000" height="50.000000" fill="white" fill-opacity="0"/>
		</clipPath>
	</defs>
	<rect id="clipboard (1) 2" width="50.000000" height="50.000000" fill="#FFFFFF" fill-opacity="0"/>
	<g clip-path="url(#clip118_6602)">
		<path id="Vector" d="M39.6406 6.55103L35.1172 6.55103L35.1172 4.52734C35.1172 3.87256 34.4062 3.57495 33.75 3.57495L30.2383 3.57495C29.4062 1.19434 27.3203 0.00390625 24.9414 0.00390625C22.5859 -0.0847168 20.4453 1.35913 19.6445 3.57495L16.1914 3.57495C15.5391 3.57495 14.8828 3.87256 14.8828 4.52734L14.8828 6.55103L10.3594 6.55103C7.67969 6.57959 5.48438 8.69409 5.35938 11.3721L5.35938 45.4766C5.35938 48.0955 7.73828 50 10.3594 50L39.6406 50C42.2617 50 44.6406 48.0955 44.6406 45.4766L44.6406 11.3721C44.5156 8.69409 42.3242 6.57959 39.6406 6.55103ZM17.2617 5.95581L20.5352 5.95581C21.1094 5.88599 21.5664 5.45142 21.668 4.88452C22.0195 3.34937 23.3672 2.24756 24.9414 2.20605C26.5 2.25342 27.8281 3.35864 28.1562 4.88452C28.2617 5.47095 28.75 5.91113 29.3477 5.95581L32.7383 5.95581L32.7383 10.7173L17.2617 10.7173L17.2617 5.95581ZM42.2617 45.4766C42.2617 46.7861 40.9531 47.6191 39.6406 47.6191L10.3594 47.6191C9.05078 47.6191 7.73828 46.7861 7.73828 45.4766L7.73828 11.3721C7.86328 10.009 8.99219 8.95679 10.3594 8.93188L14.8828 8.93188L14.8828 11.9673C14.9453 12.6343 15.5234 13.1331 16.1914 13.0981L33.75 13.0981C34.4297 13.1355 35.0273 12.6436 35.1172 11.9673L35.1172 8.93164L39.6406 8.93164C41.0117 8.95679 42.1406 10.009 42.2617 11.3721L42.2617 45.4766L42.2617 45.4766Z" fill="#84C551" fill-opacity="1.000000" fill-rule="nonzero"/>
		<path id="Vector" d="M20.418 26.6089C19.9727 26.1382 19.2305 26.1118 18.7539 26.5493L14.9453 30.1799L13.3359 28.5134C12.8906 28.043 12.1484 28.0164 11.6719 28.4541C11.207 28.937 11.207 29.697 11.6719 30.1799L14.1094 32.6799C14.3203 32.9163 14.625 33.0471 14.9453 33.0371C15.2578 33.0325 15.5586 32.9043 15.7773 32.6799L20.418 28.2754C20.8789 27.8533 20.9102 27.1379 20.4883 26.6777C20.4648 26.6536 20.4453 26.6309 20.418 26.6089Z" fill="#84C551" fill-opacity="1.000000" fill-rule="nonzero"/>
		<path id="Vector" d="M37.5 29.1682L23.8125 29.1682C23.1523 29.1682 22.6211 29.7012 22.6211 30.3586C22.6211 31.0161 23.1523 31.5491 23.8125 31.5491L37.5 31.5491C38.1602 31.5491 38.6914 31.0161 38.6914 30.3586C38.6914 29.7012 38.1602 29.1682 37.5 29.1682Z" fill="#84C551" fill-opacity="1.000000" fill-rule="nonzero"/>
		<path id="Vector" d="M20.418 17.0859C19.9727 16.6152 19.2305 16.5889 18.7539 17.0266L14.9453 20.6572L13.3359 18.9905C12.8906 18.52 12.1484 18.4934 11.6719 18.9312C11.207 19.4141 11.207 20.1741 11.6719 20.6572L14.1094 23.157C14.3203 23.3936 14.625 23.5242 14.9453 23.5142C15.2578 23.5098 15.5586 23.3813 15.7773 23.157L20.418 18.7524C20.8789 18.3303 20.9102 17.615 20.4883 17.1548C20.4648 17.1306 20.4453 17.1079 20.418 17.0859Z" fill="#84C551" fill-opacity="1.000000" fill-rule="nonzero"/>
		<path id="Vector" d="M37.5 19.6453L23.8125 19.6453C23.1523 19.6453 22.6211 20.1782 22.6211 20.8357C22.6211 21.4932 23.1523 22.0259 23.8125 22.0259L37.5 22.0259C38.1602 22.0259 38.6914 21.4932 38.6914 20.8357C38.6914 20.1782 38.1602 19.6453 37.5 19.6453Z" fill="#84C551" fill-opacity="1.000000" fill-rule="nonzero"/>
		<path id="Vector" d="M20.418 36.1318C19.9727 35.6611 19.2305 35.6348 18.7539 36.0723L14.9453 39.7029L13.3359 38.0364C12.8906 37.5657 12.1484 37.5393 11.6719 37.9768C11.207 38.46 11.207 39.22 11.6719 39.7029L14.1094 42.2029C14.3203 42.4392 14.625 42.5701 14.9453 42.5601C15.2578 42.5554 15.5586 42.4272 15.7773 42.2029L20.418 37.7983C20.8789 37.3762 20.9102 36.6606 20.4883 36.2007C20.4648 36.1768 20.4453 36.1538 20.418 36.1318Z" fill="#84C551" fill-opacity="1.000000" fill-rule="nonzero"/>
		<path id="Vector" d="M37.5 38.6914L23.8125 38.6914C23.1523 38.6914 22.6211 39.2244 22.6211 39.8818C22.6211 40.5393 23.1523 41.0723 23.8125 41.0723L37.5 41.0723C38.1602 41.0723 38.6914 40.5393 38.6914 39.8818C38.6914 39.2244 38.1602 38.6914 37.5 38.6914Z" fill="#84C551" fill-opacity="1.000000" fill-rule="nonzero"/>
	</g>
</svg>
