<svg width="50.000000" height="50.000000" viewBox="0 0 50 50" fill="none" xmlns="http://www.w3.org/2000/svg" xmlns:xlink="http://www.w3.org/1999/xlink">
	<desc>
			Created with Pixso.
	</desc>
	<defs>
		<clipPath id="clip118_6643">
			<rect id="personal-information 2" width="50.000000" height="50.000000" fill="white" fill-opacity="0"/>
		</clipPath>
	</defs>
	<rect id="personal-information 2" width="50.000000" height="50.000000" fill="#FFFFFF" fill-opacity="0"/>
	<g clip-path="url(#clip118_6643)">
		<path id="Vector" d="M30.125 50L5.22656 50C4.01172 50 3.02734 49.0142 3.02734 47.8027L3.02734 11.1523C3.02734 9.94092 4.01172 8.95508 5.22656 8.95508L9.43359 8.95508C9.83984 8.95508 10.168 9.28296 10.168 9.6875C10.168 10.092 9.83984 10.4199 9.43359 10.4199L5.22656 10.4199C4.82031 10.4199 4.49219 10.7485 4.49219 11.1523L4.49219 47.8027C4.49219 48.2065 4.82031 48.5352 5.22656 48.5352L30.125 48.5352C30.5312 48.5352 30.8594 48.2065 30.8594 47.8027L30.8594 30.7617L14.0156 30.7617C12.8008 30.7617 11.8164 29.7759 11.8164 28.5645L11.8164 2.19727C11.8164 0.98584 12.8008 0 14.0156 0L35.9844 0C37.1992 0 38.1836 0.98584 38.1836 2.19727L38.1836 9.52148C38.1836 9.92603 37.8555 10.2539 37.4531 10.2539C37.0469 10.2539 36.7188 9.92603 36.7188 9.52148L36.7188 2.19727C36.7188 1.79346 36.3906 1.46484 35.9844 1.46484L14.0156 1.46484C13.6094 1.46484 13.2812 1.79346 13.2812 2.19727L13.2812 28.5645C13.2812 28.9683 13.6094 29.2969 14.0156 29.2969L35.9844 29.2969C36.3906 29.2969 36.7188 28.9683 36.7188 28.5645L36.7188 12.4512C36.7188 12.0466 37.0469 11.7188 37.4531 11.7188L41.8438 11.7188C42.25 11.7188 42.5781 12.0466 42.5781 12.4512C42.5781 12.8557 42.25 13.1836 41.8438 13.1836L38.1836 13.1836L38.1836 16.1133L41.8438 16.1133C42.25 16.1133 42.5781 16.4412 42.5781 16.8457C42.5781 17.2502 42.25 17.5781 41.8438 17.5781L38.1836 17.5781L38.1836 20.5078L41.8438 20.5078C42.25 20.5078 42.5781 20.8357 42.5781 21.2402C42.5781 21.6448 42.25 21.9727 41.8438 21.9727L38.1836 21.9727L38.1836 24.9023L41.8438 24.9023C42.25 24.9023 42.5781 25.2302 42.5781 25.6348C42.5781 26.0393 42.25 26.3672 41.8438 26.3672L38.1836 26.3672L38.1836 28.5645C38.1836 28.821 38.1406 29.0676 38.0586 29.2969L41.8438 29.2969C42.25 29.2969 42.5781 29.6248 42.5781 30.0293C42.5781 30.4338 42.25 30.7617 41.8438 30.7617L32.3242 30.7617L32.3242 33.6914L41.8438 33.6914C42.25 33.6914 42.5781 34.0193 42.5781 34.4238C42.5781 34.8284 42.25 35.1562 41.8438 35.1562L32.3242 35.1562L32.3242 39.7461L44.7734 39.7461C45.1797 39.7461 45.5078 39.4175 45.5078 39.0137L45.5078 6.75781C45.5078 6.354 45.1797 6.02539 44.7734 6.02539L40.3828 6.02539C39.9766 6.02539 39.6484 5.69751 39.6484 5.29297C39.6484 4.88843 39.9766 4.56055 40.3828 4.56055L44.7734 4.56055C45.9883 4.56055 46.9727 5.54639 46.9727 6.75781L46.9727 39.0137C46.9727 40.2251 45.9883 41.2109 44.7734 41.2109L32.3242 41.2109L32.3242 45.6055L40.3828 45.6055C40.7852 45.6055 41.1133 45.2769 41.1133 44.873L41.1133 43.4082C41.1133 43.0037 41.4414 42.6758 41.8438 42.6758C42.25 42.6758 42.5781 43.0037 42.5781 43.4082L42.5781 44.873C42.5781 46.0845 41.5938 47.0703 40.3828 47.0703L32.3242 47.0703L32.3242 47.8027C32.3242 49.0142 31.3398 50 30.125 50ZM34.5195 27.832L15.4766 27.832C15.0742 27.832 14.7461 27.5042 14.7461 27.0996L14.7461 24.5552C14.7461 20.7917 17.2344 19.9307 19.0508 19.3018C20.5508 18.7827 21.4023 18.4331 21.5508 17.3054C19.9375 16.2012 18.8711 14.3438 18.8711 12.2427L18.8711 9.22266C18.8711 5.84424 21.6211 3.0957 25 3.0957C28.3789 3.0957 31.1289 5.84424 31.1289 9.22266L31.1289 12.2427C31.1289 14.3438 30.0625 16.2012 28.4492 17.3054C28.5977 18.4333 29.4492 18.7827 30.9492 19.3018C32.7656 19.9307 35.2539 20.7917 35.2539 24.5552L35.2539 27.0996C35.2539 27.5042 34.9258 27.832 34.5195 27.832ZM16.2109 26.3672L33.7891 26.3672L33.7891 24.5552C33.7891 21.835 32.25 21.3025 30.4688 20.686C29.1523 20.231 27.5703 19.6819 27.0977 18C26.4414 18.2393 25.7344 18.3696 25 18.3696C24.2656 18.3696 23.5586 18.2393 22.9023 18C22.4297 19.6819 20.8477 20.231 19.5312 20.686C17.75 21.3025 16.2109 21.835 16.2109 24.5552L16.2109 26.3672ZM25 4.56055C22.4297 4.56055 20.3359 6.65186 20.3359 9.22266L20.3359 12.2427C20.3359 14.8135 22.4297 16.9048 25 16.9048C27.5703 16.9048 29.6641 14.8135 29.6641 12.2427L29.6641 9.22266C29.6641 6.65186 27.5703 4.56055 25 4.56055Z" fill="#84C551" fill-opacity="1.000000" fill-rule="nonzero"/>
	</g>
</svg>
