<svg width="24.000000" height="24.000000" viewBox="0 0 24 24" fill="none" xmlns="http://www.w3.org/2000/svg" xmlns:xlink="http://www.w3.org/1999/xlink">
	<desc>
			Created with Pixso.
	</desc>
	<defs>
		<clipPath id="clip118_6280">
			<rect id="farmer 2" width="24.000000" height="24.000000" fill="white" fill-opacity="0"/>
		</clipPath>
	</defs>
	<rect id="farmer 2" width="24.000000" height="24.000000" fill="#FFFFFF" fill-opacity="0"/>
	<g clip-path="url(#clip118_6280)">
		<path id="Vector" d="M11.4023 6C11.0703 6 10.8008 6.26855 10.8008 6.6001C10.8008 6.9314 11.0703 7.19995 11.4023 7.19995C11.7305 7.19995 12 6.9314 12 6.6001C12 6.26855 11.7305 6 11.4023 6Z" fill="#84BE51" fill-opacity="1.000000" fill-rule="nonzero"/>
		<path id="Vector" d="M15 6C14.668 6 14.3984 6.26855 14.3984 6.6001C14.3984 6.9314 14.668 7.19995 15 7.19995C15.3281 7.19995 15.5977 6.9314 15.5977 6.6001C15.5977 6.26855 15.3281 6 15 6Z" fill="#84BE51" fill-opacity="1.000000" fill-rule="nonzero"/>
		<path id="Vector" d="M9.60156 17.6001L10.4023 17.6001L10.4023 18.4001L9.60156 18.4001L9.60156 17.6001Z" fill="#84BE51" fill-opacity="1.000000" fill-rule="nonzero"/>
		<path id="Vector" d="M16 17.6001L16.8008 17.6001L16.8008 18.4001L16 18.4001L16 17.6001Z" fill="#84BE51" fill-opacity="1.000000" fill-rule="nonzero"/>
		<path id="Vector" d="M9.60156 22.8C9.60156 22.906 9.64453 23.0078 9.71875 23.0828L10.5195 23.8828C10.5938 23.9578 10.6953 24 10.8008 24L15.6016 24C15.707 24 15.8086 23.9578 15.8828 23.8828L16.6836 23.0828C16.7578 23.0078 16.8008 22.906 16.8008 22.8L16.8008 19.5999C16.8008 19.3792 16.6211 19.2 16.4023 19.2L10 19.2C9.78125 19.2 9.60156 19.3792 9.60156 19.5999L9.60156 22.8ZM10.4023 20L16 20L16 22.6343L15.4375 23.2L10.9688 23.2L10.4023 22.6343L10.4023 20Z" fill="#84BE51" fill-opacity="1.000000" fill-rule="nonzero"/>
		<path id="Vector" d="M3.60156 18L3.19922 18C2.98047 18 2.80078 18.1792 2.80078 18.3999L2.80078 22.3999C2.80078 22.6208 2.98047 22.8 3.19922 22.8L3.60156 22.8L3.60156 24L4.39844 24L4.39844 22.8L5.19922 22.8L5.19922 24L6 24L6 23.9724C6.77344 23.8743 7.48438 23.4961 8 22.9097L8 24L8.80078 24L8.80078 16.8L17.6016 16.8L17.6016 24L18.3984 24L18.3984 21.2L20.3984 21.2L20.3984 24L21.1992 24L21.1992 21.2L21.6016 21.2C21.8203 21.2 22 21.021 22 20.8L22 19.2C22 18.979 21.8203 18.8 21.6016 18.8L21.1992 18.8L21.1992 15.2C21.1992 13.4336 19.7656 12.002 18 12L16 12L16 11.6489C16.668 10.9949 17.082 10.1287 17.1797 9.19995L17.1992 9.19995C17.9062 9.19751 18.5273 8.72998 18.7266 8.05127C19.4531 7.5564 19.7695 6.64795 19.5117 5.81006C19.25 4.97217 18.4766 4.40063 17.6016 4.3999L17.1992 4.3999L17.1992 2.59155C17.1992 1.51147 16.8711 0.76709 16.1953 0.316895C15.8867 0.109863 15.5234 -0.000488281 15.1484 0L14.8516 0C14.4766 -0.000488281 14.1133 0.109863 13.8047 0.316895C13.4375 0.561035 12.9609 0.561035 12.5977 0.316895C12.2852 0.109863 11.9219 -0.000488281 11.5508 0L11.25 0C10.8789 -0.000488281 10.5117 0.109863 10.2031 0.316895C9.52734 0.76709 9.19922 1.51123 9.19922 2.59155L9.19922 4.3999L8.80078 4.3999C8.36719 4.40161 7.94531 4.54565 7.60156 4.8103L7.60156 2.33057C7.59766 1.71167 7.84375 1.11792 8.28125 0.681641L7.71875 0.117188C7.12891 0.703125 6.79688 1.50049 6.80078 2.33154L6.80078 5.6001C6.79688 6.10669 6.47656 6.55737 6 6.72632L6 2.33154C6 1.71289 6.24609 1.11914 6.68359 0.682861L6.11719 0.117188C5.52734 0.703125 5.19922 1.50049 5.19922 2.33154L5.19922 6.80005L4.39844 6.80005L4.39844 2.33154C4.39844 1.71289 4.64453 1.11914 5.08203 0.682861L4.51562 0.117188C3.92969 0.703125 3.59766 1.50049 3.60156 2.33154L3.60156 6.72632C3.12109 6.55737 2.80078 6.10669 2.80078 5.6001L2.80078 2.33154C2.79688 1.71289 3.04297 1.11914 3.48438 0.682861L2.91797 0.117188C2.32812 0.703125 1.99609 1.50049 2 2.33154L2 5.6001C2 6.55005 2.66797 7.36865 3.60156 7.56006L3.60156 18ZM4.39844 9.19995L5.19922 9.19995L5.19922 18L4.39844 18L4.39844 9.19995ZM6.80078 19.6001L8 19.6001L8 20.3999L6.80078 20.3999L6.80078 19.6001ZM8 16.3999L8 18.8L6.72656 18.8C6.60547 18.4612 6.33984 18.1946 6 18.0737L6 15.2C6.00391 14.03 6.84766 13.032 8 12.8359L8 16.3999ZM4 22L3.60156 22L3.60156 18.8L5.60156 18.8C5.82031 18.8 6 18.979 6 19.2L6 21.6001C6 21.8208 5.82031 22 5.60156 22L4 22ZM6 23.1636L6 22.7263C6.47656 22.5574 6.79688 22.1067 6.80078 21.6001L6.80078 21.2L7.96875 21.2C7.79297 22.2056 7.00781 22.9927 6 23.1636ZM8.80078 16L8.80078 12.8L9.60156 12.8L9.60156 16L8.80078 16ZM10.5195 12.8C10.6719 13.3052 10.9648 13.7571 11.3594 14.104L12.4961 16L10.3984 16L10.3984 12.8L10.5195 12.8ZM13.1992 14C12.0977 13.9985 11.2031 13.104 11.1992 12L11.1992 10.3999C11.1992 9.29541 12.0938 8.3999 13.1992 8.3999C14.3047 8.3999 15.1992 9.29541 15.1992 10.3999L15.1992 12C15.1992 13.104 14.3047 13.9985 13.1992 14ZM13.7148 14.7507L13.1992 15.6187L12.6797 14.7493C12.8516 14.7825 13.0273 14.7993 13.1992 14.8C13.3711 14.7993 13.543 14.7827 13.7148 14.7507ZM21.1992 20.3999L18.3984 20.3999L18.3984 19.6001L21.1992 19.6001L21.1992 20.3999ZM20.3984 15.2L20.3984 18.8L18.3984 18.8L18.3984 12.8359C19.5547 13.032 20.3984 14.03 20.3984 15.2ZM17.6016 12.8L17.6016 16L16.8008 16L16.8008 12.8L17.6016 12.8ZM16 12.8L16 16L13.9023 16L15.0078 14.1333C15.4219 13.7827 15.7266 13.3196 15.8828 12.8L16 12.8ZM15.9961 10.3477C15.9727 8.82104 14.7266 7.59717 13.1992 7.59717C11.6719 7.59717 10.4297 8.82104 10.4023 10.3477C10.1406 9.87427 10 9.34155 10 8.80005L10 5.19995L16.3984 5.19995L16.3984 8.80005C16.3984 9.34155 16.2617 9.87427 15.9961 10.3477ZM17.1992 8.3999L17.1992 6.80005C17.6406 6.80005 18 7.1582 18 7.6001C18 8.04175 17.6406 8.3999 17.1992 8.3999ZM17.6016 5.19995C18.0195 5.2002 18.4102 5.41968 18.625 5.77881C18.8438 6.13818 18.8555 6.58447 18.6641 6.95654C18.4062 6.37598 17.8359 6.00098 17.1992 6L17.1992 5.19995L17.6016 5.19995ZM10.6484 0.98291C10.8242 0.863525 11.0352 0.799805 11.25 0.800049L11.5508 0.800049C11.7656 0.799805 11.9727 0.863525 12.1523 0.98291C12.7852 1.40674 13.6133 1.40674 14.2461 0.98291C14.4258 0.863525 14.6367 0.799805 14.8516 0.800049L15.1484 0.800049C15.3633 0.799805 15.5742 0.863525 15.7539 0.98291C16.0312 1.16748 16.3984 1.53589 16.3984 2.59155L16.3984 2.80005L10 2.80005L10 2.59155C10 1.53589 10.3711 1.16748 10.6484 0.98291ZM10 3.6001L16.3984 3.6001L16.3984 4.3999L10 4.3999L10 3.6001ZM8.80078 5.19995L9.19922 5.19995L9.19922 6C8.57031 6.00122 7.99609 6.37354 7.74219 6.95068C7.54297 6.58057 7.55469 6.1333 7.77344 5.77393C7.98828 5.41455 8.37891 5.19629 8.80078 5.19995ZM8.39844 7.6001C8.39844 7.1582 8.75781 6.80005 9.19922 6.80005L9.19922 8.3999C8.75781 8.3999 8.39844 8.04175 8.39844 7.6001ZM6.92578 7.08545C7.07031 7.4751 7.32812 7.8103 7.67188 8.04541C7.86719 8.72729 8.49219 9.19775 9.19922 9.19995L9.22266 9.19995C9.31641 10.1287 9.73438 10.9949 10.3984 11.6489L10.3984 12L8.39844 12C7.48047 12.0005 6.60547 12.3979 6 13.0903L6 7.56006C6.34375 7.48682 6.66406 7.32324 6.92578 7.08545ZM5.19922 8.3999L4.39844 8.3999L4.39844 7.6001L5.19922 7.6001L5.19922 8.3999Z" fill="#84BE51" fill-opacity="1.000000" fill-rule="nonzero"/>
		<path id="Vector" d="M12.6875 9.31982L12.1172 9.87988C12.3828 10.208 12.7812 10.3987 13.2031 10.3987C13.6211 10.3987 14.0195 10.208 14.2852 9.87988L13.7188 9.31982C13.6055 9.49438 13.4102 9.59985 13.2031 9.59985C12.9922 9.59985 12.8008 9.49438 12.6875 9.31982Z" fill="#84BE51" fill-opacity="1.000000" fill-rule="nonzero"/>
	</g>
</svg>
