<svg width="24.000000" height="24.000000" viewBox="0 0 24 24" fill="none" xmlns="http://www.w3.org/2000/svg" xmlns:xlink="http://www.w3.org/1999/xlink">
	<desc>
			Created with Pixso.
	</desc>
	<defs>
		<clipPath id="clip118_6266">
			<rect id="fertilizer 2" width="24.000000" height="24.000000" fill="white" fill-opacity="0"/>
		</clipPath>
	</defs>
	<rect id="fertilizer 2" width="24.000000" height="24.000000" fill="#FFFFFF" fill-opacity="0"/>
	<g clip-path="url(#clip118_6266)">
		<path id="Vector" d="M17.8672 19.6851C17.7812 19.6851 17.6953 19.7197 17.6367 19.7812C17.5742 19.8428 17.5391 19.9263 17.5391 20.0132C17.5391 20.1001 17.5742 20.1836 17.6367 20.2451C17.6953 20.3066 17.7812 20.3413 17.8672 20.3413C18.0742 20.3416 18.2695 20.4236 18.418 20.5691C18.5625 20.7148 18.6445 20.9124 18.6445 21.1184C18.6445 21.2053 18.6797 21.2888 18.7422 21.3503C18.8008 21.4119 18.8867 21.4465 18.9727 21.4465C19.0586 21.4465 19.1445 21.4119 19.2031 21.3503C19.2656 21.2888 19.3008 21.2053 19.3008 21.1184C19.3008 20.7383 19.1484 20.374 18.8789 20.1052C18.6133 19.8367 18.2461 19.6855 17.8672 19.6851Z" fill="#84BE51" fill-opacity="1.000000" fill-rule="nonzero"/>
		<path id="Vector" d="M17.6641 19.5239Q17.5703 19.5627 17.4922 19.6396Q17.418 19.717 17.3789 19.8105Q17.3398 19.9038 17.3398 20.0132Q17.3398 20.1226 17.3789 20.2158Q17.418 20.3093 17.4922 20.3867Q17.5703 20.4639 17.6641 20.5027Q17.7578 20.5413 17.8672 20.5413Q17.9844 20.5415 18.0859 20.5835Q18.1914 20.6257 18.2734 20.7107Q18.3594 20.7952 18.4023 20.897Q18.4453 20.999 18.4453 21.1187Q18.4453 21.2273 18.4844 21.3203Q18.5195 21.4141 18.5977 21.4917Q18.6758 21.5691 18.7695 21.6077Q18.8633 21.6465 18.9727 21.6465Q19.082 21.6465 19.1758 21.6077Q19.2695 21.5691 19.3477 21.4917Q19.4219 21.4143 19.4609 21.321Q19.5 21.2278 19.5 21.1184Q19.5 20.9543 19.4688 20.7966Q19.4375 20.6421 19.375 20.4934Q19.3125 20.3435 19.2266 20.2112Q19.1367 20.0786 19.0234 19.9639Q18.9062 19.8491 18.7734 19.7605Q18.6406 19.6721 18.4922 19.6099Q18.3438 19.5476 18.1875 19.5164Q18.0312 19.4854 17.8672 19.4851Q17.7578 19.4851 17.6641 19.5239ZM17.8672 19.6851C17.7812 19.6851 17.6953 19.7197 17.6367 19.7812C17.5742 19.8428 17.5391 19.9263 17.5391 20.0132C17.5391 20.1001 17.5742 20.1836 17.6367 20.2451C17.6953 20.3066 17.7812 20.3413 17.8672 20.3413C18.0742 20.3416 18.2695 20.4236 18.418 20.5691C18.5625 20.7148 18.6445 20.9124 18.6445 21.1184C18.6445 21.2053 18.6797 21.2888 18.7422 21.3503C18.8008 21.4119 18.8867 21.4465 18.9727 21.4465C19.0586 21.4465 19.1445 21.4119 19.2031 21.3503C19.2656 21.2888 19.3008 21.2053 19.3008 21.1184C19.3008 20.7383 19.1484 20.374 18.8789 20.1052C18.6133 19.8367 18.2461 19.6855 17.8672 19.6851Z" fill="#84BE51" fill-opacity="1.000000" fill-rule="evenodd"/>
		<path id="Vector" d="M15.957 18.1416C15.5703 18.1421 15.2031 18.2949 14.9336 18.5664C14.6602 18.8376 14.5078 19.2058 14.5078 19.5896C14.5078 19.6768 14.543 19.7603 14.6055 19.8218C14.6641 19.8833 14.75 19.9177 14.8359 19.9177C14.9219 19.9177 15.0078 19.8833 15.0664 19.8218C15.1289 19.7603 15.1641 19.6768 15.1641 19.5896C15.1641 19.3796 15.2461 19.1785 15.3945 19.03C15.543 18.8816 15.7461 18.7981 15.957 18.7979C16.043 18.7979 16.125 18.7632 16.1875 18.7017C16.25 18.6401 16.2852 18.5566 16.2852 18.4697C16.2852 18.3828 16.25 18.2993 16.1875 18.2378C16.125 18.1763 16.043 18.1416 15.957 18.1416Z" fill="#84BE51" fill-opacity="1.000000" fill-rule="nonzero"/>
		<path id="Vector" d="M15.0391 18.2197Q14.9062 18.3091 14.7891 18.4248Q14.6758 18.5408 14.5859 18.6743Q14.4961 18.8079 14.4336 18.9592Q14.3711 19.1106 14.3398 19.2681Q14.3086 19.4255 14.3086 19.5894Q14.3086 19.6992 14.3477 19.793Q14.3867 19.886 14.4609 19.9631Q14.5391 20.0405 14.6328 20.0791Q14.7266 20.1177 14.8359 20.1177Q14.9453 20.1177 15.0391 20.0791Q15.1328 20.0405 15.2109 19.9631Q15.2852 19.8857 15.3242 19.7925Q15.3633 19.699 15.3633 19.5896Q15.3633 19.4675 15.4062 19.3633Q15.4492 19.2583 15.5391 19.1714Q15.625 19.0847 15.7305 19.0415Q15.832 18.998 15.957 18.9978Q16.0664 18.9978 16.1562 18.9595Q16.25 18.9209 16.3281 18.8433Q16.4062 18.7659 16.4453 18.6724Q16.4844 18.5791 16.4844 18.4697Q16.4844 18.3604 16.4453 18.2671Q16.4062 18.1736 16.3281 18.0962Q16.25 18.019 16.1602 17.9802Q16.0664 17.9417 15.957 17.9417Q15.7891 17.9419 15.6289 17.9739Q15.4766 18.0054 15.3242 18.0676Q15.1758 18.1304 15.0391 18.2197ZM15.957 18.1416C15.5703 18.1421 15.2031 18.2949 14.9336 18.5664C14.6602 18.8376 14.5078 19.2058 14.5078 19.5896C14.5078 19.6768 14.543 19.7603 14.6055 19.8218C14.6641 19.8833 14.75 19.9177 14.8359 19.9177C14.9219 19.9177 15.0078 19.8833 15.0664 19.8218C15.1289 19.7603 15.1641 19.6768 15.1641 19.5896C15.1641 19.3796 15.2461 19.1785 15.3945 19.03C15.543 18.8816 15.7461 18.7981 15.957 18.7979C16.043 18.7979 16.125 18.7632 16.1875 18.7017C16.25 18.6401 16.2852 18.5566 16.2852 18.4697C16.2852 18.3828 16.25 18.2993 16.1875 18.2378C16.125 18.1763 16.043 18.1416 15.957 18.1416Z" fill="#84BE51" fill-opacity="1.000000" fill-rule="evenodd"/>
		<path id="Vector" d="M9.10938 14.5974L9.10938 15.3494C9.10938 15.4363 9.14453 15.5198 9.20703 15.5813C9.26562 15.6428 9.35156 15.6775 9.4375 15.6775C9.52344 15.6775 9.60938 15.6428 9.67188 15.5813C9.73047 15.5198 9.76562 15.4363 9.76562 15.3494L9.76562 14.5974C10.3906 14.5173 10.9648 14.2122 11.3828 13.739C11.8008 13.2659 12.0312 12.6572 12.0312 12.0264C12.0312 11.9395 11.9961 11.856 11.9375 11.7944C11.875 11.7329 11.793 11.6982 11.7031 11.6982C11.3359 11.6987 10.9766 11.7769 10.6406 11.9277C10.3086 12.0786 10.0078 12.2988 9.76562 12.5737L9.76562 11.9812C10.2109 11.4883 10.4453 10.8438 10.4297 10.1809C10.4102 9.51807 10.1406 8.88721 9.67188 8.4187C9.60938 8.35718 9.52344 8.32275 9.4375 8.32275C9.35156 8.32275 9.26953 8.35718 9.20703 8.4187C8.73828 8.88818 8.46875 9.51855 8.44922 10.1809C8.43359 10.8433 8.66797 11.4875 9.10938 11.9812L9.10938 12.5737C8.86719 12.2988 8.57031 12.0786 8.23438 11.9275C7.90234 11.7766 7.53906 11.6985 7.17188 11.6982C7.08594 11.6982 7 11.7329 6.94141 11.7944C6.87891 11.856 6.84375 11.9395 6.84375 12.0264C6.84375 12.6572 7.07422 13.2659 7.49219 13.739C7.91016 14.2122 8.48438 14.5173 9.10938 14.5974ZM11.3438 12.3884C11.2695 12.7703 11.082 13.1216 10.8086 13.3967C10.5352 13.6719 10.1836 13.8579 9.80078 13.9314C9.875 13.5493 10.0586 13.198 10.3359 12.9229C10.6094 12.6479 10.9609 12.4617 11.3438 12.3884ZM9.4375 9.16333C9.65625 9.48511 9.77344 9.86499 9.77344 10.2542C9.77344 10.6431 9.65625 11.0229 9.4375 11.3447C9.21875 11.0227 9.10156 10.6426 9.10156 10.2537C9.10156 9.8645 9.21875 9.48438 9.4375 9.16235L9.4375 9.16333ZM9.07422 13.9314C8.69531 13.8579 8.34375 13.6719 8.06641 13.397C7.79297 13.1221 7.60547 12.771 7.53516 12.3892C7.91406 12.4624 8.26562 12.6484 8.54297 12.9233C8.81641 13.1985 9.00391 13.5496 9.07422 13.9314Z" fill="#84BE51" fill-opacity="1.000000" fill-rule="nonzero"/>
		<path id="Vector" d="M8.91016 14.7681L8.91016 15.3494Q8.91016 15.4587 8.94922 15.552Q8.98828 15.6455 9.06641 15.7229Q9.14062 15.8 9.23438 15.8389Q9.32812 15.8774 9.4375 15.8774Q9.54688 15.8774 9.64062 15.8389Q9.73438 15.8 9.8125 15.7229Q9.89062 15.6455 9.92578 15.552Q9.96484 15.4587 9.96484 15.3494L9.96484 14.7681Q10.1289 14.7371 10.2812 14.6877Q10.5234 14.6118 10.7461 14.4922Q10.9727 14.3728 11.168 14.2178Q11.3672 14.0625 11.5352 13.8713Q11.7031 13.6802 11.832 13.4656Q11.9609 13.251 12.0508 13.0127Q12.1406 12.7744 12.1875 12.5278Q12.2305 12.2815 12.2344 12.0269Q12.2344 11.9167 12.1953 11.8228Q12.1562 11.73 12.0781 11.6531Q12 11.5757 11.9062 11.5371Q11.8125 11.4983 11.7031 11.4983Q11.4023 11.4985 11.1172 11.5608Q10.832 11.6226 10.5586 11.7454Q10.2852 11.8689 10.0508 12.0427Q10.0078 12.0742 9.96484 12.1074L9.96484 12.0564Q10.1133 11.8831 10.2305 11.6907Q10.3672 11.4653 10.457 11.2139Q10.5508 10.9624 10.5938 10.7029Q10.6367 10.4434 10.6289 10.1755Q10.6211 9.90771 10.5664 9.65088Q10.5078 9.39404 10.4023 9.14795Q10.2969 8.90186 10.1484 8.68408Q10 8.46655 9.8125 8.27734Q9.73438 8.19995 9.64062 8.16138Q9.54688 8.1228 9.4375 8.1228Q9.32812 8.1228 9.23438 8.16138Q9.14062 8.19995 9.06641 8.27734Q8.875 8.46899 8.72656 8.6897Q8.57812 8.90527 8.47656 9.14868Q8.37109 9.39453 8.3125 9.65112Q8.25781 9.90796 8.25 10.1755Q8.24219 10.4431 8.28516 10.7024Q8.32812 10.9619 8.41797 11.2131Q8.51172 11.4644 8.64844 11.6899Q8.76172 11.8823 8.91016 12.0562L8.91016 12.1072Q8.86719 12.0742 8.82422 12.0427Q8.58984 11.8687 8.31641 11.7454Q8.04297 11.6221 7.75781 11.5603Q7.47266 11.4985 7.17188 11.4983Q7.0625 11.4983 6.96875 11.5371Q6.875 11.5757 6.79688 11.6531Q6.72266 11.7305 6.68359 11.8237Q6.64453 11.917 6.64453 12.0264Q6.64453 12.2839 6.69141 12.5327Q6.73438 12.7769 6.82422 13.0127Q6.91406 13.2507 7.04297 13.4656Q7.17578 13.6802 7.34375 13.8713Q7.51172 14.0623 7.70703 14.2175Q7.90234 14.3728 8.12891 14.4922Q8.35547 14.6116 8.59375 14.6875Q8.75 14.7371 8.91016 14.7681ZM9.10938 14.5974L9.10938 15.3494C9.10938 15.4363 9.14453 15.5198 9.20703 15.5813C9.26562 15.6428 9.35156 15.6775 9.4375 15.6775C9.52344 15.6775 9.60938 15.6428 9.67188 15.5813C9.73047 15.5198 9.76562 15.4363 9.76562 15.3494L9.76562 14.5974C10.3906 14.5173 10.9648 14.2122 11.3828 13.739C11.8008 13.2659 12.0312 12.6572 12.0312 12.0264C12.0312 11.9395 11.9961 11.856 11.9375 11.7944C11.875 11.7329 11.793 11.6982 11.7031 11.6982C11.3359 11.6987 10.9766 11.7769 10.6406 11.9277C10.3945 12.0396 10.168 12.1892 9.96484 12.3708C9.89453 12.4346 9.82812 12.5024 9.76562 12.5737L9.76562 11.9812C10.2109 11.4883 10.4453 10.8438 10.4297 10.1809C10.4102 9.51807 10.1406 8.88721 9.67188 8.4187C9.60938 8.35718 9.52344 8.32275 9.4375 8.32275C9.35156 8.32275 9.26953 8.35718 9.20703 8.4187C8.73828 8.88818 8.46875 9.51855 8.44922 10.1809C8.43359 10.8433 8.66797 11.4875 9.10938 11.9812L9.10938 12.5737C9.04688 12.5024 8.98047 12.4346 8.91016 12.3708C8.71094 12.189 8.48047 12.0393 8.23438 11.9275C7.90234 11.7766 7.53906 11.6985 7.17188 11.6982C7.08594 11.6982 7 11.7329 6.94141 11.7944C6.87891 11.856 6.84375 11.9395 6.84375 12.0264C6.84375 12.6572 7.07422 13.2659 7.49219 13.739C7.91016 14.2122 8.48438 14.5173 9.10938 14.5974ZM9.32422 9.35425C9.17969 9.63086 9.10156 9.93945 9.10156 10.2537C9.10156 10.5679 9.17969 10.8765 9.32422 11.1531C9.35938 11.219 9.39453 11.283 9.4375 11.3447C9.48047 11.283 9.51953 11.219 9.55469 11.1533C9.69922 10.8767 9.77344 10.5684 9.77344 10.2542C9.77344 9.93945 9.69922 9.63086 9.55078 9.35425C9.51953 9.28857 9.48047 9.22485 9.4375 9.16333L9.4375 9.16235C9.39453 9.22437 9.35938 9.28833 9.32422 9.35425ZM9.4375 9.5769Q9.40234 9.65747 9.37891 9.74097Q9.30469 9.98584 9.30469 10.2537Q9.30469 10.5215 9.37891 10.7661Q9.40234 10.8499 9.4375 10.9307Q9.47266 10.8499 9.5 10.7664Q9.57422 10.5217 9.57422 10.2542Q9.57422 9.98633 9.5 9.7417Q9.47266 9.65796 9.4375 9.5769ZM10.9766 12.8398Q10.8555 13.0659 10.668 13.2554Q10.4766 13.4446 10.25 13.5645Q10.1758 13.6055 10.0938 13.6382Q10.125 13.5569 10.168 13.4797Q10.2852 13.2537 10.4766 13.0645Q10.6641 12.875 10.8906 12.7551Q10.9688 12.7144 11.0508 12.6814Q11.0156 12.7627 10.9766 12.8398ZM11.125 12.4429C10.8281 12.5366 10.5547 12.7007 10.3359 12.9229C10.1133 13.1453 9.94922 13.417 9.85547 13.7148C9.83203 13.7856 9.8125 13.8579 9.80078 13.9314C9.875 13.9172 9.94531 13.8989 10.0156 13.8767C10.3125 13.7832 10.5859 13.6189 10.8086 13.3967C11.0312 13.1746 11.1953 12.9026 11.2891 12.605C11.3086 12.5339 11.3281 12.4617 11.3438 12.3884C11.2695 12.4023 11.1953 12.4207 11.125 12.4429ZM8.625 13.5647Q8.39844 13.4448 8.21094 13.2556Q8.01953 13.0664 7.90234 12.8403Q7.85938 12.7634 7.82812 12.6824Q7.91016 12.7151 7.98438 12.7559Q8.21094 12.8757 8.39844 13.0649Q8.58984 13.2542 8.71094 13.4802Q8.75 13.5569 8.78125 13.6379Q8.70312 13.6055 8.625 13.5647ZM9.02344 13.7148C8.92969 13.4172 8.76562 13.1455 8.54297 12.9233C8.32031 12.7014 8.04688 12.5374 7.75 12.4438C7.67969 12.4214 7.60547 12.4031 7.53516 12.3892C7.54688 12.4626 7.56641 12.5349 7.58984 12.6057C7.68359 12.9031 7.84766 13.1748 8.06641 13.397C8.28906 13.6189 8.5625 13.7832 8.85938 13.8767C8.92969 13.8989 9.00391 13.9172 9.07422 13.9314C9.0625 13.8579 9.04297 13.7856 9.02344 13.7148Z" fill="#84BE51" fill-opacity="1.000000" fill-rule="evenodd"/>
		<path id="Vector" d="M4.39062 12.0002C4.39062 12.9985 4.6875 13.9744 5.24219 14.8044C5.79688 15.6348 6.58594 16.2817 7.50781 16.6638C8.42969 17.0459 9.44531 17.1458 10.4219 16.9509C11.4023 16.7563 12.3008 16.2756 13.0078 15.5696C13.7148 14.8635 14.1953 13.9641 14.3906 12.9851C14.582 12.0059 14.4844 10.991 14.1016 10.0686C13.7188 9.14624 13.0742 8.35791 12.2422 7.80322C11.4141 7.24854 10.4375 6.95264 9.4375 6.95264C8.10156 6.9541 6.81641 7.48657 5.87109 8.43262C4.92578 9.37891 4.39062 10.6619 4.39062 12.0002ZM9.4375 7.60889C10.3047 7.60889 11.1562 7.86646 11.8789 8.34888C12.6016 8.83154 13.1641 9.51733 13.4961 10.3196C13.8281 11.1221 13.9141 12.0051 13.7461 12.8569C13.5742 13.7087 13.1562 14.4912 12.543 15.1052C11.9297 15.7192 11.1484 16.1375 10.293 16.3071C9.44141 16.4766 8.55859 16.3894 7.75781 16.0571C6.95703 15.7249 6.26953 15.1619 5.78516 14.4397C5.30469 13.7175 5.04688 12.8687 5.04688 12.0002C5.04688 10.8359 5.51172 9.71973 6.33594 8.89648C7.15625 8.07324 8.27344 7.61011 9.4375 7.60889Z" fill="#84BE51" fill-opacity="1.000000" fill-rule="nonzero"/>
		<path id="Vector" d="M4.69531 14.2439Q4.85938 14.592 5.07422 14.9158Q5.29297 15.2393 5.55078 15.5244Q5.80859 15.8098 6.10938 16.0569Q6.41016 16.3037 6.73828 16.5017Q7.07031 16.6995 7.42969 16.8486Q7.78906 16.9973 8.16406 17.0911Q8.53516 17.1846 8.92578 17.2227Q9.3125 17.261 9.69531 17.2419Q10.082 17.2231 10.4609 17.1472Q10.8438 17.0713 11.207 16.9414Q11.5703 16.8118 11.9102 16.6284Q12.2539 16.4451 12.5625 16.2158Q12.875 15.9863 13.1484 15.7109Q13.4258 15.4355 13.6523 15.1262Q13.8828 14.8171 14.0664 14.4741Q14.25 14.1309 14.3789 13.7686Q14.5078 13.406 14.5859 13.0242Q14.6602 12.6421 14.6797 12.2573Q14.6992 11.873 14.6602 11.4858Q14.6211 11.0984 14.5273 10.7249Q14.4336 10.3516 14.2852 9.99194Q14.1367 9.63257 13.9414 9.30225Q13.7422 8.97192 13.4961 8.67114Q13.2461 8.37012 12.9609 8.11157Q12.6758 7.85303 12.3555 7.63696Q12.0312 7.42065 11.6836 7.2561Q11.332 7.09155 10.9609 6.97852Q10.5898 6.86548 10.207 6.80908Q9.82812 6.75269 9.4375 6.75269Q8.91406 6.75317 8.41016 6.854Q7.91016 6.95435 7.42969 7.15356Q6.94922 7.35352 6.52344 7.63794Q6.09766 7.92236 5.73047 8.29126Q5.35938 8.66016 5.07422 9.08545Q4.79297 9.51099 4.58984 9.99292Q4.39062 10.4746 4.29297 10.9763Q4.19141 11.4783 4.19141 12Q4.19141 12.3918 4.24609 12.7751Q4.30469 13.1536 4.41797 13.5234Q4.53125 13.896 4.69531 14.2439ZM4.39062 12.0002C4.39062 12.9985 4.6875 13.9744 5.24219 14.8044C5.79688 15.6348 6.58594 16.2817 7.50781 16.6638C8.42969 17.0459 9.44531 17.1458 10.4219 16.9509C11.4023 16.7563 12.3008 16.2756 13.0078 15.5696C13.7148 14.8635 14.1953 13.9641 14.3906 12.9851C14.582 12.0059 14.4844 10.991 14.1016 10.0686C13.7188 9.14624 13.0742 8.35791 12.2422 7.80322C11.4141 7.24854 10.4375 6.95264 9.4375 6.95264C8.10156 6.9541 6.81641 7.48657 5.87109 8.43262C4.92578 9.37891 4.39062 10.6619 4.39062 12.0002ZM9.4375 7.60889C10.3047 7.60889 11.1562 7.86646 11.8789 8.34888C12.6016 8.83154 13.1641 9.51733 13.4961 10.3196C13.8281 11.1221 13.9141 12.0051 13.7461 12.8569C13.5742 13.7087 13.1562 14.4912 12.543 15.1052C11.9297 15.7192 11.1484 16.1375 10.293 16.3071C9.44141 16.4766 8.55859 16.3894 7.75781 16.0571C6.95703 15.7249 6.26953 15.1619 5.78516 14.4397C5.30469 13.7175 5.04688 12.8687 5.04688 12.0002C5.04688 10.8359 5.51172 9.71973 6.33594 8.89648C7.15625 8.07324 8.27344 7.61011 9.4375 7.60889ZM11.2305 8.21094Q11.5078 8.34253 11.7656 8.51514Q12.0234 8.68799 12.2539 8.89429Q12.4805 9.10083 12.6797 9.34131Q12.875 9.58154 13.0352 9.84546Q13.1914 10.1091 13.3086 10.3962Q13.4297 10.6833 13.5039 10.9814Q13.5781 11.2798 13.6094 11.5894Q13.6406 11.8984 13.625 12.2053Q13.6094 12.5127 13.5508 12.8179Q13.4883 13.1226 13.3828 13.4121Q13.2812 13.7017 13.1328 13.9758Q12.9883 14.25 12.8047 14.4971Q12.6211 14.7439 12.4023 14.9639Q12.1836 15.1836 11.9336 15.3669Q11.6875 15.55 11.4141 15.6965Q11.1406 15.843 10.8516 15.9465Q10.5625 16.0503 10.2539 16.1108Q9.94922 16.1716 9.64453 16.1865Q9.33594 16.2017 9.02734 16.1711Q8.71875 16.1406 8.41797 16.0662Q8.12109 15.9915 7.83594 15.8723Q7.54688 15.7534 7.28125 15.5952Q7.01953 15.4373 6.77734 15.24Q6.53906 15.0427 6.33203 14.8149Q6.125 14.5872 5.95312 14.3286Q5.78125 14.0701 5.64844 13.7922Q5.51562 13.5142 5.42578 13.2168Q5.33594 12.9192 5.29297 12.6152Q5.24609 12.311 5.24609 12.0002Q5.24609 11.585 5.32812 11.1858Q5.40625 10.7834 5.56641 10.3972Q5.72656 10.0122 5.95312 9.67236Q6.17969 9.33252 6.47656 9.03784Q6.76953 8.74341 7.10938 8.51611Q7.44922 8.28882 7.83594 8.12915Q8.21875 7.96948 8.62109 7.8894Q9.02344 7.80933 9.4375 7.80884Q9.74609 7.80884 10.0469 7.85327Q10.3555 7.89844 10.6562 7.98926Q10.9531 8.07959 11.2305 8.21094Z" fill="#84BE51" fill-opacity="1.000000" fill-rule="evenodd"/>
		<path id="Vector" d="M21.8711 20.9812C21.8359 20.54 21.6641 20.1208 21.3789 19.7827C21.0898 19.4448 20.707 19.2048 20.2773 19.0969C20.2773 19.0803 20.2773 19.064 20.2773 19.0476C20.2773 18.5183 20.0781 18.0088 19.7188 17.6204C19.3555 17.2319 18.8633 16.9934 18.3359 16.9519C18.3203 16.8782 18.3008 16.8069 18.2734 16.7363C18.4805 15.1914 18.5898 13.6355 18.6016 12.0771L18.6016 11.9231C18.6016 7.98145 17.6758 3.51758 17.5859 3.09546L17.5859 1.18262C17.5859 1.0957 17.5508 1.01221 17.4883 0.950684C17.4297 0.88916 17.3438 0.854492 17.2578 0.854492L2.19531 0.854492C2.15234 0.854492 2.10938 0.863037 2.07031 0.879395C2.03125 0.895996 1.99609 0.920166 1.96484 0.950439C1.93359 0.980957 1.91016 1.01709 1.89453 1.05713C1.875 1.09692 1.86719 1.1394 1.86719 1.18262L1.86719 3.09521C1.77734 3.51807 0.851562 7.98145 0.851562 11.9231L0.851562 12.0771C0.851562 16.0186 1.77734 20.4819 1.86719 20.9045L1.86719 22.8171C1.86719 22.8601 1.875 22.9028 1.89453 22.9426C1.91016 22.9824 1.93359 23.0188 1.96484 23.0491C1.99609 23.0796 2.03125 23.1038 2.07031 23.1204C2.10938 23.1367 2.15234 23.1453 2.19531 23.1453L22.8164 23.1453C22.8594 23.1453 22.8984 23.1367 22.9414 23.1204C22.9805 23.1038 23.0156 23.0796 23.0469 23.0491C23.0781 23.0188 23.1016 22.9824 23.1172 22.9426C23.1328 22.9028 23.1445 22.8601 23.1445 22.8171C23.1445 22.4177 23.0234 22.0273 22.7969 21.699C22.5703 21.3706 22.2461 21.1201 21.8711 20.9812ZM2.52344 1.51074L16.9297 1.51074L16.9297 2.802L2.52344 2.802L2.52344 1.51074ZM1.50781 11.9231C1.50781 8.41992 2.25391 4.48584 2.46484 3.45825L16.9922 3.45825C17.1992 4.48584 17.9453 8.41992 17.9453 11.9231L17.9453 12.0771C17.9375 13.3364 17.8633 14.5945 17.7188 15.8459C17.4297 15.5635 17.0742 15.3625 16.6797 15.2642C16.2891 15.1658 15.8789 15.1733 15.4922 15.2859C15.1055 15.3984 14.7539 15.6121 14.4766 15.905C14.1992 16.1978 14.0039 16.5593 13.9141 16.9521C13.3867 16.9941 12.8945 17.2332 12.5352 17.6216C12.1758 18.01 11.9766 18.5193 11.9727 19.0483C11.9727 19.0647 11.9727 19.0813 11.9727 19.0977C11.6211 19.1875 11.293 19.3674 11.0273 19.6206C10.7656 19.8735 10.5703 20.1909 10.4648 20.5415L2.46484 20.5415C2.25391 19.5139 1.50781 15.5798 1.50781 12.0767L1.50781 11.9231ZM2.52344 21.198L9.96094 21.198C9.74609 21.3459 9.55859 21.5369 9.41797 21.7588C9.27344 21.9807 9.17969 22.2292 9.13672 22.4893L2.52344 22.4893L2.52344 21.198ZM13.4062 22.4893C13.4727 22.325 13.5859 22.1838 13.7305 22.0845C13.8789 21.9851 14.0508 21.9316 14.2266 21.9314C14.3164 21.9314 14.3984 21.8967 14.4609 21.8352C14.5195 21.7737 14.5547 21.6902 14.5547 21.6033C14.5547 21.5161 14.5195 21.4329 14.4609 21.3713C14.3984 21.3096 14.3164 21.2751 14.2266 21.2751C13.875 21.2756 13.5352 21.3962 13.2617 21.6172C12.9883 21.8379 12.7969 22.1458 12.7227 22.4893L9.80469 22.4893C9.86328 22.2576 9.98828 22.0469 10.1602 21.8804C10.332 21.7139 10.5469 21.5984 10.7812 21.5464C10.8555 21.5293 10.9219 21.4863 10.9688 21.4248C11.0156 21.3633 11.0391 21.2874 11.0352 21.2102L11.0312 21.1741C11.0312 21.1621 11.0312 21.1499 11.0312 21.1377C11.0312 20.7751 11.168 20.4265 11.4141 20.1599C11.6602 19.8936 11.9961 19.7288 12.3594 19.6978C12.4062 19.6941 12.4492 19.6807 12.4883 19.6589C12.5312 19.637 12.5664 19.6067 12.5938 19.5703C12.6211 19.5339 12.6406 19.4919 12.6523 19.4475C12.6641 19.4028 12.6641 19.3564 12.6562 19.3113C12.6367 19.2246 12.6289 19.1367 12.6289 19.0488C12.6289 18.6653 12.7812 18.2976 13.0547 18.0264C13.3242 17.7554 13.6914 17.6028 14.0742 17.6023C14.0977 17.6023 14.1211 17.604 14.1406 17.6055L14.1719 17.6074C14.2539 17.6128 14.3398 17.5847 14.4023 17.5295C14.4688 17.4741 14.5078 17.396 14.5156 17.3113C14.5547 16.9119 14.7422 16.541 15.0391 16.2712C15.3359 16.0015 15.7227 15.8521 16.125 15.8521C16.5273 15.8521 16.9141 16.0015 17.2109 16.2712C17.5078 16.541 17.6914 16.9119 17.7305 17.3113C17.7383 17.3962 17.7812 17.4749 17.8438 17.53C17.9102 17.5854 17.9961 17.6133 18.0781 17.6074L18.1055 17.6057C18.1289 17.604 18.1523 17.6023 18.1758 17.6023C18.3867 17.6013 18.5977 17.6475 18.7891 17.7373C18.9844 17.8271 19.1523 17.9583 19.2891 18.1216C19.4258 18.2852 19.5234 18.4766 19.5742 18.6821C19.6289 18.8879 19.6367 19.1028 19.5977 19.3115C19.5859 19.3564 19.5898 19.4028 19.6016 19.4475C19.6094 19.4922 19.6289 19.5342 19.6602 19.5706C19.6875 19.6069 19.7227 19.637 19.7617 19.6589C19.8008 19.6809 19.8477 19.6941 19.8906 19.6978C20.2539 19.7288 20.5898 19.8938 20.8359 20.1602C21.082 20.4268 21.2188 20.7754 21.2188 21.1379C21.2188 21.1499 21.2188 21.1614 21.2188 21.1733L21.2148 21.2107C21.2109 21.2878 21.2344 21.3638 21.2812 21.4253C21.3281 21.4868 21.3945 21.5298 21.4727 21.5469C21.7031 21.5989 21.918 21.7146 22.0898 21.8809C22.2617 22.0474 22.3867 22.2581 22.4453 22.49L13.4062 22.4893Z" fill="#84BE51" fill-opacity="1.000000" fill-rule="nonzero"/>
		<path id="Vector" d="M21.7422 19.9458Q21.6484 19.7925 21.5312 19.6536Q21.4141 19.5149 21.2773 19.3975Q21.1406 19.28 20.9883 19.1838Q20.832 19.0876 20.668 19.0176Q20.5742 18.9773 20.4766 18.9458Q20.4688 18.7786 20.4375 18.616Q20.3945 18.4082 20.3164 18.208Q20.2383 18.0059 20.125 17.825Q20.0117 17.644 19.8633 17.4844Q19.7148 17.325 19.543 17.1978Q19.3711 17.0708 19.1758 16.9761Q18.9805 16.8813 18.7773 16.8254Q18.6367 16.7881 18.4961 16.7681Q18.4883 16.7424 18.4805 16.7168Q18.6289 15.5874 18.707 14.4536Q18.793 13.2688 18.8008 12.0789L18.8008 11.9231Q18.8008 9.42114 18.3242 6.1604Q18.1719 5.09912 17.9805 4.06226Q17.875 3.48779 17.7852 3.07446L17.7852 1.18262Q17.7852 1.07324 17.7461 0.97998Q17.707 0.886475 17.6328 0.809082Q17.5547 0.731934 17.4609 0.693115Q17.3672 0.654541 17.2578 0.654541L2.19531 0.654541Q2.14453 0.654541 2.09375 0.664307Q2.04297 0.674316 1.99609 0.69458Q1.94531 0.7146 1.90234 0.743408Q1.85938 0.771973 1.82422 0.809082Q1.78516 0.846191 1.75781 0.88916Q1.72656 0.931885 1.70703 0.980469Q1.6875 1.02905 1.67969 1.07959Q1.66797 1.13013 1.66797 1.18262L1.66797 3.07422Q1.58203 3.48779 1.47656 4.0625Q1.28516 5.09937 1.12891 6.16064Q0.652344 9.42114 0.652344 11.9231L0.652344 12.0771Q0.652344 14.5791 1.12891 17.8394Q1.28516 18.9009 1.47656 19.9375Q1.58203 20.5137 1.66797 20.9255L1.66797 22.8171Q1.66797 22.8689 1.67969 22.9187Q1.6875 22.97 1.70703 23.0193Q1.72656 23.0679 1.75781 23.1106Q1.78516 23.1536 1.82422 23.1907Q1.85938 23.2278 1.90234 23.2563Q1.94531 23.2849 1.99609 23.3052Q2.04297 23.3252 2.09375 23.3352Q2.14453 23.3452 2.19531 23.3452L22.8164 23.3452Q22.8672 23.3452 22.918 23.3354Q22.9688 23.3254 23.0156 23.3052Q23.0664 23.2852 23.1094 23.2563Q23.1523 23.2278 23.1875 23.1907Q23.2266 23.1536 23.2539 23.1106Q23.2812 23.0679 23.3008 23.0193Q23.3242 22.9707 23.332 22.9202Q23.3438 22.8696 23.3438 22.8169Q23.3438 22.4819 23.25 22.1763Q23.1562 21.8655 22.9609 21.585Q22.7695 21.3069 22.5117 21.1091Q22.3047 20.9482 22.0586 20.8406Q22.043 20.7239 22.0156 20.6099Q21.9727 20.4351 21.9023 20.2671Q21.832 20.0991 21.7422 19.9458ZM21.8711 20.9812C21.8359 20.54 21.6641 20.1208 21.3789 19.7827C21.0898 19.4448 20.707 19.2048 20.2773 19.0969L20.2773 19.0476C20.2773 18.5183 20.0781 18.0088 19.7188 17.6204C19.3555 17.2319 18.8633 16.9934 18.3359 16.9519C18.3203 16.8782 18.3008 16.8069 18.2734 16.7363C18.4805 15.1914 18.5898 13.6355 18.6016 12.0771L18.6016 11.9231C18.6016 7.98145 17.6758 3.51758 17.5859 3.09546L17.5859 1.18262C17.5859 1.0957 17.5508 1.01221 17.4883 0.950684C17.4297 0.88916 17.3438 0.854492 17.2578 0.854492L2.19531 0.854492C2.15234 0.854492 2.10938 0.863037 2.07031 0.879395C2.03125 0.895996 1.99609 0.920166 1.96484 0.950439C1.93359 0.980957 1.91016 1.01709 1.89453 1.05713C1.875 1.09692 1.86719 1.1394 1.86719 1.18262L1.86719 3.09521C1.77734 3.51807 0.851562 7.98145 0.851562 11.9231L0.851562 12.0771C0.851562 16.0186 1.77734 20.4819 1.86719 20.9045L1.86719 22.8171C1.86719 22.8601 1.875 22.9028 1.89453 22.9426C1.91016 22.9824 1.93359 23.0188 1.96484 23.0491C1.99609 23.0796 2.03125 23.1038 2.07031 23.1204C2.10938 23.1367 2.15234 23.1453 2.19531 23.1453L22.8164 23.1453C22.8594 23.1453 22.8984 23.1367 22.9414 23.1204C22.9805 23.1038 23.0156 23.0796 23.0469 23.0491C23.0781 23.0188 23.1016 22.9824 23.1172 22.9426C23.1328 22.9028 23.1445 22.8601 23.1445 22.8171C23.1445 22.4177 23.0234 22.0273 22.7969 21.699C22.5703 21.3706 22.2461 21.1201 21.8711 20.9812ZM16.9297 1.51074L2.52344 1.51074L2.52344 2.802L16.9297 2.802L16.9297 1.51074ZM16.7305 1.71069L16.7305 2.60205L2.72266 2.60205L2.72266 1.71069L16.7305 1.71069ZM1.50781 11.9231C1.50781 8.41992 2.25391 4.48584 2.46484 3.45825L16.9922 3.45825C17.1992 4.48584 17.9453 8.41992 17.9453 11.9231L17.9453 12.0771C17.9375 13.2537 17.8711 14.4292 17.7461 15.5989C17.7383 15.6812 17.7266 15.7637 17.7188 15.8459C17.6602 15.7888 17.5977 15.7349 17.5352 15.6846C17.2852 15.4863 16.9922 15.3428 16.6797 15.2642C16.2891 15.1658 15.8789 15.1733 15.4922 15.2859C15.1055 15.3984 14.7539 15.6121 14.4766 15.905C14.1992 16.1978 14.0039 16.5593 13.9141 16.9521C13.3867 16.9941 12.8945 17.2332 12.5352 17.6216C12.1758 18.01 11.9766 18.5193 11.9727 19.0483L11.9727 19.0977C11.6211 19.1875 11.293 19.3674 11.0273 19.6206C10.7656 19.8735 10.5703 20.1909 10.4648 20.5415L2.46484 20.5415C2.25391 19.5139 1.50781 15.5798 1.50781 12.0767L1.50781 11.9231ZM2.62891 20.3413Q2.33203 18.855 2.10547 17.2102Q1.70703 14.3135 1.70703 12.0767L1.70703 11.9241Q1.70703 9.68555 2.10547 6.78955Q2.33203 5.13452 2.62891 3.6582L16.8281 3.6582Q17.1211 5.14722 17.3477 6.78955Q17.7461 9.68628 17.7461 11.9231L17.7461 12.0771Q17.7422 12.9148 17.6953 13.7502Q17.6484 14.6023 17.5625 15.4521Q17.4531 15.3748 17.3359 15.3101Q17.0547 15.1519 16.7305 15.0703Q16.4062 14.9885 16.082 14.9944Q15.7578 15.0002 15.4375 15.0938Q15.1133 15.1873 14.8398 15.3557Q14.5625 15.5242 14.332 15.7673Q14.1016 16.0107 13.9492 16.2954Q13.8281 16.519 13.7539 16.7686Q13.6133 16.7886 13.4727 16.8262Q13.2695 16.8821 13.0742 16.9771Q12.8789 17.0718 12.707 17.199Q12.5352 17.3262 12.3867 17.4858Q12.2383 17.6453 12.125 17.8262Q12.0117 18.0071 11.9336 18.2092Q11.8555 18.4114 11.8164 18.6211Q11.7852 18.7815 11.7773 18.9463Q11.5625 19.0151 11.3711 19.1218Q11.1133 19.2649 10.8906 19.4758Q10.668 19.6873 10.5156 19.9392Q10.3984 20.1287 10.3203 20.3413L2.62891 20.3413ZM21.2188 21.1733C21.2188 21.1614 21.2188 21.1499 21.2188 21.1379C21.2188 20.7754 21.082 20.4268 20.8359 20.1602C20.5898 19.8938 20.2539 19.7288 19.8906 19.6978C19.8477 19.6941 19.8008 19.6809 19.7617 19.6589C19.7227 19.637 19.6875 19.6069 19.6602 19.5706C19.6289 19.5342 19.6094 19.4922 19.6016 19.4475C19.5898 19.4028 19.5859 19.3564 19.5977 19.3115C19.6367 19.1028 19.6289 18.8879 19.5742 18.6821C19.5234 18.4766 19.4258 18.2852 19.2891 18.1216C19.1523 17.9583 18.9844 17.8271 18.7891 17.7373C18.5977 17.6475 18.3867 17.6013 18.1758 17.6023C18.1523 17.6023 18.1289 17.604 18.1055 17.6057L18.0781 17.6074C17.9961 17.6133 17.9102 17.5854 17.8438 17.53C17.7812 17.4749 17.7383 17.3962 17.7305 17.3113C17.6914 16.9119 17.5078 16.541 17.2109 16.2712C16.9141 16.0015 16.5273 15.8521 16.125 15.8521C15.7227 15.8521 15.3359 16.0015 15.0391 16.2712C14.7422 16.541 14.5547 16.9119 14.5156 17.3113C14.5078 17.396 14.4688 17.4741 14.4023 17.5295C14.3398 17.5847 14.2539 17.6128 14.1719 17.6074L14.1406 17.6055C14.1211 17.604 14.0977 17.6023 14.0742 17.6023C13.6914 17.6028 13.3242 17.7554 13.0547 18.0264C12.7812 18.2976 12.6289 18.6653 12.6289 19.0488C12.6289 19.1367 12.6367 19.2246 12.6562 19.3113C12.6641 19.3564 12.6641 19.4028 12.6523 19.4475C12.6406 19.4919 12.6211 19.5339 12.5938 19.5703C12.5664 19.6067 12.5312 19.637 12.4883 19.6589C12.4492 19.6807 12.4062 19.6941 12.3594 19.6978C11.9961 19.7288 11.6602 19.8936 11.4141 20.1599C11.168 20.4265 11.0312 20.7751 11.0312 21.1377C11.0312 21.1499 11.0312 21.1621 11.0312 21.1741L11.0352 21.2102C11.0391 21.2874 11.0156 21.3633 10.9688 21.4248C10.9219 21.4863 10.8555 21.5293 10.7812 21.5464C10.5469 21.5984 10.332 21.7139 10.1602 21.8804C10.0391 21.9976 9.94141 22.1365 9.875 22.2893C9.84766 22.3538 9.82422 22.4207 9.80469 22.4893L12.7227 22.4893C12.7969 22.1458 12.9883 21.8379 13.2617 21.6172C13.5352 21.3962 13.875 21.2756 14.2266 21.2751C14.3164 21.2751 14.3984 21.3096 14.4609 21.3713C14.5195 21.4329 14.5547 21.5161 14.5547 21.6033C14.5547 21.6902 14.5195 21.7737 14.4609 21.8352C14.3984 21.8967 14.3164 21.9314 14.2266 21.9314C14.0508 21.9316 13.8789 21.9851 13.7305 22.0845C13.6484 22.1406 13.5781 22.21 13.5195 22.2893C13.4727 22.3506 13.4336 22.4177 13.4062 22.4893L13.625 22.4893L22.2383 22.49L22.4453 22.49C22.4297 22.4211 22.4062 22.3542 22.375 22.29C22.3086 22.137 22.2109 21.998 22.0898 21.8809C21.918 21.7146 21.7031 21.5989 21.4727 21.5469C21.3945 21.5298 21.3281 21.4868 21.2812 21.4253C21.2344 21.3638 21.2109 21.2878 21.2148 21.2107L21.2188 21.1733ZM22.1562 22.2898Q22.1484 22.2754 22.1367 22.261Q22.0625 22.1323 21.9531 22.0247Q21.8438 21.9194 21.7148 21.8496Q21.582 21.7764 21.4258 21.7419Q21.332 21.7207 21.2578 21.6716Q21.1797 21.6228 21.125 21.5461Q21.0703 21.4751 21.043 21.3948Q21.0117 21.3022 21.0156 21.1978L21.0195 21.1526L21.0195 21.1477L21.0195 21.1389Q21.0195 21.0217 21 20.9084Q20.9766 20.7954 20.9336 20.6863Q20.8906 20.5774 20.8281 20.4797Q20.7695 20.3821 20.6875 20.2959Q20.6094 20.2097 20.5156 20.1409Q20.4258 20.072 20.3203 20.0203Q20.207 19.9651 20.0898 19.9338Q19.9844 19.9065 19.875 19.8972Q19.8203 19.8928 19.7695 19.8772Q19.7148 19.8613 19.668 19.8347Q19.6172 19.8081 19.5742 19.7725Q19.5352 19.7368 19.5 19.6921Q19.4648 19.6475 19.4414 19.5979Q19.418 19.5486 19.4062 19.4944Q19.3945 19.4458 19.3906 19.3967Q19.3867 19.3357 19.3984 19.2742Q19.4258 19.1377 19.4219 19.0022Q19.418 18.8667 19.3828 18.7322Q19.3477 18.5977 19.2852 18.4771Q19.2227 18.3564 19.1367 18.2495Q19.0469 18.1428 18.9375 18.0601Q18.832 17.9773 18.707 17.9185Q18.582 17.8616 18.457 17.8325Q18.3203 17.8015 18.1758 17.8022Q18.1602 17.8022 18.125 17.8047L18.1172 17.8052L18.0938 17.8069Q17.9844 17.8142 17.8906 17.783Q17.7969 17.752 17.7148 17.6824Q17.6328 17.6123 17.5859 17.5232Q17.543 17.4358 17.5312 17.3303Q17.5195 17.1992 17.4844 17.0747Q17.4492 16.9502 17.3867 16.8323Q17.3281 16.7144 17.25 16.6111Q17.1719 16.5078 17.0742 16.4194Q16.9766 16.3308 16.8672 16.2627Q16.7578 16.1946 16.6328 16.147Q16.5117 16.0996 16.3828 16.0757Q16.2578 16.052 16.125 16.052Q15.9922 16.052 15.8633 16.0757Q15.7383 16.0996 15.6133 16.147Q15.4922 16.1946 15.3828 16.2627Q15.2695 16.3308 15.1719 16.4194Q15.0742 16.5081 14.9961 16.6111Q14.918 16.7144 14.8594 16.8323Q14.8008 16.9514 14.7656 17.0774Q14.7305 17.2007 14.7148 17.3303Q14.707 17.4365 14.6602 17.5244Q14.6133 17.6123 14.5352 17.6816Q14.4531 17.7502 14.3594 17.7815Q14.2656 17.8137 14.1562 17.8069L14.1289 17.8052L14.1211 17.8047Q14.0898 17.8022 14.0781 17.8022Q13.9531 17.8025 13.832 17.8262Q13.7148 17.8501 13.5977 17.8977Q13.4844 17.9451 13.3828 18.0127Q13.2812 18.0803 13.1953 18.168Q13.1094 18.2556 13.0391 18.3567Q12.9727 18.4578 12.9258 18.572Q12.875 18.6926 12.8516 18.8181Q12.8281 18.9309 12.8281 19.0479Q12.8281 19.0669 12.832 19.0859Q12.832 19.1807 12.8516 19.2751Q12.8633 19.3301 12.8594 19.385Q12.8594 19.4397 12.8477 19.4941Q12.832 19.5486 12.8086 19.5981Q12.7852 19.6477 12.75 19.6921Q12.7188 19.7366 12.6758 19.772Q12.6328 19.8076 12.5859 19.8345Q12.5312 19.8643 12.4727 19.8804Q12.4258 19.8931 12.375 19.897Q12.2578 19.907 12.1484 19.9377Q12.0352 19.9685 11.9336 20.0203Q11.8281 20.0718 11.7344 20.1406Q11.6406 20.2095 11.5625 20.2957Q11.4844 20.3818 11.4219 20.4795Q11.3594 20.5769 11.3164 20.686Q11.2734 20.8018 11.25 20.9216Q11.2305 21.0271 11.2305 21.136L11.2305 21.1406Q11.2305 21.1548 11.2305 21.166L11.2344 21.2004Q11.2383 21.2966 11.2109 21.3828Q11.1875 21.4692 11.1289 21.5457Q11.0703 21.6208 10.9961 21.6692Q10.918 21.7197 10.8242 21.7417Q10.6719 21.7751 10.5391 21.8459Q10.4102 21.9165 10.2969 22.0242Q10.1875 22.1318 10.1133 22.2605Q10.1055 22.2749 10.0977 22.2893L12.5664 22.2893Q12.5898 22.2261 12.6133 22.1648Q12.668 22.0288 12.7461 21.9019Q12.8242 21.7751 12.9219 21.665Q13.0195 21.5549 13.1367 21.4614Q13.25 21.3679 13.3789 21.2964Q13.5078 21.2246 13.6484 21.175Q13.7852 21.1262 13.9297 21.1013Q14.0742 21.0754 14.2266 21.0752Q14.3359 21.0752 14.4297 21.1138Q14.5234 21.1523 14.6016 21.2297Q14.6797 21.3071 14.7188 21.4006Q14.7539 21.4939 14.7539 21.6033Q14.7539 21.7126 14.7188 21.8059Q14.6797 21.8994 14.6016 21.9768Q14.5234 22.0544 14.4297 22.093Q14.3359 22.1313 14.2266 22.1313Q14.1211 22.1316 14.0273 22.1611Q13.9297 22.1909 13.8438 22.25Q13.8164 22.2686 13.7891 22.2893L22.1562 22.2898ZM9.63672 21.198L9.96094 21.198C9.875 21.2581 9.79297 21.325 9.71484 21.3979C9.60156 21.5056 9.5 21.6267 9.41797 21.7588C9.27344 21.9807 9.17969 22.2292 9.13672 22.4893L2.52344 22.4893L2.52344 21.198L9.63672 21.198ZM9.4375 21.3979L2.72266 21.3979L2.72266 22.2893L8.97266 22.2893Q9.00391 22.1606 9.05078 22.0378Q9.12891 21.8364 9.25 21.6509Q9.33594 21.5164 9.4375 21.3979Z" fill="#84BE51" fill-opacity="1.000000" fill-rule="evenodd"/>
		<path id="Vector" d="M3.82812 5.04395L6.55859 5.04395C6.64453 5.04395 6.72656 5.00928 6.78906 4.94775C6.85156 4.88623 6.88672 4.80273 6.88672 4.71582C6.88672 4.62891 6.85156 4.54541 6.78906 4.48389C6.72656 4.42236 6.64453 4.3877 6.55859 4.3877L3.82812 4.3877C3.74219 4.3877 3.65625 4.42236 3.59766 4.48389C3.53516 4.54541 3.5 4.62891 3.5 4.71582C3.5 4.80273 3.53516 4.88623 3.59766 4.94775C3.65625 5.00928 3.74219 5.04395 3.82812 5.04395Z" fill="#84BE51" fill-opacity="1.000000" fill-rule="nonzero"/>
		<path id="Vector" d="M3.82812 5.2439L6.55859 5.2439Q6.66797 5.2439 6.75781 5.20532Q6.85156 5.1665 6.92969 5.08936Q7.00781 5.01196 7.04688 4.91846Q7.08594 4.8252 7.08594 4.71582Q7.08594 4.60645 7.04688 4.51318Q7.00781 4.41968 6.92969 4.34229Q6.85156 4.26514 6.75781 4.22632Q6.66797 4.18774 6.55859 4.18774L3.82812 4.18774Q3.71875 4.18774 3.625 4.22632Q3.53125 4.26514 3.45312 4.34229Q3.37891 4.41968 3.33984 4.51318Q3.30078 4.60645 3.30078 4.71582Q3.30078 4.8252 3.33984 4.91846Q3.37891 5.01196 3.45312 5.08936Q3.53125 5.1665 3.625 5.20532Q3.71875 5.2439 3.82812 5.2439ZM3.82812 5.04395L6.55859 5.04395C6.64453 5.04395 6.72656 5.00928 6.78906 4.94775C6.85156 4.88623 6.88672 4.80273 6.88672 4.71582C6.88672 4.62891 6.85156 4.54541 6.78906 4.48389C6.72656 4.42236 6.64453 4.3877 6.55859 4.3877L3.82812 4.3877C3.74219 4.3877 3.65625 4.42236 3.59766 4.48389C3.53516 4.54541 3.5 4.62891 3.5 4.71582C3.5 4.80273 3.53516 4.88623 3.59766 4.94775C3.65625 5.00928 3.74219 5.04395 3.82812 5.04395Z" fill="#84BE51" fill-opacity="1.000000" fill-rule="evenodd"/>
		<path id="Vector" d="M7.875 5.04395L8.62109 5.04395C8.70703 5.04395 8.79297 5.00928 8.85156 4.94775C8.91406 4.88623 8.94922 4.80273 8.94922 4.71582C8.94922 4.62891 8.91406 4.54541 8.85156 4.48389C8.79297 4.42236 8.70703 4.3877 8.62109 4.3877L7.875 4.3877C7.78906 4.3877 7.70312 4.42236 7.64453 4.48389C7.58203 4.54541 7.54688 4.62891 7.54688 4.71582C7.54688 4.80273 7.58203 4.88623 7.64453 4.94775C7.70312 5.00928 7.78906 5.04395 7.875 5.04395Z" fill="#84BE51" fill-opacity="1.000000" fill-rule="nonzero"/>
		<path id="Vector" d="M7.875 5.2439L8.62109 5.2439Q8.73047 5.2439 8.82422 5.20532Q8.91797 5.1665 8.99609 5.08936Q9.07031 5.01196 9.10938 4.91846Q9.14844 4.8252 9.14844 4.71582Q9.14844 4.60645 9.10938 4.51318Q9.07031 4.41968 8.99609 4.34229Q8.91797 4.26514 8.82422 4.22632Q8.73047 4.18774 8.62109 4.18774L7.875 4.18774Q7.76562 4.18774 7.67188 4.22632Q7.57812 4.26514 7.5 4.34229Q7.42578 4.41968 7.38672 4.51318Q7.34766 4.60645 7.34766 4.71582Q7.34766 4.8252 7.38672 4.91846Q7.42578 5.01196 7.5 5.08936Q7.57812 5.1665 7.67188 5.20532Q7.76562 5.2439 7.875 5.2439ZM7.875 5.04395L8.62109 5.04395C8.70703 5.04395 8.79297 5.00928 8.85156 4.94775C8.91406 4.88623 8.94922 4.80273 8.94922 4.71582C8.94922 4.62891 8.91406 4.54541 8.85156 4.48389C8.79297 4.42236 8.70703 4.3877 8.62109 4.3877L7.875 4.3877C7.78906 4.3877 7.70312 4.42236 7.64453 4.48389C7.58203 4.54541 7.54688 4.62891 7.54688 4.71582C7.54688 4.80273 7.58203 4.88623 7.64453 4.94775C7.70312 5.00928 7.78906 5.04395 7.875 5.04395Z" fill="#84BE51" fill-opacity="1.000000" fill-rule="evenodd"/>
	</g>
</svg>
