<svg width="24.000000" height="24.000000" viewBox="0 0 24 24" fill="none" xmlns="http://www.w3.org/2000/svg" xmlns:xlink="http://www.w3.org/1999/xlink">
	<desc>
			Created with Pixso.
	</desc>
	<defs>
		<clipPath id="clip118_6290">
			<rect id="Frame" width="24.000000" height="24.000000" fill="white" fill-opacity="0"/>
		</clipPath>
	</defs>
	<rect id="Frame" width="24.000000" height="24.000000" fill="#FFFFFF" fill-opacity="0"/>
	<g clip-path="url(#clip118_6290)">
		<path id="Vector" d="M19.0039 20.3499L19.0039 17C20.0859 16.9011 21.1133 16.4844 21.957 15.8022C22.8008 15.1199 23.4258 14.2029 23.75 13.1667C24.0742 12.1304 24.0859 11.0212 23.7812 9.979C23.4766 8.93677 22.8711 8.00806 22.0391 7.31006C22.5625 6.64624 22.8867 5.84888 22.9766 5.00903C23.0664 4.16919 22.9219 3.3208 22.5508 2.56079C22.1836 1.80078 21.6055 1.15991 20.8906 0.711426C20.1758 0.263184 19.3477 0.0253906 18.5039 0.0253906C17.6562 0.0253906 16.832 0.263184 16.1133 0.711426C15.3984 1.15991 14.8242 1.80078 14.4531 2.56079C14.0859 3.3208 13.9375 4.16919 14.0273 5.00903C14.1211 5.84888 14.4453 6.64624 14.9688 7.31006C14.1367 8.00806 13.5312 8.93677 13.2266 9.979C12.9219 11.0212 12.9297 12.1304 13.2539 13.1667C13.5781 14.2029 14.2031 15.1199 15.0469 15.8022C15.8945 16.4844 16.9219 16.9011 18.0039 17L18.0039 20C14.1055 18.71 9.89844 18.71 6.00391 20L6.00391 17C7.08594 16.9011 8.11328 16.4844 8.95703 15.8022C9.80078 15.1199 10.4258 14.2029 10.75 13.1667C11.0742 12.1304 11.0859 11.0212 10.7812 9.979C10.4766 8.93677 9.87109 8.00806 9.03906 7.31006C9.48047 6.74707 9.78516 6.08667 9.92188 5.3833C10.0586 4.67993 10.0234 3.9541 9.82422 3.26636C9.62109 2.57861 9.26172 1.94849 8.76953 1.42871C8.27344 0.908936 7.66406 0.51416 6.98828 0.277832C6.3125 0.0412598 5.58984 -0.0302734 4.87891 0.0688477C4.16797 0.168213 3.49609 0.435303 2.91016 0.848389C2.32422 1.26123 1.84375 1.80811 1.51172 2.44336C1.18359 3.07837 1.00781 3.78345 1.00391 4.5C1 5.51074 1.33984 6.49268 1.96875 7.28491C1.12891 7.9812 0.511719 8.91138 0.203125 9.95776C-0.105469 11.0039 -0.0976562 12.1189 0.226562 13.1604C0.550781 14.2021 1.17969 15.1233 2.03125 15.8069C2.88281 16.4907 3.91406 16.906 5.00391 17L5.00391 20.3499C3.27344 21.0322 1.65625 21.96 0.191406 23.105C0.109375 23.1689 0.0507812 23.2573 0.0195312 23.3577C-0.0078125 23.4578 -0.0078125 23.5649 0.0273438 23.6636C0.0625 23.7625 0.125 23.8479 0.210938 23.9082C0.296875 23.9685 0.398438 24.0007 0.503906 24L23.5039 24C23.6055 24.0007 23.7109 23.9685 23.793 23.9082C23.8789 23.8479 23.9453 23.7625 23.9805 23.6636C24.0117 23.5649 24.0156 23.4578 23.9844 23.3577C23.957 23.2573 23.8945 23.1689 23.8125 23.105C22.3516 21.96 20.7305 21.0322 19.0039 20.3499ZM14.0039 11.5C14.0039 10.762 14.1875 10.0356 14.5352 9.38525C14.8867 8.73462 15.3906 8.17993 16.0039 7.77002C16.0625 7.72681 16.1133 7.6709 16.1484 7.60645C16.1836 7.54199 16.2031 7.47021 16.2109 7.39673C16.2148 7.32324 16.2031 7.24951 16.1758 7.18091C16.1484 7.1123 16.1055 7.05054 16.0547 7C15.5547 6.51318 15.2148 5.88989 15.0742 5.20898C14.9336 4.52808 15 3.8208 15.2617 3.17725C15.5273 2.53369 15.9727 1.98291 16.5508 1.59521C17.1289 1.20752 17.8086 1.00049 18.5039 1.00049C19.1992 1.00049 19.8789 1.20752 20.4531 1.59521C21.0312 1.98291 21.4805 2.53369 21.7422 3.17725C22.0078 3.8208 22.0703 4.52808 21.9297 5.20898C21.7891 5.88989 21.4492 6.51318 20.9531 7C20.8984 7.05054 20.8555 7.1123 20.832 7.18091C20.8047 7.24951 20.793 7.32324 20.7969 7.39673C20.8008 7.47021 20.8203 7.54199 20.8594 7.60645C20.8945 7.6709 20.9414 7.72681 21.0039 7.77002C21.6484 8.20215 22.1719 8.79468 22.5234 9.4895C22.8711 10.1846 23.0352 10.9583 22.9961 11.7354C22.957 12.5122 22.7188 13.2659 22.3008 13.9229C21.8867 14.5796 21.3047 15.1172 20.6172 15.4829C19.9336 15.8489 19.1641 16.0305 18.3867 16.01C17.6094 15.9897 16.8477 15.7681 16.1836 15.3669C15.5156 14.9656 14.9648 14.3984 14.582 13.7207C14.1992 13.043 14 12.2778 14.0039 11.5ZM1.00391 11.5C1.00391 10.762 1.1875 10.0356 1.53516 9.38525C1.88672 8.73462 2.39062 8.17993 3.00391 7.77002C3.0625 7.72681 3.11328 7.6709 3.14844 7.60645C3.18359 7.54199 3.20312 7.47021 3.21094 7.39673C3.21484 7.32324 3.20312 7.24951 3.17578 7.18091C3.14844 7.1123 3.10547 7.05054 3.05469 7C2.55469 6.51318 2.21484 5.88989 2.07422 5.20898C1.93359 4.52808 2 3.8208 2.26172 3.17725C2.52734 2.53369 2.97266 1.98291 3.55078 1.59521C4.12891 1.20752 4.80859 1.00049 5.50391 1.00049C6.19922 1.00049 6.87891 1.20752 7.45312 1.59521C8.03125 1.98291 8.48047 2.53369 8.74219 3.17725C9.00781 3.8208 9.07031 4.52808 8.92969 5.20898C8.78906 5.88989 8.44922 6.51318 7.95312 7C7.89844 7.05054 7.85547 7.1123 7.83203 7.18091C7.80469 7.24951 7.79297 7.32324 7.79688 7.39673C7.80078 7.47021 7.82031 7.54199 7.85938 7.60645C7.89453 7.6709 7.94141 7.72681 8.00391 7.77002C8.64844 8.20215 9.17188 8.79468 9.52344 9.4895C9.87109 10.1846 10.0352 10.9583 9.99609 11.7354C9.95703 12.5122 9.71875 13.2659 9.30078 13.9229C8.88672 14.5796 8.30469 15.1172 7.61719 15.4829C6.93359 15.8489 6.16406 16.0305 5.38672 16.01C4.60938 15.9897 3.84766 15.7681 3.18359 15.3669C2.51562 14.9656 1.96484 14.3984 1.58203 13.7207C1.19922 13.043 1 12.2778 1.00391 11.5ZM2.05859 23C5.01172 21.0574 8.46875 20.0225 12.0039 20.0225C15.5391 20.0225 19 21.0574 21.9531 23L2.05859 23Z" fill="#84BE51" fill-opacity="1.000000" fill-rule="nonzero"/>
		<path id="Vector" d="M5.14453 7.35498C5.19141 7.40186 5.24609 7.43921 5.30469 7.4646C5.36719 7.48999 5.43359 7.50293 5.5 7.50293C5.5625 7.50293 5.62891 7.48999 5.69141 7.4646C5.75 7.43921 5.80859 7.40186 5.85156 7.35498L7.35156 5.85498C7.44922 5.76099 7.5 5.6333 7.5 5.5C7.5 5.36694 7.44922 5.23926 7.35156 5.14502C7.25781 5.05103 7.13281 4.99805 7 4.99805C6.86328 4.99805 6.73828 5.05103 6.64453 5.14502L5.5 6.29517L4.35156 5.14502C4.25781 5.05103 4.13281 4.99805 4 4.99805C3.86328 4.99805 3.73828 5.05103 3.64453 5.14502C3.55078 5.23926 3.49609 5.36694 3.49609 5.5C3.49609 5.6333 3.55078 5.76099 3.64453 5.85498L5.14453 7.35498Z" fill="#84BE51" fill-opacity="1.000000" fill-rule="nonzero"/>
		<path id="Vector" d="M5.14453 10.855C5.19141 10.9019 5.24609 10.9392 5.30469 10.9646C5.36719 10.99 5.43359 11.0029 5.5 11.0029C5.5625 11.0029 5.62891 10.99 5.69141 10.9646C5.75 10.9392 5.80859 10.9019 5.85156 10.855L7.35156 9.35498C7.39844 9.30859 7.4375 9.25317 7.46094 9.19214C7.48828 9.13135 7.5 9.06592 7.5 9C7.5 8.93408 7.48828 8.8689 7.46094 8.80786C7.4375 8.74707 7.39844 8.69165 7.35156 8.64502C7.30469 8.59839 7.25 8.56152 7.19141 8.53638C7.12891 8.51099 7.0625 8.49805 7 8.49805C6.93359 8.49805 6.86719 8.51099 6.80469 8.53638C6.74609 8.56152 6.69141 8.59839 6.64453 8.64502L5.5 9.79517L4.35156 8.64502C4.30469 8.59839 4.25 8.56152 4.19141 8.53638C4.12891 8.51099 4.0625 8.49805 4 8.49805C3.93359 8.49805 3.86719 8.51099 3.80469 8.53638C3.74609 8.56152 3.69141 8.59839 3.64453 8.64502C3.59766 8.69165 3.55859 8.74707 3.53516 8.80786C3.50781 8.8689 3.49609 8.93408 3.49609 9C3.49609 9.06592 3.50781 9.13135 3.53516 9.19214C3.55859 9.25317 3.59766 9.30859 3.64453 9.35498L5.14453 10.855Z" fill="#84BE51" fill-opacity="1.000000" fill-rule="nonzero"/>
		<path id="Vector" d="M5.85156 14.355L7.35156 12.855C7.44922 12.761 7.5 12.6333 7.5 12.5C7.5 12.3669 7.44922 12.2393 7.35156 12.145C7.25781 12.051 7.13281 11.998 7 11.998C6.86328 11.998 6.73828 12.051 6.64453 12.145L5.5 13.2952L4.35156 12.145C4.30469 12.0984 4.25 12.0615 4.19141 12.0364C4.12891 12.011 4.0625 11.998 4 11.998C3.93359 11.998 3.86719 12.011 3.80469 12.0364C3.74609 12.0615 3.69141 12.0984 3.64453 12.145C3.59766 12.1917 3.55859 12.2471 3.53516 12.3079C3.50781 12.3689 3.49609 12.4341 3.49609 12.5C3.49609 12.5659 3.50781 12.6313 3.53516 12.6921C3.55859 12.7532 3.59766 12.8086 3.64453 12.855L5.14453 14.355C5.19141 14.4019 5.24609 14.4392 5.30469 14.4646C5.36719 14.49 5.43359 14.5029 5.5 14.5029C5.5625 14.5029 5.62891 14.49 5.69141 14.4646C5.75 14.4392 5.80859 14.4019 5.85156 14.355Z" fill="#84BE51" fill-opacity="1.000000" fill-rule="nonzero"/>
		<path id="Vector" d="M18.1445 7.35498C18.1914 7.40186 18.2461 7.43921 18.3047 7.4646C18.3672 7.48999 18.4336 7.50293 18.5 7.50293C18.5625 7.50293 18.6289 7.48999 18.6914 7.4646C18.75 7.43921 18.8086 7.40186 18.8516 7.35498L20.3516 5.85498C20.4492 5.76099 20.5 5.6333 20.5 5.5C20.5 5.36694 20.4492 5.23926 20.3516 5.14502C20.2578 5.05103 20.1328 4.99805 20 4.99805C19.8633 4.99805 19.7383 5.05103 19.6445 5.14502L18.5 6.29517L17.3516 5.14502C17.2578 5.05103 17.1328 4.99805 17 4.99805C16.8633 4.99805 16.7383 5.05103 16.6445 5.14502C16.5508 5.23926 16.4961 5.36694 16.4961 5.5C16.4961 5.6333 16.5508 5.76099 16.6445 5.85498L18.1445 7.35498Z" fill="#84BE51" fill-opacity="1.000000" fill-rule="nonzero"/>
		<path id="Vector" d="M18.1445 10.855C18.1914 10.9019 18.2461 10.9392 18.3047 10.9646C18.3672 10.99 18.4336 11.0029 18.5 11.0029C18.5625 11.0029 18.6289 10.99 18.6914 10.9646C18.75 10.9392 18.8086 10.9019 18.8516 10.855L20.3516 9.35498C20.4492 9.26099 20.5 9.1333 20.5 9C20.5 8.86694 20.4492 8.73926 20.3516 8.64502C20.2578 8.55103 20.1328 8.49805 20 8.49805C19.8633 8.49805 19.7383 8.55103 19.6445 8.64502L18.5 9.79517L17.3516 8.64502C17.2578 8.55103 17.1328 8.49805 17 8.49805C16.8633 8.49805 16.7383 8.55103 16.6445 8.64502C16.5508 8.73926 16.4961 8.86694 16.4961 9C16.4961 9.1333 16.5508 9.26099 16.6445 9.35498L18.1445 10.855Z" fill="#84BE51" fill-opacity="1.000000" fill-rule="nonzero"/>
		<path id="Vector" d="M18.8516 14.355L20.3516 12.855C20.4492 12.761 20.5 12.6333 20.5 12.5C20.5 12.3669 20.4492 12.2393 20.3516 12.145C20.2578 12.051 20.1328 11.998 20 11.998C19.8633 11.998 19.7383 12.051 19.6445 12.145L18.5 13.2952L17.3516 12.145C17.2578 12.051 17.1328 11.998 17 11.998C16.8633 11.998 16.7383 12.051 16.6445 12.145C16.5508 12.2393 16.4961 12.3669 16.4961 12.5C16.4961 12.6333 16.5508 12.761 16.6445 12.855L18.1445 14.355C18.1914 14.4019 18.2461 14.4392 18.3047 14.4646C18.3672 14.49 18.4336 14.5029 18.5 14.5029C18.5625 14.5029 18.6289 14.49 18.6914 14.4646C18.75 14.4392 18.8086 14.4019 18.8516 14.355Z" fill="#84BE51" fill-opacity="1.000000" fill-rule="nonzero"/>
	</g>
</svg>
