<svg width="18.400391" height="16.000000" viewBox="0 0 18.4004 16" fill="none" xmlns="http://www.w3.org/2000/svg" xmlns:xlink="http://www.w3.org/1999/xlink">
	<desc>
			Created with Pixso.
	</desc>
	<defs>
		<clipPath id="clip12_2462">
			<rect id="heart (1) 1" width="18.400000" height="16.000000" fill="white" fill-opacity="0"/>
		</clipPath>
	</defs>
	<rect id="heart (1) 1" width="18.400000" height="16.000000" fill="#FFFFFF" fill-opacity="0"/>
	<g clip-path="url(#clip12_2462)">
		<path id="Vector" d="M12.1914 0.578125C10.8945 0.578125 9.67383 1.11673 8.80078 2.06512C7.92773 1.1167 6.70703 0.578125 5.41016 0.578125C2.86914 0.578125 0.800781 2.64584 0.800781 5.1875C0.800781 6.69598 1.36523 8.26355 2.47656 9.84671C2.55078 9.9527 2.69727 9.97824 2.80273 9.90387C2.9082 9.8295 2.93359 9.68332 2.85938 9.57736C1.80469 8.07462 1.26953 6.59766 1.26953 5.1875C1.26953 2.90436 3.12695 1.04688 5.41016 1.04688C6.6582 1.04688 7.82812 1.60242 8.61914 2.57104C8.66406 2.62555 8.73047 2.6572 8.80078 2.6572C8.87109 2.6572 8.9375 2.62555 8.98242 2.57104C9.77344 1.60239 10.9434 1.04688 12.1914 1.04688C14.4746 1.04688 16.332 2.90463 16.332 5.18802C16.332 7.94531 14.2637 10.455 12.5293 12.0748C10.8984 13.5981 9.24805 14.6421 8.80078 14.9142C8.19922 14.5474 6.21484 13.5797 4.21484 11.1129C4.13477 11.0122 3.98633 10.9969 3.88672 11.0783C3.78516 11.1598 3.76953 11.3074 3.85156 11.4079C6.14844 14.2429 8.65039 15.3712 8.68359 15.3904C8.71875 15.4114 8.75977 15.4219 8.80078 15.4219C8.8418 15.4219 8.88281 15.4114 8.91797 15.3904C8.9375 15.379 10.9043 14.2327 12.8438 12.4237C13.9863 11.3573 14.8984 10.271 15.5527 9.1951C16.3809 7.83572 16.8008 6.48755 16.8008 5.18808C16.8008 2.64615 14.7324 0.578125 12.1914 0.578125Z" fill="#FFFFFF" fill-opacity="1.000000" fill-rule="nonzero"/>
		<path id="Vector" d="M9.01172 1.85077C8.93945 1.91968 8.86914 1.99115 8.80078 2.06512C8.73242 1.99115 8.66211 1.91968 8.58984 1.85074C7.73828 1.03595 6.60547 0.578125 5.41016 0.578125C2.86914 0.578125 0.800781 2.64584 0.800781 5.1875C0.800781 6.69598 1.36523 8.26355 2.47656 9.84671C2.55078 9.9527 2.69727 9.97824 2.80273 9.90387C2.9082 9.8295 2.93359 9.68332 2.85938 9.57736C1.80469 8.07462 1.26953 6.59766 1.26953 5.1875C1.26953 2.90436 3.12695 1.04688 5.41016 1.04688C6.6582 1.04688 7.82812 1.60242 8.61914 2.57104C8.66406 2.62555 8.73047 2.6572 8.80078 2.6572C8.87109 2.6572 8.9375 2.62555 8.98242 2.57104C9.77344 1.60239 10.9434 1.04688 12.1914 1.04688C14.4746 1.04688 16.332 2.90463 16.332 5.18802C16.332 7.94531 14.2637 10.455 12.5293 12.0748C10.8984 13.5981 9.24805 14.6421 8.80078 14.9142C8.19922 14.5474 6.21484 13.5797 4.21484 11.1129C4.13477 11.0122 3.98633 10.9969 3.88672 11.0783C3.78516 11.1598 3.76953 11.3074 3.85156 11.4079C6.14844 14.2429 8.65039 15.3712 8.68359 15.3904C8.71875 15.4114 8.75977 15.4219 8.80078 15.4219C8.8418 15.4219 8.88281 15.4114 8.91797 15.3904C8.9375 15.379 10.9043 14.2327 12.8438 12.4237C13.9863 11.3573 14.8984 10.271 15.5527 9.1951C16.3809 7.83572 16.8008 6.48755 16.8008 5.18808C16.8008 2.64615 14.7324 0.578125 12.1914 0.578125C10.9961 0.578125 9.86328 1.03598 9.01172 1.85077ZM8.79688 14.5641Q9.38281 14.1985 10.0469 13.7204Q11.2891 12.8225 12.3242 11.8556Q13.8965 10.3875 14.8262 8.89905Q16.0312 6.96991 16.0312 5.18802Q16.0312 4.76266 15.9414 4.35721Q15.8672 4.01901 15.7305 3.69467Q15.5957 3.37711 15.4102 3.09286Q15.1934 2.76028 14.9062 2.4733Q14.6191 2.18588 14.2852 1.96854Q14.002 1.78336 13.6836 1.64905Q13.3594 1.51157 13.0215 1.43661Q12.6172 1.34686 12.1914 1.34686Q11.7207 1.34686 11.2773 1.45511Q10.9004 1.54694 10.543 1.71671Q10.1914 1.88373 9.88672 2.11282Q9.51562 2.39099 9.21484 2.76071Q9.17773 2.80725 9.13086 2.84341Q9.08398 2.87973 9.0293 2.90561Q8.97461 2.9314 8.91797 2.94431Q8.86133 2.95718 8.80078 2.95718Q8.74023 2.95718 8.68359 2.94431Q8.62695 2.9314 8.57227 2.90561Q8.51758 2.87994 8.4707 2.84396Q8.42578 2.80762 8.38672 2.76074Q8.08398 2.39081 7.71484 2.11249Q7.4082 1.88361 7.05859 1.71671Q6.69922 1.54688 6.32422 1.45505Q5.88086 1.34686 5.41016 1.34686Q4.98438 1.34686 4.58008 1.43668Q4.24219 1.5116 3.91797 1.64902Q3.59961 1.78345 3.31641 1.96884Q2.98242 2.18604 2.69531 2.47314Q2.4082 2.76025 2.19141 3.09299Q2.00586 3.37704 1.87109 3.69437Q1.73438 4.01871 1.66016 4.3569Q1.57031 4.76224 1.57031 5.1875Q1.57031 7.2179 3.10547 9.405Q3.16797 9.49554 3.19141 9.59534Q3.21289 9.69516 3.19336 9.8042Q3.17578 9.9133 3.11914 9.99963Q3.06445 10.0858 2.97461 10.1494Q2.88477 10.213 2.78516 10.2352Q2.68555 10.2575 2.57617 10.2384Q2.4668 10.2194 2.38086 10.1646Q2.29492 10.1097 2.23047 10.0191Q0.5 7.55566 0.5 5.1875Q0.5 4.64969 0.613281 4.13654Q0.708984 3.69827 0.886719 3.27798Q1.06055 2.86792 1.30078 2.5014Q1.57617 2.08081 1.93945 1.71756Q2.30273 1.35431 2.72461 1.07864Q3.08984 0.83844 3.5 0.664703Q3.92188 0.486603 4.35938 0.390564Q4.87305 0.278137 5.41016 0.278137Q5.9707 0.278137 6.50391 0.399536Q6.95508 0.502106 7.38477 0.691284Q7.82227 0.882904 8.20508 1.14941Q8.52148 1.3678 8.80078 1.63647Q9.08008 1.3678 9.39648 1.14938Q9.7793 0.882904 10.2168 0.691315Q10.6465 0.502014 11.0977 0.399475Q11.6309 0.278137 12.1914 0.278137Q12.7285 0.278137 13.2422 0.390503Q13.6797 0.486572 14.1016 0.664734Q14.5098 0.838379 14.877 1.07843Q15.2988 1.35425 15.6621 1.71777Q16.0234 2.08087 16.3008 2.50128Q16.541 2.86804 16.7148 3.27838Q16.8926 3.69827 16.9883 4.13611Q17.1016 4.64978 17.1016 5.18814Q17.0996 7.23062 15.8086 9.35114Q14.8008 11.0079 13.0469 12.6431Q11.8203 13.7893 10.332 14.8271Q9.86523 15.153 9.42773 15.4301Q9.19727 15.5752 9.06836 15.6499Q9.00586 15.6858 8.93945 15.7038Q8.87305 15.7219 8.80078 15.7219Q8.72852 15.7219 8.66211 15.7037Q8.59961 15.6872 8.54297 15.6556Q8.54102 15.6544 8.53711 15.6526Q7.74805 15.2735 6.82617 14.6182Q6.41406 14.325 6.02148 14.0071Q4.70703 12.9412 3.61914 11.5968Q3.54883 11.5108 3.51953 11.4128Q3.49023 11.3148 3.50195 11.2047Q3.51367 11.0947 3.5625 11.0049Q3.61133 10.9149 3.69727 10.8452Q3.7832 10.7756 3.88086 10.7465Q3.97852 10.7174 4.08984 10.7289Q4.19922 10.7404 4.28906 10.7892Q4.37891 10.838 4.44922 10.924Q5.57422 12.3129 6.92773 13.3488Q7.41406 13.7221 7.94141 14.055Q8.24023 14.2444 8.69336 14.5039Q8.75 14.537 8.79688 14.5641Z" fill="#FFFFFF" fill-opacity="1.000000" fill-rule="evenodd"/>
	</g>
</svg>
