<svg width="50.000000" height="50.000000" viewBox="0 0 50 50" fill="none" xmlns="http://www.w3.org/2000/svg" xmlns:xlink="http://www.w3.org/1999/xlink">
	<desc>
			Created with Pixso.
	</desc>
	<defs>
		<clipPath id="clip118_6646">
			<rect id="history 2" width="50.000000" height="50.000000" fill="white" fill-opacity="0"/>
		</clipPath>
	</defs>
	<rect id="history 2" width="50.000000" height="50.000000" fill="#FFFFFF" fill-opacity="0"/>
	<g clip-path="url(#clip118_6646)">
		<path id="XMLID_963_" d="M34.7266 31.3486C33.7812 31.3486 33.0156 30.5835 33.0156 29.6394L33.0156 28.8994C33.0156 27.9553 33.7812 27.1899 34.7266 27.1899C35.668 27.1899 36.4336 27.9553 36.4336 28.8994L36.4336 29.6394C36.4336 30.5835 35.668 31.3486 34.7266 31.3486Z" fill="#84C551" fill-opacity="1.000000" fill-rule="nonzero"/>
		<path id="XMLID_960_" d="M26.9961 34.1262L12.8594 34.1262C11.9141 34.1262 11.1484 33.3611 11.1484 32.417C11.1484 31.4729 11.9141 30.7075 12.8594 30.7075L26.9961 30.7075C27.9375 30.7075 28.7031 31.4729 28.7031 32.417C28.7031 33.3611 27.9375 34.1262 26.9961 34.1262Z" fill="#84C551" fill-opacity="1.000000" fill-rule="nonzero"/>
		<path id="XMLID_958_" d="M26.9961 42.1233L12.8594 42.1233C11.9141 42.1233 11.1484 41.3582 11.1484 40.4141C11.1484 39.47 11.9141 38.7046 12.8594 38.7046L26.9961 38.7046C27.9375 38.7046 28.7031 39.47 28.7031 40.4141C28.7031 41.3582 27.9375 42.1233 26.9961 42.1233Z" fill="#84C551" fill-opacity="1.000000" fill-rule="nonzero"/>
		<path id="XMLID_942_" d="M11.1484 24.5269C11.1484 25.4709 11.9141 26.2363 12.8594 26.2363L26.9961 26.2363C27.6719 26.2363 28.2539 25.8435 28.5312 25.2747C30.0508 25.8921 31.7148 26.2332 33.4531 26.2332C40.6914 26.2332 46.582 20.3491 46.582 13.1165C46.582 5.88403 40.6914 0 33.4531 0C28.4492 0 24.0898 2.81519 21.875 6.94409L6.625 6.94409C4.85547 6.94409 3.41797 8.38184 3.41797 10.1492L3.41797 46.7949C3.41797 48.5623 4.85547 50 6.625 50L33.2305 50C35 50 36.4375 48.5623 36.4375 46.7949L36.4375 34.7292C36.4375 33.7849 35.6719 33.0198 34.7266 33.0198C33.7812 33.0198 33.0195 33.7849 33.0195 34.7292L33.0195 46.5811L6.83594 46.5811L6.83594 10.3628L20.6211 10.3628C20.3086 11.8245 20.2461 13.3384 20.4414 14.8208L12.8594 14.8208C11.9141 14.8208 11.1484 15.5859 11.1484 16.53C11.1484 17.4741 11.9141 18.2395 12.8594 18.2395L21.3711 18.2395C22.1211 19.9934 23.2383 21.5525 24.6289 22.8176L12.8594 22.8176C11.9141 22.8174 11.1484 23.5828 11.1484 24.5269ZM23.75 13.1165C23.75 7.76929 28.1016 3.4187 33.4531 3.4187C38.8086 3.4187 43.1602 7.76929 43.1602 13.1165C43.1602 18.4639 38.8086 22.8145 33.4531 22.8145C28.1016 22.8145 23.75 18.4639 23.75 13.1165Z" fill="#84C551" fill-opacity="1.000000" fill-rule="nonzero"/>
		<path id="XMLID_949_" d="M37.1484 16.6851C36.8906 16.6851 36.6289 16.6262 36.3828 16.5022L32.6875 14.6436C32.1094 14.3533 31.7461 13.7625 31.7461 13.1167L31.7461 6.05933C31.7461 5.11523 32.5117 4.34985 33.457 4.34985C34.3984 4.34985 35.1641 5.11523 35.1641 6.05933L35.1641 12.063L37.918 13.4482C39.4844 14.2368 38.9102 16.6848 37.1484 16.6851Z" fill="#84C551" fill-opacity="1.000000" fill-rule="nonzero"/>
	</g>
</svg>
