<svg width="32.000000" height="25.000000" viewBox="0 0 32 25" fill="none" xmlns="http://www.w3.org/2000/svg" xmlns:xlink="http://www.w3.org/1999/xlink">
	<desc>
			Created with Pixso.
	</desc>
	<defs/>
	<path id="Vector" d="M31.957 0.00720215C31.8472 -0.00238037 31.7368 -0.00238037 31.6274 0.00720215L23.2065 0.00720215L18.1221 0.00720215C13.3428 0.180664 9.75049 1.36621 7.34521 3.56384C7.23047 3.66504 7.12061 3.76624 7.01562 3.87708C5.63232 5.27631 4.65723 7.03174 4.1958 8.95178L0 25L13.8589 25C18.6157 24.8265 22.1968 23.6506 24.6021 21.4723C24.7168 21.3711 24.8267 21.265 24.9365 21.159C26.3413 19.7574 27.334 17.991 27.8042 16.0554L32 0.00720215L31.957 0.00720215ZM19.5029 13.9012C19.2217 14.9995 18.6484 15.9993 17.8447 16.7927C17.7349 16.8987 17.6201 17.0048 17.5005 17.106L17.2998 17.2651C16.3647 17.9829 15.2417 18.41 14.0693 18.494L10.4609 18.494L12.4634 11.1108C12.7383 10.0165 13.3018 9.01746 14.0933 8.21924C14.2031 8.11322 14.3179 8.0072 14.4375 7.90594L14.6665 7.71802C15.6021 7.00018 16.7246 6.57306 17.8975 6.48907L21.5103 6.48907L19.5029 13.9012Z" fill="#84C551" fill-opacity="1.000000" fill-rule="nonzero"/>
</svg>
