<svg width="20.000000" height="20.000000" viewBox="0 0 20 20" fill="none" xmlns="http://www.w3.org/2000/svg" xmlns:xlink="http://www.w3.org/1999/xlink">
	<desc>
			Created with Pixso.
	</desc>
	<defs>
		<clipPath id="clip118_6484">
			<rect id="login (1) 1" width="20.000000" height="20.000000" fill="white" fill-opacity="0"/>
		</clipPath>
	</defs>
	<rect id="login (1) 1" width="20.000000" height="20.000000" fill="#FFFFFF" fill-opacity="0"/>
	<g clip-path="url(#clip118_6484)">
		<path id="Vector" d="M10 0C4.48438 0 0 4.48608 0 10C0 15.5139 4.48438 20 10 20C15.5156 20 20 15.5139 20 10C20 4.48608 15.5156 0 10 0ZM13.5508 17.8149C12.4688 18.3086 11.2656 18.5842 10 18.5842C8.73438 18.5842 7.53125 18.3086 6.44922 17.8149L6.44922 14.354C6.44922 13.3787 7.24219 12.5852 8.21875 12.5852L11.7812 12.5852C12.7578 12.5852 13.5508 13.3789 13.5508 14.354L13.5508 17.8149ZM14.9648 16.998L14.9648 14.354C14.9648 12.5981 13.5391 11.1694 11.7812 11.1694L11.6055 11.1694C12.8555 10.5691 13.7227 9.29004 13.7227 7.8125C13.7227 5.7605 12.0508 4.09106 10 4.09106C7.94922 4.09106 6.27734 5.7605 6.27734 7.8125C6.27734 9.29004 7.14453 10.5691 8.39453 11.1694L8.21875 11.1694C6.46094 11.1694 5.03516 12.5981 5.03516 14.354L5.03516 16.998C2.84375 15.4407 1.41406 12.884 1.41406 10C1.41406 5.2666 5.26562 1.41577 10 1.41577C14.7344 1.41577 18.5859 5.2666 18.5859 10C18.5859 12.884 17.1562 15.4407 14.9648 16.998ZM10 10.1179C8.73047 10.1179 7.69531 9.08374 7.69531 7.8125C7.69531 6.54126 8.73047 5.50684 10 5.50684C11.2695 5.50684 12.3047 6.54126 12.3047 7.8125C12.3047 9.08374 11.2695 10.1179 10 10.1179Z" fill="#FFFFFF" fill-opacity="1.000000" fill-rule="nonzero"/>
	</g>
</svg>
