<svg width="157.996582" height="71.010742" viewBox="0 0 157.997 71.0107" fill="none" xmlns="http://www.w3.org/2000/svg" xmlns:xlink="http://www.w3.org/1999/xlink">
	<desc>
			Created with Pixso.
	</desc>
	<defs/>
	<path id="Vector" d="M0.00146484 45.1748L0.00146484 3.26031C-0.00878906 2.83002 0.0683594 2.40213 0.229004 2.00305C0.38916 1.604 0.628906 1.24219 0.933105 0.939941C1.22363 0.63797 1.57227 0.398987 1.95801 0.237671C2.34375 0.076355 2.75781 -0.00387573 3.17529 0.00192261L21.8691 0.00192261C31.5479 0.00192261 38.5869 1.94849 42.9873 5.84161C47.3872 9.73471 49.5898 15.8471 49.5942 24.1787C49.5942 32.4916 47.3921 38.5898 42.9873 42.4736C38.5825 46.3573 31.543 48.2991 21.8691 48.2991L3.17529 48.2991C2.76123 48.3064 2.3501 48.231 1.96533 48.0773C1.58057 47.9235 1.22949 47.6945 0.933105 47.4034C0.62793 47.1214 0.38623 46.7762 0.225586 46.3916C0.0644531 46.0069 -0.0117188 45.5919 0.00146484 45.1748ZM12.6133 38.7427L21.5049 38.7427C27.5024 38.7427 31.5825 37.6424 33.7456 35.442C35.9082 33.2415 36.9897 29.48 36.9897 24.1576C36.9897 18.8257 35.9082 15.0642 33.7456 12.8732C31.5825 10.6821 27.5024 9.57721 21.5049 9.55841L12.6133 9.55841L12.6133 38.7427Z" fill="#1F1B1C" fill-opacity="1.000000" fill-rule="nonzero"/>
	<path id="Vector" d="M67.6157 36.6198L67.6157 36.655L73.291 36.655C73.9009 36.655 74.4961 36.6551 75.085 36.6198L67.6157 36.6198Z" fill="#84C551" fill-opacity="1.000000" fill-rule="nonzero"/>
	<path id="Vector" d="M109.207 6.36346L109.207 3.19678C109.194 2.77353 109.267 2.35193 109.421 1.95807C109.576 1.56424 109.809 1.20654 110.106 0.907104C110.404 0.607635 110.759 0.372803 111.151 0.217102C111.542 0.0614014 111.961 -0.0118408 112.381 0.00186157L154.82 0.00186157C155.241 -0.0129089 155.661 0.0596619 156.052 0.214996C156.444 0.370331 156.8 0.605103 157.098 0.904785C157.395 1.20444 157.628 1.56256 157.783 1.95688C157.937 2.3512 158.009 2.77325 157.995 3.19678L157.995 6.36346C158.007 6.7836 157.934 7.20187 157.78 7.5925C157.625 7.98309 157.394 8.33774 157.098 8.63446C156.796 8.92856 156.44 9.15878 156.049 9.31143C155.658 9.46408 155.24 9.53604 154.82 9.52307L139.903 9.52307L139.903 45.1747C139.912 45.5857 139.834 45.9939 139.676 46.3729C139.518 46.7519 139.283 47.0934 138.985 47.3752C138.694 47.6666 138.347 47.8961 137.965 48.0499C137.583 48.2038 137.175 48.2789 136.764 48.2709L130.458 48.2709C130.046 48.2794 129.637 48.2046 129.254 48.0507C128.871 47.8969 128.523 47.6671 128.23 47.3752C127.933 47.0934 127.698 46.7519 127.54 46.3729C127.381 45.9939 127.304 45.5857 127.312 45.1747L127.312 9.54425L112.395 9.54425C111.977 9.55707 111.561 9.48499 111.17 9.33231C110.78 9.17963 110.425 8.94949 110.125 8.65561C109.822 8.35901 109.583 8.00189 109.425 7.60718C109.268 7.21243 109.193 6.78882 109.207 6.36346Z" fill="#1F1B1C" fill-opacity="1.000000" fill-rule="nonzero"/>
	<path id="Vector" d="M0.94043 67.7294L0.94043 58.6737C0.938965 58.5797 0.956055 58.4864 0.991211 58.3991C1.02588 58.312 1.07764 58.2327 1.14355 58.1659C1.20654 58.1016 1.28174 58.0509 1.36523 58.0169C1.44824 57.983 1.53711 57.9665 1.62695 57.9684L3.04248 57.9684C3.13086 57.967 3.21875 57.9838 3.30078 58.0178C3.38281 58.0517 3.45703 58.1021 3.51904 58.1659C3.58447 58.2327 3.63672 58.312 3.67139 58.3991C3.70605 58.4864 3.72363 58.5797 3.72217 58.6737L3.72217 66.3401L10.0278 66.3401C10.1182 66.3377 10.2085 66.3547 10.2915 66.39C10.375 66.4252 10.4497 66.4779 10.5117 66.5446C10.6367 66.6753 10.707 66.8496 10.7075 67.0312L10.7075 67.7365C10.7051 67.9156 10.6353 68.087 10.5117 68.216C10.4487 68.2803 10.373 68.3311 10.29 68.3651C10.207 68.399 10.1177 68.4155 10.0278 68.4135L1.64111 68.4135C1.46143 68.4147 1.28857 68.3465 1.15771 68.2231C1.08643 68.1629 1.02979 68.0872 0.992188 68.0016C0.95459 67.9161 0.937012 67.8229 0.94043 67.7294Z" fill="#84C551" fill-opacity="1.000000" fill-rule="nonzero"/>
	<path id="Vector" d="M12.3613 67.4826C11.6406 66.6264 11.2446 65.5405 11.2446 64.4182C11.2446 63.2958 11.6406 62.21 12.3613 61.3538C13.2505 60.6629 14.3418 60.2882 15.4653 60.2882C16.5884 60.2882 17.6802 60.6629 18.5693 61.3538C18.9551 61.7441 19.2539 62.2126 19.4463 62.7282C19.6382 63.2438 19.7192 63.7946 19.6831 64.3441L19.6831 64.7602C19.6851 64.8809 19.6401 64.9974 19.5571 65.0847C19.5146 65.1269 19.4644 65.16 19.4092 65.1819C19.3535 65.2037 19.2944 65.2138 19.2349 65.2116L13.7905 65.2116C13.7954 65.6931 13.9775 66.1557 14.3022 66.5093C14.7017 66.8181 15.2017 66.9641 15.7036 66.9184C15.9404 66.9467 16.1807 66.9223 16.4072 66.8467C16.6333 66.7711 16.8403 66.6463 17.0137 66.4811C17.1172 66.3458 17.25 66.2357 17.4014 66.1588C17.5532 66.0819 17.7197 66.0402 17.8896 66.0368L18.9688 66.0368C19.0278 66.0346 19.0874 66.0447 19.1431 66.0666C19.1982 66.0884 19.2485 66.1215 19.291 66.1638C19.3325 66.2065 19.3652 66.2572 19.3867 66.313C19.4087 66.3687 19.4189 66.4283 19.417 66.4882C19.417 67.8987 18.0996 68.604 15.4653 68.604C14.3247 68.6539 13.21 68.2512 12.3613 67.4826ZM13.7627 63.6459L17.126 63.6459C17.0767 62.5034 16.5234 61.9321 15.4512 61.9321C14.3794 61.9321 13.8467 62.5034 13.7837 63.6459L13.7627 63.6459Z" fill="#84C551" fill-opacity="1.000000" fill-rule="nonzero"/>
	<path id="Vector" d="M24.7627 66.8196L25.7578 66.7279L26.0239 66.7279C26.0835 66.7261 26.1426 66.7365 26.1982 66.7583C26.2534 66.7801 26.3037 66.813 26.3462 66.8549C26.3877 66.8963 26.4204 66.9458 26.4419 67.0004C26.4639 67.055 26.4741 67.1135 26.4722 67.1722L26.4722 67.9551C26.4717 68.0083 26.4604 68.0608 26.4385 68.1094C26.417 68.1579 26.3853 68.2014 26.3462 68.2372C26.2593 68.3243 26.146 68.379 26.0239 68.3924C25.3877 68.503 24.7427 68.5526 24.0972 68.5405C22.0327 68.5405 20.998 67.4497 20.9932 65.268L20.9932 58.4128C20.9912 58.2921 21.0366 58.1756 21.1196 58.0883C21.1606 58.0475 21.2104 58.0158 21.2646 57.9952C21.3188 57.9745 21.377 57.9654 21.4346 57.9684L23.0532 57.9684C23.1113 57.9654 23.1689 57.9745 23.2231 57.9952C23.2773 58.0158 23.3271 58.0475 23.3687 58.0883C23.4512 58.1756 23.4966 58.2921 23.4946 58.4128L23.4946 60.8459L25.5054 60.8459C25.6221 60.8431 25.7354 60.8861 25.8208 60.9658C25.8628 61.0083 25.8955 61.0591 25.9175 61.1149C25.939 61.1707 25.9492 61.2304 25.9468 61.2903L25.9468 62.1507C25.9492 62.2106 25.939 62.2703 25.9175 62.3261C25.8955 62.3819 25.8628 62.4326 25.8208 62.4751C25.7793 62.5159 25.73 62.5476 25.6758 62.5683C25.6211 62.5889 25.5635 62.598 25.5054 62.595L23.4946 62.595L23.4946 65.261C23.4668 65.6712 23.5889 66.0776 23.8379 66.4035C23.9502 66.5394 24.0918 66.6476 24.2524 66.7197C24.4126 66.7919 24.5874 66.826 24.7627 66.8196Z" fill="#84C551" fill-opacity="1.000000" fill-rule="nonzero"/>
	<path id="Vector" d="M29.2539 57.9684C29.8706 57.9684 30.186 58.1941 30.186 58.6737C30.1797 58.8272 30.144 58.9782 30.0806 59.118L29.2188 61.3114C29.1235 61.545 28.9688 61.7492 28.7705 61.9038C28.5723 62.0644 28.3242 62.1494 28.0698 62.1436L27.7827 62.1436C27.4814 62.1436 27.292 62.0802 27.208 61.9532C27.1328 61.8353 27.0913 61.6985 27.0889 61.5583C27.0815 61.4267 27.0815 61.2949 27.0889 61.1633L27.5166 58.8218C27.5693 58.5801 27.7119 58.3681 27.9155 58.2294C28.1177 58.0757 28.3633 57.9916 28.6162 57.9896L29.2539 57.9684Z" fill="#84C551" fill-opacity="1.000000" fill-rule="nonzero"/>
	<path id="Vector" d="M31.2163 62.6303C31.2163 61.0552 32.4727 60.27 34.9858 60.2747C37.6206 60.2747 38.9448 60.98 38.9448 62.3905C38.9458 62.4492 38.9351 62.5074 38.9131 62.5617C38.8911 62.616 38.8589 62.6654 38.8174 62.7068C38.7764 62.7483 38.7271 62.781 38.6733 62.803C38.6191 62.825 38.5615 62.8358 38.5034 62.8349L37.4243 62.8349C37.2544 62.836 37.0869 62.797 36.9346 62.721C36.7827 62.6451 36.6504 62.5343 36.5483 62.3976C36.3613 62.2254 36.1387 62.097 35.8965 62.0214C35.6538 61.9458 35.3979 61.925 35.147 61.9603C34.2129 61.9603 33.7456 62.1954 33.7456 62.6656C33.7456 62.8842 33.9351 63.0606 34.3062 63.2087C34.7607 63.3791 35.23 63.5066 35.7075 63.5895C36.249 63.7008 36.7847 63.8397 37.312 64.0056C37.8369 64.1593 38.3174 64.4375 38.7134 64.8167C38.8979 65.0007 39.0425 65.2209 39.1387 65.4635C39.2354 65.7061 39.2812 65.966 39.2739 66.2272C39.2739 67.7929 37.9473 68.5758 35.2944 68.5758C32.6411 68.5758 31.3169 67.8705 31.3213 66.46C31.3193 66.4002 31.3296 66.3406 31.3516 66.285C31.3735 66.2293 31.4062 66.1788 31.4482 66.1364C31.4902 66.0941 31.5405 66.0609 31.5962 66.0389C31.6514 66.017 31.7104 66.0067 31.77 66.0086L32.8491 66.0086C33.019 66.0089 33.187 66.0492 33.3389 66.1263C33.4912 66.2035 33.623 66.3153 33.7246 66.4529C33.9131 66.6235 34.1357 66.7509 34.3774 66.8264C34.6196 66.9019 34.875 66.9237 35.126 66.8902C36.2261 66.8902 36.7798 66.6574 36.7798 66.1849C36.7798 65.9663 36.5903 65.7829 36.2192 65.6418C35.7632 65.4728 35.2944 65.3407 34.8179 65.2469C34.271 65.1341 33.7388 64.993 33.2061 64.8308C32.6943 64.6758 32.2275 64.3973 31.8472 64.0197C31.6509 63.8456 31.4937 63.632 31.3848 63.3926C31.2764 63.1532 31.2188 62.8935 31.2163 62.6303Z" fill="#84C551" fill-opacity="1.000000" fill-rule="nonzero"/>
	<path id="Vector" d="M46.2593 66.7914C45.9126 66.4243 45.644 65.9896 45.4707 65.5141C45.2974 65.0387 45.2222 64.5324 45.2505 64.0267C45.2231 63.5096 45.312 62.993 45.5112 62.5154C45.7104 62.0379 46.0137 61.6118 46.3994 61.2691C47.3423 60.5485 48.5117 60.1953 49.6929 60.2746C50.4253 60.2803 51.1553 60.3607 51.8716 60.5144C52.4639 60.6158 53.0361 60.811 53.5674 61.0928L53.5674 67.8282C53.6021 68.2848 53.5234 68.7429 53.3389 69.1615C53.1543 69.58 52.8691 69.9459 52.5093 70.2261C51.6196 70.7932 50.5757 71.0645 49.5244 71.0019C48.5161 71.0497 47.5088 70.8838 46.5679 70.5152C46.2524 70.39 45.9834 70.1696 45.7974 69.8841C45.6118 69.5987 45.5186 69.2623 45.5308 68.9213C45.5283 68.8614 45.5386 68.8017 45.5605 68.7459C45.582 68.6901 45.6147 68.6394 45.6567 68.5969C45.6992 68.555 45.7495 68.5221 45.8052 68.5003C45.8604 68.4785 45.9199 68.4682 45.979 68.47L47.0581 68.47C47.2168 68.465 47.3745 68.4967 47.519 68.5627C47.6636 68.6287 47.791 68.7273 47.8921 68.8508C48.0732 69.0346 48.2935 69.1752 48.5361 69.2619C48.7783 69.3485 49.0376 69.3792 49.2935 69.3516C49.7852 69.4048 50.2803 69.2852 50.6948 69.013C50.8354 68.8526 50.9409 68.6643 51.0049 68.4602C51.0688 68.2562 51.0898 68.0408 51.0659 67.8282L51.0659 67.4896C50.3618 67.6784 49.6367 67.7779 48.9077 67.7858C48.4229 67.8072 47.9385 67.7302 47.4834 67.5594C47.0283 67.3885 46.6123 67.1274 46.2593 66.7914ZM49.5454 62.0378C48.4033 62.0378 47.8291 62.6937 47.8291 64.0267C47.8291 65.3597 48.3896 66.0226 49.5034 66.0226C50.0312 66.0148 50.5562 65.9413 51.0659 65.804L51.0659 62.2C50.5688 62.0763 50.0571 62.0217 49.5454 62.0378Z" fill="#84C551" fill-opacity="1.000000" fill-rule="nonzero"/>
	<path id="Vector" d="M60.8262 62.2706L59.7119 62.2283C59.3408 62.2549 58.98 62.3657 58.6572 62.5526C58.3345 62.7395 58.0581 62.9975 57.8481 63.3073L57.8481 67.9551C57.8501 68.0139 57.8398 68.0723 57.8179 68.1269C57.7964 68.1815 57.7637 68.2311 57.7222 68.2725C57.6807 68.3133 57.6313 68.345 57.5771 68.3657C57.5229 68.3863 57.4648 68.3954 57.4067 68.3924L55.7886 68.3924C55.7305 68.3967 55.6719 68.3883 55.6177 68.3676C55.563 68.3468 55.5137 68.3144 55.4731 68.2725C55.4316 68.2311 55.3989 68.1815 55.3774 68.1269C55.3555 68.0723 55.3452 68.0139 55.3472 67.9551L55.3472 60.9024C55.3447 60.8425 55.355 60.7828 55.3765 60.727C55.3984 60.6711 55.4312 60.6204 55.4731 60.5779C55.5142 60.5362 55.5635 60.5034 55.6177 60.4816C55.6719 60.4597 55.73 60.4493 55.7886 60.451L57.4067 60.451C57.4653 60.4489 57.5234 60.4591 57.5776 60.481C57.6323 60.5028 57.6812 60.5359 57.7222 60.5779C57.7642 60.6204 57.7969 60.6711 57.8188 60.727C57.8403 60.7828 57.8506 60.8425 57.8481 60.9024L57.8481 61.3608C58.2773 61.0327 58.749 60.7646 59.2495 60.5638C59.8257 60.3729 60.4302 60.2846 61.0361 60.3029C61.1558 60.303 61.271 60.3484 61.3589 60.4298C61.3994 60.4717 61.4316 60.5213 61.4531 60.5758C61.4751 60.6303 61.4858 60.6885 61.4849 60.7472L61.4849 61.8545C61.4878 61.9134 61.478 61.9723 61.4561 62.027C61.4346 62.0818 61.4014 62.1312 61.3589 62.1718C61.3164 62.2138 61.2656 62.2466 61.2104 62.2685C61.1553 62.2903 61.0957 62.3006 61.0361 62.2988L60.8262 62.2706Z" fill="#84C551" fill-opacity="1.000000" fill-rule="nonzero"/>
	<path id="Vector" d="M63.2153 67.4968C62.4873 66.6357 62.0874 65.5419 62.0874 64.4111C62.0874 63.2804 62.4873 62.1866 63.2153 61.3256C64.1592 60.642 65.293 60.2742 66.4561 60.2742C67.6187 60.2742 68.7524 60.642 69.6963 61.3256C70.4243 62.1866 70.8242 63.2804 70.8242 64.4111C70.8242 65.5419 70.4243 66.6357 69.6963 67.4968C68.749 68.1724 67.6167 68.5352 66.4561 68.5352C65.2949 68.5352 64.1626 68.1724 63.2153 67.4968ZM65.0439 62.5175C64.749 63.1021 64.5957 63.7485 64.5957 64.4041C64.5957 65.0597 64.749 65.7061 65.0439 66.2907C65.416 66.6646 65.9199 66.8745 66.4453 66.8745C66.9707 66.8745 67.4751 66.6646 67.8467 66.2907C68.1416 65.7061 68.2949 65.0597 68.2949 64.4041C68.2949 63.7485 68.1416 63.1021 67.8467 62.5175C67.4712 62.1504 66.9688 61.9451 66.4453 61.9451C65.9219 61.9451 65.4194 62.1504 65.0439 62.5175Z" fill="#84C551" fill-opacity="1.000000" fill-rule="nonzero"/>
	<path id="Vector" d="M71.4058 61.0646C71.3706 60.9619 71.3472 60.8554 71.3359 60.7472C71.3359 60.5356 71.4619 60.4299 71.7002 60.4228L73.0454 60.4228C73.2607 60.4204 73.4717 60.479 73.6553 60.5921C73.8267 60.7033 73.9551 60.87 74.0195 61.0646L75.2036 64.9859L76.3735 61.0646C76.4136 60.8763 76.5186 60.7083 76.6699 60.5907C76.8213 60.4731 77.0093 60.4136 77.2007 60.4228L78.4756 60.4228C78.6675 60.4106 78.8569 60.469 79.0093 60.5871C79.1611 60.7052 79.2656 60.8749 79.3027 61.0646L80.4727 64.9859L81.6567 61.0646C81.7217 60.8681 81.853 60.7008 82.0283 60.5921C82.2104 60.4772 82.4224 60.4184 82.6377 60.4228L83.9761 60.4228C84.2144 60.4228 84.3335 60.5356 84.3403 60.7472C84.3369 60.8558 84.3159 60.9631 84.2773 61.0646L82.084 67.7577C82.022 67.9497 81.896 68.1141 81.7271 68.2231C81.5601 68.3329 81.3652 68.3917 81.1665 68.3924L80.1504 68.3924C79.9478 68.3918 79.7505 68.3304 79.583 68.2161C79.4155 68.1103 79.291 67.9478 79.2324 67.7577L77.8311 63.4202L76.4297 67.7577C76.3682 67.9483 76.2417 68.1106 76.0723 68.2161C75.9077 68.3311 75.7124 68.3926 75.5117 68.3924L74.5098 68.3924C74.313 68.392 74.1206 68.3331 73.9565 68.2231C73.7856 68.1145 73.6572 67.9503 73.5923 67.7577L71.4058 61.0646Z" fill="#84C551" fill-opacity="1.000000" fill-rule="nonzero"/>
	<path id="Vector" d="M94.3247 66.8196L95.3198 66.7279L95.5859 66.7279C95.6455 66.7261 95.7046 66.7365 95.7603 66.7583C95.8154 66.7801 95.8657 66.813 95.9082 66.8549C95.9497 66.8963 95.9824 66.9458 96.0039 67.0004C96.0259 67.055 96.0361 67.1135 96.0342 67.1722L96.0342 67.9551C96.0337 68.0083 96.0225 68.0608 96.0005 68.1094C95.979 68.1579 95.9473 68.2014 95.9082 68.2372C95.8213 68.3243 95.708 68.379 95.5859 68.3924C94.9497 68.503 94.3047 68.5526 93.6592 68.5405C91.5947 68.5405 90.5601 67.4497 90.5552 65.268L90.5552 58.4128C90.5532 58.2921 90.5986 58.1756 90.6812 58.0883C90.7227 58.0475 90.7725 58.0158 90.8267 57.9952C90.8809 57.9745 90.939 57.9654 90.9966 57.9684L92.6152 57.9684C92.6729 57.9654 92.731 57.9745 92.7852 57.9952C92.8394 58.0158 92.8892 58.0475 92.9307 58.0883C93.0132 58.1756 93.0586 58.2921 93.0566 58.4128L93.0566 60.8459L95.0747 60.8459C95.1885 60.8449 95.2988 60.8878 95.3828 60.9658C95.4258 61.008 95.4595 61.0585 95.4824 61.1143C95.5054 61.17 95.5166 61.2299 95.5161 61.2903L95.5161 62.1507C95.5166 62.2111 95.5054 62.2709 95.4824 62.3267C95.4595 62.3825 95.4258 62.433 95.3828 62.4751C95.3423 62.515 95.2939 62.5463 95.2407 62.5669C95.188 62.5875 95.1313 62.597 95.0747 62.595L93.0566 62.595L93.0566 65.261C93.0288 65.6712 93.1509 66.0776 93.3999 66.4035C93.5122 66.5394 93.6538 66.6476 93.8145 66.7197C93.9746 66.7919 94.1494 66.826 94.3247 66.8196Z" fill="#84C551" fill-opacity="1.000000" fill-rule="nonzero"/>
	<path id="Vector" d="M97.8281 67.4968C97.1001 66.6357 96.7002 65.5419 96.7002 64.4111C96.7002 63.2804 97.1001 62.1866 97.8281 61.3256C98.7725 60.642 99.9058 60.2742 101.069 60.2742C102.232 60.2742 103.365 60.642 104.31 61.3256C105.038 62.1866 105.437 63.2804 105.437 64.4111C105.437 65.5419 105.038 66.6357 104.31 67.4968C103.362 68.1724 102.229 68.5352 101.069 68.5352C99.9077 68.5352 98.7754 68.1724 97.8281 67.4968ZM99.6567 62.5175C99.3623 63.1021 99.2085 63.7485 99.2085 64.4041C99.2085 65.0597 99.3623 65.7061 99.6567 66.2907C99.8247 66.4977 100.04 66.6605 100.284 66.765C100.528 66.8694 100.794 66.9124 101.058 66.8902C101.322 66.9106 101.587 66.8668 101.832 66.7625C102.075 66.6581 102.291 66.4964 102.459 66.2907C102.759 65.7075 102.915 65.0605 102.915 64.4041C102.915 63.7477 102.759 63.1007 102.459 62.5175C102.289 62.3153 102.072 62.1568 101.829 62.0551C101.585 61.9533 101.321 61.9112 101.058 61.9321C100.795 61.9088 100.53 61.9499 100.286 62.0518C100.042 62.1538 99.8262 62.3135 99.6567 62.5175Z" fill="#84C551" fill-opacity="1.000000" fill-rule="nonzero"/>
	<path id="Vector" d="M107.322 66.7914C106.976 66.4244 106.707 65.9897 106.534 65.5142C106.36 65.0387 106.285 64.5325 106.313 64.0267C106.286 63.5096 106.375 62.993 106.574 62.5155C106.773 62.0379 107.077 61.6118 107.462 61.2691C108.407 60.5469 109.579 60.1936 110.763 60.2747C111.493 60.2808 112.221 60.3611 112.935 60.5145C113.528 60.6173 114.103 60.8124 114.637 61.0928L114.637 67.8282C114.671 68.2854 114.592 68.7439 114.406 69.1625C114.22 69.5811 113.934 69.9467 113.572 70.2261C112.685 70.7922 111.643 71.0635 110.594 71.0019C109.586 71.051 108.578 70.8851 107.638 70.5152C107.322 70.3909 107.052 70.1707 106.866 69.885C106.681 69.5994 106.587 69.2625 106.601 68.9213C106.599 68.8615 106.609 68.8019 106.631 68.7463C106.653 68.6906 106.686 68.6401 106.728 68.5977C106.77 68.5555 106.82 68.5223 106.875 68.5003C106.931 68.4783 106.99 68.468 107.049 68.47L108.142 68.47C108.301 68.4639 108.459 68.4951 108.604 68.5612C108.749 68.6274 108.876 68.7265 108.976 68.8508C109.158 69.0338 109.378 69.1738 109.621 69.2604C109.863 69.347 110.122 69.3782 110.377 69.3516C110.869 69.4085 111.366 69.2885 111.778 69.013C111.92 68.8532 112.028 68.6652 112.093 68.4611C112.158 68.2569 112.18 68.0413 112.157 67.8282L112.157 67.4897C111.45 67.6786 110.723 67.778 109.992 67.7858C109.503 67.8101 109.015 67.7345 108.556 67.5636C108.097 67.3927 107.678 67.1301 107.322 66.7914ZM110.608 62.0379C109.466 62.0379 108.899 62.6938 108.899 64.0267C108.899 65.3597 109.452 66.0227 110.566 66.0227C111.097 66.0149 111.624 65.9415 112.136 65.804L112.136 62.2001C111.636 62.0765 111.123 62.0219 110.608 62.0379Z" fill="#84C551" fill-opacity="1.000000" fill-rule="nonzero"/>
	<path id="Vector" d="M117.076 67.4826C116.354 66.6264 115.959 65.5405 115.959 64.4182C115.959 63.2958 116.354 62.21 117.076 61.3538C117.965 60.6629 119.056 60.2882 120.18 60.2882C121.303 60.2882 122.395 60.6629 123.284 61.3538C123.669 61.7441 123.968 62.2126 124.161 62.7282C124.353 63.2438 124.433 63.7946 124.397 64.3441L124.397 64.7602C124.399 64.8809 124.354 64.9974 124.271 65.0847C124.229 65.1269 124.179 65.16 124.124 65.1819C124.068 65.2037 124.009 65.2138 123.949 65.2116L118.505 65.2116C118.509 65.6931 118.692 66.1557 119.017 66.5093C119.416 66.8181 119.916 66.9641 120.418 66.9184C120.655 66.9467 120.895 66.9223 121.121 66.8467C121.348 66.7711 121.555 66.6463 121.728 66.4811C121.832 66.3458 121.964 66.2357 122.116 66.1588C122.268 66.0819 122.434 66.0402 122.604 66.0368L123.683 66.0368C123.742 66.0348 123.801 66.0452 123.857 66.0672C123.912 66.0891 123.962 66.1223 124.004 66.1646C124.046 66.2069 124.079 66.2575 124.101 66.3131C124.123 66.3688 124.133 66.4283 124.131 66.4882C124.131 67.8987 122.814 68.604 120.18 68.604C119.039 68.6539 117.924 68.2512 117.076 67.4826ZM118.477 63.6459L121.84 63.6459C121.791 62.5034 121.23 61.9321 120.166 61.9321C119.101 61.9321 118.561 62.5034 118.498 63.6459L118.477 63.6459Z" fill="#84C551" fill-opacity="1.000000" fill-rule="nonzero"/>
	<path id="Vector" d="M129.505 66.8196L130.494 66.7279L130.767 66.7279C130.887 66.7259 131.002 66.7715 131.089 66.8549C131.13 66.8963 131.163 66.9458 131.185 67.0004C131.207 67.055 131.217 67.1135 131.215 67.1722L131.215 67.9551C131.214 68.0083 131.203 68.0608 131.181 68.1094C131.16 68.1579 131.128 68.2014 131.089 68.2372C131.001 68.3229 130.888 68.3774 130.767 68.3924C130.13 68.5027 129.485 68.5523 128.84 68.5405C126.771 68.5405 125.736 67.4497 125.736 65.268L125.736 58.4128C125.734 58.2921 125.779 58.1756 125.862 58.0883C125.903 58.0475 125.953 58.0158 126.007 57.9952C126.062 57.9745 126.12 57.9654 126.177 57.9684L127.796 57.9684C127.854 57.9654 127.912 57.9745 127.966 57.9952C128.02 58.0158 128.07 58.0475 128.111 58.0883C128.194 58.1756 128.239 58.2921 128.237 58.4128L128.237 60.8459L130.248 60.8459C130.365 60.8431 130.478 60.8861 130.563 60.9659C130.605 61.0083 130.638 61.0591 130.66 61.1149C130.682 61.1707 130.692 61.2304 130.689 61.2903L130.689 62.1507C130.692 62.2106 130.682 62.2703 130.66 62.3261C130.638 62.3819 130.605 62.4326 130.563 62.4751C130.522 62.5159 130.473 62.5477 130.418 62.5683C130.364 62.5889 130.306 62.598 130.248 62.595L128.237 62.595L128.237 65.261C128.209 65.6712 128.332 66.0776 128.581 66.4035C128.693 66.5394 128.834 66.6476 128.995 66.7197C129.155 66.7919 129.33 66.826 129.505 66.8196Z" fill="#84C551" fill-opacity="1.000000" fill-rule="nonzero"/>
	<path id="Vector" d="M132.399 67.9551L132.399 58.4128C132.397 58.2921 132.442 58.1756 132.525 58.0883C132.567 58.0475 132.616 58.0158 132.67 57.9952C132.725 57.9745 132.783 57.9654 132.841 57.9684L134.459 57.9684C134.517 57.9654 134.575 57.9745 134.629 57.9952C134.684 58.0158 134.733 58.0475 134.774 58.0883C134.857 58.1756 134.902 58.2921 134.9 58.4128L134.9 61.3326C135.626 60.667 136.568 60.2908 137.549 60.2747C137.968 60.2584 138.386 60.3268 138.778 60.4757C139.171 60.6248 139.529 60.8513 139.833 61.1422C140.15 61.4985 140.393 61.9162 140.544 62.3697C140.696 62.8232 140.754 63.3029 140.716 63.7799L140.716 67.9551C140.718 68.0128 140.707 68.0702 140.686 68.1237C140.664 68.1771 140.631 68.2254 140.59 68.2654C140.548 68.3077 140.498 68.3408 140.442 68.3626C140.387 68.3845 140.327 68.3946 140.268 68.3924L138.656 68.3924C138.598 68.394 138.54 68.3836 138.485 68.3618C138.431 68.34 138.382 68.3072 138.341 68.2654C138.299 68.2254 138.267 68.1771 138.245 68.1237C138.224 68.0702 138.213 68.0128 138.215 67.9551L138.215 63.7799C138.215 62.6162 137.752 62.0379 136.813 62.0379C136.439 62.0754 136.075 62.187 135.743 62.3661C135.412 62.5452 135.118 62.7883 134.879 63.0817L134.879 67.9551C134.881 68.0128 134.871 68.0702 134.849 68.1237C134.827 68.1771 134.794 68.2254 134.753 68.2654C134.712 68.3072 134.663 68.34 134.609 68.3618C134.555 68.3836 134.497 68.394 134.438 68.3924L132.819 68.3924C132.761 68.394 132.703 68.3836 132.649 68.3618C132.595 68.34 132.545 68.3072 132.504 68.2654C132.467 68.2236 132.438 68.1745 132.42 68.1212C132.402 68.0678 132.395 68.0113 132.399 67.9551Z" fill="#84C551" fill-opacity="1.000000" fill-rule="nonzero"/>
	<path id="Vector" d="M143.175 67.4826C142.456 66.6258 142.061 65.5401 142.061 64.4182C142.061 63.2962 142.456 62.2106 143.175 61.3538C144.027 60.5945 145.144 60.2064 146.279 60.2747C147.408 60.2059 148.52 60.5829 149.376 61.3256C149.762 61.7159 150.061 62.1844 150.253 62.7C150.445 63.2156 150.526 63.7664 150.49 64.3159L150.49 64.7321C150.492 64.8527 150.447 64.9693 150.364 65.0565C150.322 65.0988 150.271 65.1318 150.216 65.1536C150.161 65.1755 150.102 65.1856 150.042 65.1834L144.577 65.1834C144.579 65.6641 144.759 66.1267 145.081 66.4811C145.481 66.7886 145.981 66.9346 146.482 66.8902C146.721 66.9177 146.961 66.8928 147.189 66.8173C147.417 66.7418 147.625 66.6175 147.8 66.4529C147.902 66.3165 148.035 66.2055 148.187 66.1285C148.338 66.0515 148.506 66.0105 148.676 66.0086L149.748 66.0086C149.807 66.0064 149.867 66.0165 149.922 66.0384C149.978 66.0602 150.028 66.0933 150.07 66.1355C150.112 66.1783 150.145 66.229 150.166 66.2848C150.188 66.3405 150.198 66.4001 150.196 66.46C150.196 67.8705 148.879 68.5757 146.245 68.5757C145.12 68.6241 144.02 68.2324 143.175 67.4826ZM144.577 63.6459L147.933 63.6459C147.884 62.5034 147.331 61.9321 146.258 61.9321C145.187 61.9321 144.64 62.5034 144.577 63.6459Z" fill="#84C551" fill-opacity="1.000000" fill-rule="nonzero"/>
	<path id="Vector" d="M157.294 62.2706L156.18 62.2283C155.809 62.2554 155.448 62.3665 155.125 62.5533C154.803 62.7401 154.526 62.9979 154.316 63.3074L154.316 67.9551C154.317 68.0139 154.307 68.0724 154.286 68.127C154.264 68.1815 154.231 68.2311 154.19 68.2725C154.148 68.3133 154.099 68.345 154.044 68.3657C153.99 68.3863 153.933 68.3954 153.875 68.3924L152.284 68.3924C152.226 68.3967 152.167 68.3883 152.113 68.3676C152.059 68.3469 152.009 68.3144 151.969 68.2725C151.927 68.2311 151.895 68.1815 151.873 68.127C151.851 68.0724 151.841 68.0139 151.843 67.9551L151.843 60.9024C151.84 60.8425 151.851 60.7828 151.872 60.727C151.894 60.6712 151.927 60.6204 151.969 60.5779C152.01 60.5362 152.059 60.5034 152.113 60.4816C152.167 60.4598 152.226 60.4493 152.284 60.451L153.902 60.451C153.961 60.448 154.02 60.4579 154.074 60.4798C154.128 60.5017 154.177 60.5352 154.218 60.5779C154.26 60.6204 154.292 60.6712 154.314 60.727C154.336 60.7828 154.346 60.8425 154.344 60.9024L154.344 61.3608C154.773 61.0327 155.245 60.7646 155.745 60.5639C156.321 60.3735 156.926 60.2852 157.532 60.3029C157.651 60.303 157.767 60.3484 157.854 60.4299C157.895 60.4718 157.927 60.5214 157.949 60.5758C157.971 60.6303 157.981 60.6885 157.98 60.7472L157.98 61.8545C157.983 61.9134 157.974 61.9723 157.952 62.0271C157.93 62.0818 157.897 62.1313 157.854 62.1719C157.812 62.2138 157.761 62.2466 157.706 62.2685C157.65 62.2903 157.591 62.3006 157.532 62.2988L157.294 62.2706Z" fill="#84C551" fill-opacity="1.000000" fill-rule="nonzero"/>
	<path id="Vector" d="M54.7441 36.6198L54.7441 36.6621L52.5161 45.1748C52.4434 45.5062 52.4033 45.844 52.397 46.1833C52.4312 46.6746 52.626 47.1407 52.9507 47.5092C53.1787 47.7782 53.4678 47.9878 53.7935 48.1204C54.1191 48.253 54.4717 48.3046 54.8213 48.2709L61.4146 48.2709C62.3154 48.2591 63.186 47.9438 63.8877 47.3752C64.6421 46.8236 65.1743 46.0177 65.3872 45.1042L67.6157 36.6409L67.6157 36.6057L54.7441 36.6198Z" fill="#21603F" fill-opacity="1.000000" fill-rule="nonzero"/>
	<path id="Vector" d="M101.612 0.0372009C101.451 0.0231934 101.289 0.0231934 101.128 0.0372009L88.7827 0.0372009L81.3276 0.0372009C74.3208 0.291107 69.0542 2.02609 65.5273 5.24216C65.3594 5.39026 65.1982 5.53833 65.0439 5.70056C63.0161 7.74826 61.5864 10.3172 60.9102 13.1271L54.7583 36.6127L75.0776 36.6127C82.0518 36.3589 87.3018 34.638 90.8286 31.4501C90.9966 31.302 91.1577 31.1469 91.3188 30.9917C93.3784 28.9406 94.8335 26.3555 95.5229 23.5229L101.675 0.0372009L101.612 0.0372009ZM83.3525 20.3702C82.9404 21.9775 82.0996 23.4408 80.9209 24.6019C80.7598 24.757 80.5918 24.9122 80.4165 25.0603L80.1226 25.2931C78.751 26.3437 77.105 26.9687 75.3857 27.0915L70.0957 27.0915L73.0317 16.2867C73.4346 14.6853 74.2603 13.2232 75.4209 12.0551C75.582 11.8999 75.75 11.7448 75.9253 11.5966L76.2617 11.3216C77.6328 10.271 79.2793 9.64597 80.998 9.52313L86.2949 9.52313L83.3525 20.3702Z" fill="#84C551" fill-opacity="1.000000" fill-rule="nonzero"/>
	<path id="Vector" d="M98.6479 23.6498C97.6255 28.0061 95.0342 31.8258 91.375 34.37L91.375 36.5916L91.375 45.0548C91.3594 45.4743 91.4302 45.8926 91.582 46.2835C91.7344 46.6743 91.9648 47.0294 92.2593 47.3266C92.5537 47.6237 92.9062 47.8566 93.2939 48.0106C93.6821 48.1646 94.0977 48.2364 94.5142 48.2216L100.82 48.2216C101.234 48.2281 101.645 48.1523 102.03 47.9986C102.415 47.8449 102.766 47.6163 103.062 47.3259C103.363 47.0458 103.601 46.705 103.762 46.3258C103.922 45.9466 104.001 45.5376 103.994 45.1254L103.994 3.24619L98.6479 23.6498Z" fill="#1F1B1C" fill-opacity="1.000000" fill-rule="nonzero"/>
</svg>
