<svg width="106.000000" height="48.000000" viewBox="0 0 106 48" fill="none" xmlns="http://www.w3.org/2000/svg" xmlns:xlink="http://www.w3.org/1999/xlink">
	<desc>
			Created with Pixso.
	</desc>
	<defs>
		<clipPath id="clip44_780">
			<rect width="106.000000" height="48.000000" fill="white" fill-opacity="0"/>
		</clipPath>
	</defs>
	<rect width="106.000000" height="48.000000" fill="#FFFFFF" fill-opacity="0"/>
	<g clip-path="url(#clip44_780)">
		<path d="M0 30.5394L0 2.20285C-0.00683594 1.91193 0.0449219 1.62265 0.152588 1.35287C0.26001 1.08307 0.420898 0.83847 0.625244 0.634155C0.820068 0.429993 1.05396 0.268433 1.31274 0.159363C1.57129 0.0503235 1.84937 -0.00393677 2.12939 -3.05176e-05L14.6707 -3.05176e-05C21.1641 -3.05176e-05 25.8865 1.31598 28.8384 3.94794C31.7905 6.57993 33.2681 10.7122 33.2715 16.3449C33.2715 21.9648 31.7939 26.0876 28.8384 28.7132C25.8833 31.3388 21.1609 32.6516 14.6707 32.6516L2.12939 32.6516C1.85156 32.6566 1.57568 32.6056 1.31738 32.5016C1.05933 32.3977 0.823975 32.2429 0.625244 32.0461C0.420166 31.8554 0.258301 31.622 0.150391 31.362C0.0424805 31.102 -0.00878906 30.8214 0 30.5394ZM8.46118 26.1909L14.4263 26.1909C18.4502 26.1909 21.1875 25.4471 22.6384 23.9594C24.0894 22.4718 24.8147 19.9289 24.8147 16.3306C24.8147 12.7259 24.0894 10.183 22.6384 8.70169C21.1875 7.2204 18.4502 6.47345 14.4263 6.46072L8.46118 6.46072L8.46118 26.1909Z" fill="#FFFFFF" fill-opacity="1.000000" fill-rule="nonzero"/>
		<path d="M45.3613 24.7557L45.3613 24.7796L49.1689 24.7796C49.5776 24.7796 49.9775 24.7796 50.3721 24.7557L45.3613 24.7557Z" fill="#84C551" fill-opacity="1.000000" fill-rule="nonzero"/>
		<path d="M73.2642 4.30078L73.2642 2.15994C73.2554 1.87378 73.3042 1.58875 73.4077 1.32248C73.5117 1.05624 73.668 0.814423 73.8677 0.611969C74.0674 0.409515 74.3057 0.250763 74.5684 0.145508C74.8306 0.0402222 75.1118 -0.00930786 75.3936 0L103.866 0C104.148 -0.0100098 104.429 0.0390625 104.692 0.144073C104.955 0.249084 105.193 0.407806 105.393 0.610413C105.593 0.812988 105.75 1.05511 105.853 1.32169C105.957 1.58826 106.005 1.8736 105.995 2.15994L105.995 4.30078C106.003 4.58481 105.955 4.86761 105.851 5.13168C105.748 5.39575 105.592 5.6355 105.394 5.83612C105.191 6.03494 104.952 6.19055 104.689 6.29376C104.427 6.39697 104.147 6.44562 103.866 6.43686L93.8579 6.43686L93.8579 30.5394C93.8633 30.8172 93.8115 31.0932 93.7056 31.3494C93.5996 31.6057 93.4414 31.8365 93.2422 32.027C93.0464 32.224 92.8135 32.3792 92.5576 32.4832C92.3018 32.5872 92.0278 32.638 91.752 32.6325L87.5215 32.6325C87.2451 32.6383 86.9702 32.5877 86.7134 32.4837C86.4565 32.3797 86.2231 32.2244 86.0269 32.027C85.8271 31.8365 85.6694 31.6057 85.5635 31.3494C85.457 31.0932 85.4053 30.8172 85.4106 30.5394L85.4106 6.45117L75.4033 6.45117C75.1226 6.45984 74.8433 6.4111 74.5815 6.30789C74.3198 6.20465 74.0811 6.04907 73.8799 5.8504C73.6768 5.64987 73.5166 5.40845 73.4106 5.1416C73.3047 4.87473 73.2549 4.58835 73.2642 4.30078Z" fill="#FFFFFF" fill-opacity="1.000000" fill-rule="nonzero"/>
		<path d="M0.629639 45.7876L0.629639 39.6654C0.628662 39.6019 0.640381 39.5388 0.663574 39.4798C0.687012 39.4209 0.721924 39.3673 0.766113 39.3222C0.80835 39.2787 0.858887 39.2444 0.914551 39.2214C0.970459 39.1985 1.03027 39.1873 1.09033 39.1886L2.03979 39.1886C2.09937 39.1877 2.15845 39.199 2.21338 39.222C2.26831 39.2449 2.31812 39.2791 2.35962 39.3222C2.40381 39.3673 2.43848 39.4209 2.46191 39.4798C2.48535 39.5388 2.49683 39.6019 2.49585 39.6654L2.49585 44.8483L6.72656 44.8483C6.78711 44.8467 6.84741 44.8582 6.90332 44.8821C6.95923 44.9059 7.00952 44.9416 7.05078 44.9866C7.13477 45.075 7.18188 45.1928 7.18237 45.3156L7.18237 45.7924C7.18066 45.9135 7.13379 46.0294 7.05078 46.1166C7.00854 46.1601 6.95801 46.1944 6.9021 46.2173C6.84644 46.2403 6.78662 46.2514 6.72656 46.2501L1.09985 46.2501C0.979492 46.2509 0.863281 46.2048 0.775391 46.1214C0.727783 46.0807 0.689697 46.0295 0.664307 45.9717C0.63916 45.9138 0.627197 45.8509 0.629639 45.7876Z" fill="#84C551" fill-opacity="1.000000" fill-rule="nonzero"/>
		<path d="M8.29224 45.6207C7.80859 45.0419 7.54297 44.3077 7.54297 43.549C7.54297 42.7902 7.80859 42.0561 8.29224 41.4773C8.88867 41.0102 9.62085 40.7569 10.3745 40.7569C11.1282 40.7569 11.8604 41.0102 12.457 41.4773C12.7158 41.7411 12.9165 42.0579 13.0452 42.4065C13.1741 42.755 13.2283 43.1274 13.2043 43.4989L13.2043 43.7802C13.2056 43.8618 13.1753 43.9406 13.1196 43.9996C13.0913 44.0281 13.0576 44.0505 13.0203 44.0653C12.9832 44.08 12.9434 44.0869 12.9036 44.0854L9.25098 44.0854C9.25415 44.4109 9.37646 44.7236 9.59424 44.9627C9.86206 45.1715 10.1978 45.2702 10.5344 45.2393C10.6931 45.2584 10.8545 45.2419 11.0063 45.1908C11.1582 45.1397 11.2971 45.0553 11.4133 44.9436C11.4829 44.8522 11.5718 44.7777 11.6736 44.7257C11.7751 44.6738 11.887 44.6456 12.001 44.6432L12.7249 44.6432C12.7646 44.6418 12.8047 44.6486 12.8418 44.6634C12.8789 44.6782 12.9128 44.7005 12.9412 44.7291C12.969 44.758 12.991 44.7923 13.0054 44.83C13.02 44.8677 13.0269 44.908 13.0256 44.9484C13.0256 45.902 12.1418 46.3788 10.3745 46.3788C9.60938 46.4125 8.86157 46.1404 8.29224 45.6207ZM9.23218 43.0269L11.4885 43.0269C11.4556 42.2545 11.0842 41.8683 10.365 41.8683C9.646 41.8683 9.28857 42.2545 9.24634 43.0269L9.23218 43.0269Z" fill="#84C551" fill-opacity="1.000000" fill-rule="nonzero"/>
		<path d="M16.6121 45.1725L17.2795 45.1105L17.4583 45.1105C17.498 45.1093 17.5376 45.1163 17.575 45.1311C17.6121 45.1458 17.646 45.168 17.6743 45.1964C17.7021 45.2244 17.7241 45.2578 17.7385 45.2947C17.7532 45.3316 17.76 45.3712 17.759 45.4109L17.759 45.9402C17.7585 45.9761 17.7507 46.0117 17.7363 46.0445C17.7217 46.0773 17.7007 46.1067 17.6743 46.1309C17.6162 46.1898 17.5398 46.2267 17.4583 46.2358C17.0312 46.3106 16.5986 46.3441 16.1655 46.3359C14.7803 46.3359 14.0862 45.5985 14.083 44.1236L14.083 39.489C14.0818 39.4074 14.1121 39.3286 14.1677 39.2697C14.1956 39.2421 14.2288 39.2207 14.2651 39.2067C14.3015 39.1927 14.3403 39.1866 14.3792 39.1886L15.4651 39.1886C15.5039 39.1866 15.5427 39.1927 15.5791 39.2067C15.6155 39.2207 15.6487 39.2421 15.6765 39.2697C15.7322 39.3286 15.7625 39.4074 15.7612 39.489L15.7612 41.134L17.1104 41.134C17.1885 41.1321 17.2644 41.1611 17.3218 41.215C17.3501 41.2437 17.3721 41.278 17.3867 41.3158C17.4011 41.3535 17.408 41.3939 17.4065 41.4344L17.4065 42.0161C17.408 42.0566 17.4011 42.0969 17.3867 42.1346C17.3721 42.1724 17.3501 42.2067 17.3218 42.2354C17.2939 42.263 17.2607 42.2844 17.2244 42.2984C17.188 42.3123 17.1492 42.3185 17.1104 42.3164L15.7612 42.3164L15.7612 44.1188C15.7424 44.3961 15.8245 44.6708 15.9915 44.8912C16.0669 44.9831 16.1621 45.0562 16.2695 45.105C16.3772 45.1537 16.4944 45.1768 16.6121 45.1725Z" fill="#84C551" fill-opacity="1.000000" fill-rule="nonzero"/>
		<path d="M19.625 39.1886C20.0388 39.1886 20.2502 39.3412 20.2502 39.6654C20.2461 39.7692 20.2222 39.8712 20.1797 39.9658L19.6016 41.4487C19.5376 41.6065 19.4338 41.7446 19.3008 41.8492C19.1677 41.9577 19.0012 42.0152 18.8306 42.0113L18.6379 42.0113C18.4358 42.0113 18.3088 41.9684 18.2524 41.8825C18.2019 41.8028 18.1743 41.7104 18.1726 41.6155C18.1677 41.5266 18.1677 41.4375 18.1726 41.3485L18.4595 39.7655C18.4949 39.6022 18.5906 39.4588 18.7273 39.3651C18.8628 39.2611 19.0276 39.2043 19.1973 39.2029L19.625 39.1886Z" fill="#84C551" fill-opacity="1.000000" fill-rule="nonzero"/>
		<path d="M20.9414 42.3403C20.9414 41.2755 21.7844 40.7446 23.4705 40.7478C25.2378 40.7478 26.1262 41.2246 26.1262 42.1782C26.127 42.2178 26.1196 42.2572 26.105 42.2939C26.0903 42.3307 26.0686 42.364 26.041 42.3921C26.0132 42.4201 25.9805 42.4422 25.9441 42.457C25.908 42.4719 25.8691 42.4792 25.8301 42.4786L25.1062 42.4786C24.9922 42.4793 24.8799 42.453 24.7778 42.4016C24.6758 42.3503 24.5869 42.2754 24.5186 42.183C24.3931 42.0666 24.2437 41.9797 24.0811 41.9286C23.9187 41.8775 23.7471 41.8634 23.5784 41.8874C22.9517 41.8874 22.6384 42.0463 22.6384 42.3642C22.6384 42.512 22.7654 42.6312 23.0144 42.7313C23.3193 42.8466 23.634 42.9327 23.9546 42.9888C24.3179 43.064 24.677 43.1579 25.031 43.2701C25.3831 43.374 25.7056 43.562 25.9712 43.8184C26.0947 43.9428 26.1919 44.0917 26.2566 44.2557C26.3213 44.4197 26.3521 44.5955 26.3472 44.772C26.3472 45.8305 25.4573 46.3598 23.6772 46.3598C21.8972 46.3598 21.0088 45.883 21.012 44.9294C21.0105 44.8889 21.0176 44.8487 21.0322 44.8111C21.0469 44.7734 21.0688 44.7393 21.0972 44.7107C21.1252 44.682 21.1589 44.6596 21.196 44.6447C21.2332 44.6299 21.2729 44.6229 21.3127 44.6242L22.0366 44.6242C22.1509 44.6244 22.2634 44.6517 22.3655 44.7038C22.4675 44.756 22.5562 44.8316 22.6243 44.9246C22.7505 45.0399 22.8999 45.126 23.0623 45.1771C23.2246 45.2281 23.396 45.2429 23.5645 45.2202C24.3025 45.2202 24.6738 45.0629 24.6738 44.7434C24.6738 44.5956 24.5469 44.4716 24.2976 44.3763C23.9919 44.262 23.6775 44.1727 23.3577 44.1093C22.991 44.033 22.6338 43.9376 22.2764 43.828C21.9331 43.7231 21.6199 43.5349 21.3645 43.2796C21.2329 43.1619 21.1274 43.0175 21.0544 42.8557C20.9814 42.6938 20.9431 42.5182 20.9414 42.3403Z" fill="#84C551" fill-opacity="1.000000" fill-rule="nonzero"/>
		<path d="M31.0337 45.1535C30.8013 44.9053 30.6211 44.6114 30.5049 44.29C30.3882 43.9685 30.3379 43.6263 30.3569 43.2844C30.3384 42.9348 30.3984 42.5855 30.5317 42.2627C30.6655 41.9398 30.8691 41.6518 31.1279 41.4201C31.7603 40.9329 32.5449 40.6941 33.3369 40.7478C33.8286 40.7516 34.3184 40.8059 34.7988 40.9099C35.1963 40.9784 35.5801 41.1104 35.9365 41.3009L35.9365 45.8544C35.96 46.1631 35.9072 46.4728 35.7832 46.7558C35.6597 47.0387 35.4683 47.2861 35.2266 47.4755C34.6299 47.8589 33.9297 48.0424 33.2241 48C32.5479 48.0323 31.8721 47.9202 31.2407 47.671C31.0293 47.5863 30.8486 47.4373 30.7241 47.2443C30.5996 47.0514 30.5371 46.8239 30.5449 46.5934C30.5435 46.5529 30.5503 46.5125 30.5649 46.4748C30.5796 46.4371 30.6016 46.4028 30.6294 46.3741C30.6582 46.3457 30.6919 46.3235 30.729 46.3088C30.7661 46.294 30.8062 46.2871 30.8457 46.2883L31.5698 46.2883C31.6763 46.2849 31.7817 46.3063 31.8789 46.351C31.9761 46.3956 32.0615 46.4622 32.1289 46.5457C32.251 46.67 32.3984 46.765 32.561 46.8236C32.7236 46.8822 32.8975 46.903 33.0693 46.8843C33.3994 46.9203 33.7314 46.8394 34.0093 46.6554C34.104 46.5469 34.1748 46.4197 34.2178 46.2817C34.2607 46.1437 34.2744 45.9981 34.2583 45.8544L34.2583 45.6255C33.7861 45.7532 33.2998 45.8204 32.8105 45.8257C32.4854 45.8402 32.1602 45.7881 31.855 45.6727C31.5498 45.5572 31.2705 45.3806 31.0337 45.1535ZM33.2383 41.9398C32.4722 41.9398 32.0869 42.3832 32.0869 43.2844C32.0869 44.1855 32.4629 44.6338 33.2104 44.6338C33.5645 44.6284 33.9165 44.5788 34.2583 44.4859L34.2583 42.0494C33.9248 41.9658 33.582 41.9289 33.2383 41.9398Z" fill="#84C551" fill-opacity="1.000000" fill-rule="nonzero"/>
		<path d="M40.8066 42.0972L40.0591 42.0685C39.8101 42.0865 39.5679 42.1615 39.3516 42.2878C39.1348 42.4142 38.9492 42.5886 38.8086 42.798L38.8086 45.9402C38.8096 45.9799 38.8027 46.0195 38.7881 46.0564C38.7739 46.0933 38.752 46.1268 38.7241 46.1548C38.6963 46.1824 38.6631 46.2038 38.6265 46.2178C38.5903 46.2317 38.5513 46.2378 38.5127 46.2358L37.4268 46.2358C37.3877 46.2387 37.3486 46.233 37.312 46.2191C37.2754 46.205 37.2427 46.1831 37.2153 46.1548C37.1875 46.1268 37.1655 46.0933 37.1509 46.0564C37.1362 46.0195 37.1294 45.9799 37.1304 45.9402L37.1304 41.1721C37.1289 41.1317 37.1357 41.0913 37.1504 41.0536C37.165 41.0158 37.187 40.9815 37.2153 40.9528C37.2427 40.9246 37.2759 40.9024 37.312 40.8877C37.3486 40.8729 37.3877 40.8659 37.4268 40.867L38.5127 40.867C38.5518 40.8656 38.5908 40.8725 38.6274 40.8873C38.6636 40.902 38.6968 40.9244 38.7241 40.9528C38.7524 40.9815 38.7744 41.0158 38.7891 41.0536C38.8032 41.0913 38.8101 41.1317 38.8086 41.1721L38.8086 41.4821C39.0967 41.2602 39.4131 41.079 39.749 40.9433C40.1353 40.8142 40.541 40.7545 40.9473 40.7668C41.0278 40.767 41.105 40.7976 41.1636 40.8527C41.1909 40.881 41.2129 40.9146 41.2271 40.9514C41.2417 40.9882 41.249 41.0276 41.2485 41.0672L41.2485 41.8158C41.2505 41.8557 41.2437 41.8955 41.229 41.9325C41.2144 41.9695 41.1924 42.0029 41.1636 42.0304C41.1353 42.0587 41.1016 42.081 41.0645 42.0957C41.0273 42.1104 40.9873 42.1174 40.9473 42.1162L40.8066 42.0972Z" fill="#84C551" fill-opacity="1.000000" fill-rule="nonzero"/>
		<path d="M42.4097 45.6303C41.9209 45.0482 41.6528 44.3087 41.6528 43.5443C41.6528 42.7798 41.9209 42.0403 42.4097 41.4582C43.043 40.9961 43.8032 40.7474 44.5835 40.7474C45.3638 40.7474 46.1245 40.9961 46.7578 41.4582C47.2461 42.0403 47.5142 42.7798 47.5142 43.5443C47.5142 44.3087 47.2461 45.0482 46.7578 45.6303C46.1221 46.087 45.3623 46.3323 44.5835 46.3323C43.8047 46.3323 43.0449 46.087 42.4097 45.6303ZM43.6362 42.264C43.4385 42.6592 43.3354 43.0962 43.3354 43.5395C43.3354 43.9827 43.4385 44.4197 43.6362 44.8149C43.8857 45.0677 44.2241 45.2096 44.5767 45.2096C44.9292 45.2096 45.2671 45.0677 45.5166 44.8149C45.7144 44.4197 45.8174 43.9827 45.8174 43.5395C45.8174 43.0962 45.7144 42.6592 45.5166 42.264C45.2646 42.0159 44.9277 41.877 44.5767 41.877C44.2256 41.877 43.8882 42.0159 43.6362 42.264Z" fill="#84C551" fill-opacity="1.000000" fill-rule="nonzero"/>
		<path d="M47.9043 41.2818C47.8809 41.2124 47.8647 41.1404 47.8574 41.0673C47.8574 40.9242 47.9419 40.8527 48.1021 40.8479L49.0044 40.8479C49.1484 40.8463 49.2905 40.8859 49.4136 40.9624C49.5283 41.0376 49.6143 41.1502 49.6577 41.2818L50.4521 43.9329L51.2373 41.2818C51.2637 41.1545 51.3345 41.0409 51.436 40.9614C51.5376 40.8819 51.6636 40.8417 51.792 40.8479L52.6475 40.8479C52.7759 40.8397 52.9033 40.8792 53.0054 40.959C53.1074 41.0388 53.1772 41.1535 53.2021 41.2818L53.9873 43.9329L54.7817 41.2818C54.8252 41.149 54.9131 41.0359 55.0308 40.9624C55.1533 40.8847 55.2954 40.8449 55.4395 40.8479L56.3374 40.8479C56.4971 40.8479 56.5771 40.9242 56.582 41.0673C56.5796 41.1407 56.5654 41.2132 56.5396 41.2818L55.0684 45.8067C55.0264 45.9366 54.9419 46.0477 54.8286 46.1214C54.7168 46.1956 54.5859 46.2354 54.4526 46.2358L53.771 46.2358C53.6353 46.2354 53.5024 46.1939 53.3901 46.1166C53.2778 46.0451 53.1943 45.9352 53.1553 45.8067L52.2148 42.8744L51.2749 45.8067C51.2334 45.9355 51.1484 46.0453 51.0352 46.1166C50.9248 46.1944 50.7935 46.236 50.6592 46.2358L49.9868 46.2358C49.8545 46.2355 49.7256 46.1957 49.6152 46.1214C49.501 46.0479 49.4146 45.9369 49.3711 45.8067L47.9043 41.2818Z" fill="#84C551" fill-opacity="1.000000" fill-rule="nonzero"/>
		<path d="M63.2803 45.1725L63.9478 45.1105L64.1265 45.1105C64.1665 45.1093 64.2061 45.1163 64.2432 45.1311C64.2803 45.1458 64.3145 45.168 64.3428 45.1964C64.3706 45.2244 64.3926 45.2578 64.4072 45.2947C64.4214 45.3316 64.4287 45.3712 64.4272 45.4109L64.4272 45.9402C64.4268 45.9761 64.4194 46.0117 64.4048 46.0445C64.3901 46.0773 64.3691 46.1067 64.3428 46.1309C64.2847 46.1898 64.2085 46.2267 64.1265 46.2358C63.6997 46.3106 63.2671 46.3441 62.834 46.3359C61.4487 46.3359 60.7549 45.5985 60.7515 44.1236L60.7515 39.489C60.75 39.4074 60.7808 39.3286 60.8359 39.2697C60.8638 39.2421 60.897 39.2207 60.9336 39.2067C60.9697 39.1927 61.0088 39.1866 61.0479 39.1886L62.1333 39.1886C62.1724 39.1866 62.2114 39.1927 62.2476 39.2067C62.2842 39.2207 62.3174 39.2421 62.3452 39.2697C62.4004 39.3286 62.4312 39.4074 62.4297 39.489L62.4297 41.134L63.7832 41.134C63.8599 41.1333 63.9341 41.1623 63.9902 41.215C64.019 41.2435 64.042 41.2776 64.0571 41.3154C64.0728 41.3531 64.0801 41.3936 64.0796 41.4344L64.0796 42.0161C64.0801 42.0569 64.0728 42.0974 64.0571 42.1351C64.042 42.1728 64.019 42.2069 63.9902 42.2354C63.9629 42.2624 63.9307 42.2835 63.895 42.2974C63.8594 42.3113 63.8213 42.3178 63.7832 42.3164L62.4297 42.3164L62.4297 44.1188C62.4111 44.3961 62.4927 44.6708 62.6602 44.8912C62.7354 44.9831 62.8306 45.0562 62.938 45.105C63.0454 45.1537 63.1626 45.1768 63.2803 45.1725Z" fill="#84C551" fill-opacity="1.000000" fill-rule="nonzero"/>
		<path d="M65.6309 45.6303C65.1421 45.0482 64.874 44.3087 64.874 43.5443C64.874 42.7798 65.1421 42.0403 65.6309 41.4582C66.2642 40.9961 67.0244 40.7474 67.8047 40.7474C68.585 40.7474 69.3457 40.9961 69.979 41.4582C70.4673 42.0403 70.7354 42.7798 70.7354 43.5443C70.7354 44.3087 70.4673 45.0482 69.979 45.6303C69.3433 46.087 68.5835 46.3323 67.8047 46.3323C67.0259 46.3323 66.2661 46.087 65.6309 45.6303ZM66.8574 42.264C66.6597 42.6592 66.5566 43.0962 66.5566 43.5395C66.5566 43.9827 66.6597 44.4197 66.8574 44.8149C66.9702 44.9549 67.1143 45.0649 67.2783 45.1356C67.4419 45.2062 67.6206 45.2353 67.7979 45.2202C67.9751 45.234 68.1528 45.2044 68.3164 45.1339C68.48 45.0634 68.6245 44.9539 68.7378 44.8149C68.9385 44.4206 69.0435 43.9832 69.0435 43.5395C69.0435 43.0957 68.9385 42.6583 68.7378 42.264C68.623 42.1273 68.478 42.0202 68.3149 41.9514C68.1514 41.8826 67.9741 41.8542 67.7979 41.8683C67.6211 41.8526 67.4434 41.8803 67.2798 41.9492C67.1162 42.0181 66.9712 42.1261 66.8574 42.264Z" fill="#84C551" fill-opacity="1.000000" fill-rule="nonzero"/>
		<path d="M72 45.1535C71.7676 44.9053 71.5874 44.6114 71.4712 44.29C71.3545 43.9685 71.3042 43.6263 71.3232 43.2844C71.3047 42.9348 71.3647 42.5855 71.498 42.2627C71.6318 41.9398 71.8354 41.6518 72.0942 41.4201C72.7275 40.9319 73.5142 40.693 74.3081 40.7478C74.7979 40.7519 75.2861 40.8062 75.7651 40.9099C76.1636 40.9794 76.5493 41.1113 76.9077 41.3009L76.9077 45.8544C76.9302 46.1635 76.877 46.4735 76.7524 46.7565C76.6274 47.0395 76.4355 47.2866 76.1934 47.4755C75.5977 47.8582 74.8989 48.0417 74.1953 48C73.5186 48.0331 72.8428 47.921 72.2114 47.671C71.9995 47.5869 71.8188 47.438 71.6943 47.2449C71.5693 47.0518 71.5073 46.8241 71.5161 46.5934C71.5146 46.5529 71.5215 46.5127 71.5361 46.4751C71.5508 46.4374 71.5728 46.4033 71.6011 46.3747C71.6294 46.3461 71.6631 46.3236 71.7002 46.3088C71.7373 46.2939 71.7769 46.287 71.8169 46.2883L72.5503 46.2883C72.6567 46.2842 72.7627 46.3053 72.8599 46.35C72.957 46.3947 73.0425 46.4617 73.1094 46.5457C73.2314 46.6695 73.3794 46.7641 73.542 46.8227C73.7046 46.8812 73.8779 46.9023 74.0498 46.8843C74.3799 46.9228 74.7129 46.8416 74.9897 46.6554C75.085 46.5473 75.1567 46.4202 75.2007 46.2822C75.2441 46.1443 75.2588 45.9985 75.2437 45.8544L75.2437 45.6255C74.7695 45.7532 74.2817 45.8205 73.791 45.8257C73.4634 45.8422 73.1357 45.7911 72.8276 45.6755C72.52 45.56 72.2383 45.3824 72 45.1535ZM74.2046 41.9398C73.4385 41.9398 73.0576 42.3832 73.0576 43.2844C73.0576 44.1855 73.4292 44.6338 74.1768 44.6338C74.5322 44.6285 74.8857 44.5789 75.2295 44.486L75.2295 42.0495C74.8945 41.9659 74.5498 41.929 74.2046 41.9398Z" fill="#84C551" fill-opacity="1.000000" fill-rule="nonzero"/>
		<path d="M78.5435 45.6207C78.0601 45.0419 77.7944 44.3077 77.7944 43.549C77.7944 42.7902 78.0601 42.0561 78.5435 41.4773C79.1401 41.0102 79.8726 40.7569 80.626 40.7569C81.3794 40.7569 82.1118 41.0102 82.7085 41.4773C82.9673 41.7411 83.168 42.0579 83.2969 42.4065C83.4253 42.755 83.48 43.1274 83.4556 43.4989L83.4556 43.7802C83.457 43.8618 83.4268 43.9406 83.3711 43.9996C83.3428 44.0281 83.3091 44.0505 83.272 44.0653C83.2344 44.08 83.1948 44.0869 83.1548 44.0854L79.5024 44.0854C79.5054 44.4109 79.6279 44.7236 79.8457 44.9627C80.1138 45.1715 80.4492 45.2702 80.7856 45.2393C80.9448 45.2584 81.106 45.2419 81.2578 45.1908C81.4097 45.1397 81.5488 45.0553 81.665 44.9436C81.7344 44.8522 81.8232 44.7777 81.9248 44.7257C82.0269 44.6738 82.1387 44.6456 82.2524 44.6432L82.9761 44.6432C83.0161 44.6419 83.0557 44.6489 83.0928 44.6638C83.1299 44.6786 83.1636 44.7011 83.1919 44.7297C83.2202 44.7583 83.2422 44.7924 83.2568 44.8301C83.2715 44.8677 83.2783 44.908 83.2769 44.9484C83.2769 45.902 82.3936 46.3788 80.626 46.3788C79.8608 46.4125 79.1128 46.1404 78.5435 45.6207ZM79.4839 43.0269L81.7402 43.0269C81.707 42.2545 81.3311 41.8683 80.6167 41.8683C79.9019 41.8683 79.54 42.2545 79.4976 43.0269L79.4839 43.0269Z" fill="#84C551" fill-opacity="1.000000" fill-rule="nonzero"/>
		<path d="M86.8823 45.1725L87.5454 45.1105L87.7285 45.1105C87.8091 45.1092 87.8867 45.14 87.9448 45.1964C87.9727 45.2244 87.9946 45.2578 88.0093 45.2947C88.0234 45.3316 88.0308 45.3712 88.0293 45.4109L88.0293 45.9402C88.0293 45.9761 88.0215 46.0117 88.0068 46.0445C87.9922 46.0773 87.9712 46.1067 87.9448 46.1309C87.8862 46.1888 87.8101 46.2257 87.7285 46.2358C87.3018 46.3104 86.8691 46.3439 86.436 46.3359C85.0479 46.3359 84.3535 45.5985 84.3535 44.1236L84.3535 39.489C84.3521 39.4074 84.3828 39.3286 84.438 39.2697C84.4658 39.2421 84.499 39.2207 84.5356 39.2067C84.5718 39.1927 84.6108 39.1866 84.6499 39.1886L85.7354 39.1886C85.7744 39.1866 85.8135 39.1927 85.8496 39.2067C85.8862 39.2207 85.9194 39.2421 85.9473 39.2697C86.0024 39.3286 86.0332 39.4074 86.0317 39.489L86.0317 41.134L87.3809 41.134C87.459 41.1321 87.5347 41.1611 87.5923 41.215C87.6206 41.2437 87.6426 41.278 87.6572 41.3158C87.6719 41.3535 87.6782 41.3939 87.6768 41.4344L87.6768 42.0161C87.6782 42.0566 87.6719 42.0969 87.6572 42.1346C87.6426 42.1724 87.6206 42.2067 87.5923 42.2354C87.5645 42.263 87.5312 42.2844 87.4951 42.2984C87.4585 42.3123 87.4199 42.3185 87.3809 42.3164L86.0317 42.3164L86.0317 44.1188C86.0132 44.3961 86.0947 44.6709 86.2622 44.8912C86.3374 44.9831 86.4326 45.0562 86.54 45.105C86.6475 45.1538 86.7646 45.1768 86.8823 45.1725Z" fill="#84C551" fill-opacity="1.000000" fill-rule="nonzero"/>
		<path d="M88.8237 45.9402L88.8237 39.489C88.8223 39.4074 88.8525 39.3286 88.9082 39.2697C88.936 39.2421 88.9692 39.2207 89.0054 39.2067C89.042 39.1927 89.0811 39.1866 89.1196 39.1886L90.2056 39.1886C90.2446 39.1866 90.2832 39.1927 90.3198 39.2067C90.356 39.2207 90.3892 39.2421 90.417 39.2697C90.4727 39.3286 90.5029 39.4074 90.5015 39.489L90.5015 41.463C90.9883 41.013 91.6201 40.7587 92.2783 40.7478C92.5596 40.7368 92.8398 40.783 93.1035 40.8837C93.3667 40.9844 93.6069 41.1376 93.811 41.3342C94.0239 41.5752 94.186 41.8575 94.2881 42.1641C94.3896 42.4707 94.4292 42.7951 94.4033 43.1175L94.4033 45.9402C94.4043 45.9792 94.3975 46.018 94.3828 46.0541C94.3682 46.0902 94.3462 46.1229 94.3188 46.15C94.2905 46.1786 94.2563 46.2009 94.2192 46.2157C94.1821 46.2305 94.1421 46.2373 94.1025 46.2358L93.0215 46.2358C92.9819 46.2369 92.9434 46.2299 92.9067 46.2151C92.8706 46.2003 92.8374 46.1782 92.8096 46.15C92.7822 46.1229 92.7603 46.0902 92.7456 46.0541C92.731 46.018 92.7241 45.9792 92.7251 45.9402L92.7251 43.1175C92.7251 42.3308 92.415 41.9398 91.7852 41.9398C91.5337 41.9652 91.2896 42.0406 91.0669 42.1617C90.8442 42.2828 90.6475 42.4471 90.4878 42.6454L90.4878 45.9402C90.4888 45.9792 90.4814 46.018 90.4673 46.0541C90.4526 46.0902 90.4307 46.1229 90.4028 46.15C90.3755 46.1782 90.3423 46.2003 90.3062 46.2151C90.2695 46.2299 90.2305 46.2369 90.1914 46.2358L89.1055 46.2358C89.0664 46.2369 89.0273 46.2299 88.9912 46.2151C88.9546 46.2003 88.9219 46.1782 88.894 46.15C88.8691 46.1217 88.8496 46.0885 88.8374 46.0524C88.8257 46.0164 88.8208 45.9781 88.8237 45.9402Z" fill="#84C551" fill-opacity="1.000000" fill-rule="nonzero"/>
		<path d="M96.0532 45.6208C95.5708 45.0415 95.3057 44.3075 95.3057 43.549C95.3057 42.7905 95.5708 42.0565 96.0532 41.4773C96.625 40.964 97.3735 40.7016 98.1357 40.7478C98.8931 40.7012 99.6382 40.9561 100.213 41.4582C100.472 41.7221 100.673 42.0388 100.802 42.3874C100.931 42.736 100.985 43.1084 100.961 43.4799L100.961 43.7612C100.962 43.8427 100.932 43.9216 100.876 43.9805C100.848 44.0091 100.814 44.0315 100.777 44.0462C100.74 44.061 100.7 44.0678 100.66 44.0663L96.9937 44.0663C96.9946 44.3913 97.1152 44.7041 97.332 44.9437C97.6001 45.1516 97.9355 45.2502 98.272 45.2202C98.4316 45.2388 98.5933 45.222 98.7461 45.171C98.8984 45.1199 99.0386 45.0359 99.1558 44.9246C99.2246 44.8324 99.3135 44.7574 99.415 44.7053C99.5171 44.6532 99.6294 44.6255 99.7432 44.6242L100.462 44.6242C100.502 44.6227 100.542 44.6296 100.58 44.6443C100.617 44.6591 100.65 44.6815 100.679 44.71C100.707 44.7389 100.729 44.7733 100.743 44.8109C100.758 44.8486 100.765 44.8889 100.763 44.9294C100.763 45.883 99.8799 46.3598 98.1123 46.3598C97.3574 46.3924 96.6196 46.1276 96.0532 45.6208ZM96.9937 43.0269L99.2451 43.0269C99.2124 42.2545 98.8408 41.8683 98.1216 41.8683C97.4023 41.8683 97.0356 42.2545 96.9937 43.0269Z" fill="#84C551" fill-opacity="1.000000" fill-rule="nonzero"/>
		<path d="M105.525 42.0971L104.778 42.0685C104.529 42.0868 104.287 42.1619 104.071 42.2882C103.854 42.4146 103.668 42.5888 103.528 42.798L103.528 45.9402C103.529 45.9799 103.522 46.0194 103.507 46.0563C103.493 46.0932 103.471 46.1267 103.443 46.1548C103.415 46.1823 103.382 46.2038 103.346 46.2177C103.309 46.2317 103.271 46.2378 103.231 46.2358L102.165 46.2358C102.125 46.2387 102.086 46.233 102.05 46.219C102.013 46.205 101.98 46.1831 101.953 46.1548C101.925 46.1267 101.903 46.0932 101.889 46.0563C101.874 46.0194 101.867 45.9799 101.868 45.9402L101.868 41.1721C101.867 41.1316 101.874 41.0912 101.888 41.0535C101.903 41.0158 101.925 40.9815 101.953 40.9528C101.98 40.9246 102.014 40.9024 102.05 40.8877C102.086 40.8729 102.125 40.8658 102.165 40.867L103.25 40.867C103.29 40.865 103.329 40.8716 103.365 40.8864C103.402 40.9012 103.435 40.9239 103.462 40.9528C103.49 40.9815 103.512 41.0158 103.527 41.0535C103.541 41.0912 103.548 41.1316 103.546 41.1721L103.546 41.482C103.834 41.2602 104.151 41.079 104.487 40.9433C104.873 40.8146 105.279 40.7549 105.685 40.7668C105.766 40.7669 105.843 40.7976 105.901 40.8527C105.929 40.881 105.95 40.9145 105.965 40.9514C105.979 40.9882 105.987 41.0276 105.986 41.0672L105.986 41.8158C105.988 41.8556 105.981 41.8954 105.967 41.9325C105.952 41.9695 105.93 42.0029 105.901 42.0304C105.873 42.0587 105.839 42.0809 105.802 42.0957C105.765 42.1104 105.725 42.1174 105.685 42.1162L105.525 42.0971Z" fill="#84C551" fill-opacity="1.000000" fill-rule="nonzero"/>
		<path d="M36.7261 24.7558L36.7261 24.7844L35.2314 30.5394C35.1826 30.7635 35.1558 30.9919 35.1514 31.2213C35.1743 31.5534 35.3052 31.8685 35.5229 32.1176C35.6758 32.2994 35.8696 32.4412 36.0884 32.5308C36.3066 32.6205 36.5435 32.6553 36.7778 32.6326L41.2012 32.6326C41.8057 32.6246 42.3896 32.4114 42.8604 32.027C43.3662 31.6541 43.7231 31.1093 43.8662 30.4917L45.3613 24.7701L45.3613 24.7462L36.7261 24.7558Z" fill="#21603F" fill-opacity="1.000000" fill-rule="nonzero"/>
		<path d="M68.1689 0.0238342C68.061 0.0143433 67.9526 0.0143433 67.8447 0.0238342L59.562 0.0238342L54.5605 0.0238342C49.8599 0.195496 46.3267 1.36844 43.9609 3.54266C43.8481 3.64279 43.7397 3.74289 43.6362 3.85257C42.2759 5.23691 41.3169 6.97369 40.8628 8.87335L36.7358 24.7509L50.3677 24.7509C55.0464 24.5793 58.5688 23.4159 60.9351 21.2607C61.0479 21.1606 61.1558 21.0557 61.2637 20.9508C62.6455 19.5641 63.6221 17.8164 64.0845 15.9014L68.2114 0.0238342L68.1689 0.0238342ZM55.9194 13.7701C55.6426 14.8567 55.0786 15.846 54.2881 16.631C54.1802 16.7358 54.0674 16.8408 53.9497 16.9409L53.7524 17.0982C52.832 17.8085 51.728 18.231 50.5747 18.3141L47.0254 18.3141L48.9951 11.0094C49.2656 9.92673 49.8193 8.93829 50.5981 8.14859C50.7061 8.0437 50.8188 7.93878 50.9365 7.83865L51.1621 7.65271C52.082 6.94247 53.1865 6.5199 54.3398 6.43683L57.8936 6.43683L55.9194 13.7701Z" fill="#84C551" fill-opacity="1.000000" fill-rule="nonzero"/>
		<path d="M66.1807 15.9873C65.4946 18.9324 63.7559 21.5147 61.3013 23.2347L61.3013 24.7366L61.3013 30.4583C61.2905 30.7419 61.3379 31.0247 61.4399 31.2889C61.542 31.5532 61.6968 31.7932 61.8945 31.9941C62.0918 32.195 62.3281 32.3525 62.5884 32.4566C62.8486 32.5607 63.1274 32.6092 63.4072 32.5992L67.6377 32.5992C67.9155 32.6036 68.1914 32.5524 68.4492 32.4485C68.7075 32.3445 68.9429 32.19 69.1421 31.9937C69.3438 31.8043 69.5034 31.5739 69.6113 31.3176C69.7188 31.0612 69.772 30.7846 69.7671 30.506L69.7671 2.1933L66.1807 15.9873Z" fill="#FFFFFF" fill-opacity="1.000000" fill-rule="nonzero"/>
	</g>
</svg>
