<svg width="20.000000" height="20.000000" viewBox="0 0 20 20" fill="none" xmlns="http://www.w3.org/2000/svg" xmlns:xlink="http://www.w3.org/1999/xlink">
	<desc>
			Created with Pixso.
	</desc>
	<defs>
		<clipPath id="clip111_6456">
			<rect id="placeholder-filled-point (23) 1" width="20.000000" height="20.000000" fill="white" fill-opacity="0"/>
		</clipPath>
	</defs>
	<rect id="placeholder-filled-point (23) 1" width="20.000000" height="20.000000" fill="#FFFFFF" fill-opacity="0"/>
	<g clip-path="url(#clip111_6456)">
		<path id="Vector" d="M10 0C5.93945 0 2.63672 3.30322 2.63672 7.36328C2.63672 8.42212 2.85352 9.43335 3.28125 10.3687C5.12109 14.397 8.65039 18.6501 9.68945 19.8574C9.76758 19.9478 9.88086 19.9998 10 19.9998C10.1191 19.9998 10.2324 19.9478 10.3105 19.8574C11.3477 18.6504 14.877 14.3975 16.7188 10.3687C17.1465 9.43335 17.3633 8.42212 17.3633 7.36328C17.3633 3.30322 14.0586 0 10 0ZM10 11.1877C7.89062 11.1877 6.17578 9.47192 6.17578 7.36304C6.17578 5.25391 7.89062 3.53809 10 3.53809C12.1074 3.53809 13.8242 5.25391 13.8242 7.36304C13.8242 9.47192 12.1094 11.1877 10 11.1877Z" fill="#8C3213" fill-opacity="1.000000" fill-rule="nonzero"/>
	</g>
</svg>
