<svg width="24.000000" height="24.000000" viewBox="0 0 24 24" fill="none" xmlns="http://www.w3.org/2000/svg" xmlns:xlink="http://www.w3.org/1999/xlink">
	<desc>
			Created with Pixso.
	</desc>
	<defs>
		<clipPath id="clip111_6855">
			<rect id="sapling 2" width="24.000000" height="24.000000" fill="white" fill-opacity="0"/>
		</clipPath>
	</defs>
	<rect id="sapling 2" width="24.000000" height="24.000000" fill="#FFFFFF" fill-opacity="0"/>
	<g clip-path="url(#clip111_6855)">
		<path id="Vector" d="M3.36719 19.1304L5.625 20.2585L5.625 22.7812C5.625 23.0402 5.83594 23.25 6.09375 23.25L11.0625 23.25C11.3203 23.25 11.5312 23.0402 11.5312 22.7812L11.5312 16.6617C11.5312 15.2256 10.4531 14.0346 9.02734 13.8917C9.02344 13.8902 7.04688 13.5815 6.12891 12.6641L5.07422 11.6119C4.72266 11.2576 4.25 11.0625 3.75 11.0625L3.75 7.3125C3.75 6.27863 2.91016 5.4375 1.875 5.4375C0.839844 5.4375 0 6.27863 0 7.3125L0 13.68C0 14.8124 0.316406 15.9202 0.910156 16.8835C1.50391 17.8469 2.35547 18.6238 3.36719 19.1304ZM0.9375 7.3125C0.9375 6.79553 1.35938 6.375 1.875 6.375C2.39062 6.375 2.8125 6.79553 2.8125 7.3125L2.8125 11.3138C2.24219 11.6443 1.875 12.2607 1.875 12.9375C1.875 13.4381 2.07031 13.9089 2.42578 14.2631L4.82422 16.6641C5.00781 16.8471 5.30469 16.8472 5.48828 16.6641C5.67188 16.4811 5.67188 16.1843 5.48828 16.0012L3.08594 13.6002C2.91016 13.4231 2.8125 13.1877 2.8125 12.9375C2.8125 12.5408 3.0625 12.1854 3.4375 12.0534C3.4375 12.0533 3.4375 12.0532 3.4375 12.0532L3.4375 12.0532C3.76172 11.9387 4.14453 12.0066 4.41406 12.2748L5.46484 13.3271C6.55078 14.4139 8.92578 14.8229 8.93359 14.8242C9.87891 14.9192 10.5938 15.7092 10.5938 16.6617L10.5938 22.3125L6.5625 22.3125L6.5625 19.9688C6.5625 19.7912 6.46094 19.6288 6.30469 19.5495L3.78906 18.2919C2.03125 17.4127 0.9375 15.6455 0.9375 13.68L0.9375 7.3125Z" fill="#84BE51" fill-opacity="1.000000" fill-rule="nonzero"/>
		<path id="Vector" d="M11.5312 11.5312C11.5312 11.7901 11.7422 12 12 12C12.2578 12 12.4688 11.7901 12.4688 11.5312L12.4688 10.125L14.2617 10.125C16.8906 10.125 19.0312 7.98602 19.0312 5.35687L19.0312 3.09375C19.0312 2.90417 18.918 2.73322 18.7422 2.66064C18.5664 2.58807 18.3633 2.62823 18.2305 2.76227C17.7148 3.27832 17.0273 3.5625 16.3008 3.5625C14.7305 3.5625 13.3398 4.32312 12.4688 5.49463L12.4688 1.21875C12.4688 0.959839 12.2578 0.75 12 0.75C11.7422 0.75 11.5312 0.959839 11.5312 1.21875L11.5312 3.61969C10.6602 2.44818 9.26953 1.6875 7.69922 1.6875C6.97266 1.6875 6.28516 1.40332 5.76953 0.887268C5.63672 0.753235 5.43359 0.713074 5.25781 0.785645C5.08203 0.858276 4.96875 1.02917 4.96875 1.21875L4.96875 3.48187C4.96875 6.11102 7.10938 8.25 9.73828 8.25L11.5312 8.25L11.5312 11.5312ZM16.3008 4.5C16.9375 4.5 17.5508 4.33789 18.0938 4.03314L18.0938 5.35687C18.0938 7.46912 16.375 9.1875 14.2617 9.1875L13.4062 9.1875L16.0312 7.21875C16.2383 7.06342 16.2812 6.76959 16.125 6.5625C15.9688 6.35541 15.6758 6.31335 15.4688 6.46875L12.4688 8.71875L12.4688 8.33063C12.4688 6.21844 14.1875 4.5 16.3008 4.5ZM5.90625 3.48187L5.90625 2.15814C6.44922 2.46289 7.0625 2.625 7.69922 2.625C9.8125 2.625 11.5312 4.34344 11.5312 6.45563L11.5312 6.84375L8.53125 4.59375C8.32422 4.43842 8.03125 4.48041 7.875 4.6875C7.71875 4.89459 7.76172 5.18842 7.96875 5.34375L10.5938 7.3125L9.73828 7.3125C7.625 7.3125 5.90625 5.59412 5.90625 3.48187Z" fill="#84BE51" fill-opacity="1.000000" fill-rule="nonzero"/>
		<path id="Vector" d="M21.9844 18C21.9844 18.2589 21.7734 18.4688 21.5156 18.4688C21.2578 18.4688 21.0469 18.2589 21.0469 18C21.0469 17.7411 21.2578 17.5312 21.5156 17.5312C21.7734 17.5312 21.9844 17.7411 21.9844 18Z" fill="#84BE51" fill-opacity="1.000000" fill-rule="evenodd"/>
		<path id="Vector" d="M22.125 5.4375C21.0898 5.4375 20.25 6.27863 20.25 7.3125L20.25 11.0625C19.75 11.0625 19.2773 11.2576 18.9258 11.6118L17.8711 12.6642C16.9727 13.5613 14.9805 13.8901 14.9766 13.8914C13.5469 14.0347 12.4688 15.2256 12.4688 16.6617L12.4688 22.7812C12.4688 23.0402 12.6797 23.25 12.9375 23.25L17.9062 23.25C18.1641 23.25 18.375 23.0402 18.375 22.7812L18.375 20.2585L19.9102 19.4915C20.1406 19.3757 20.2344 19.0942 20.1172 18.8626C20.0039 18.6311 19.7227 18.5372 19.4883 18.653L17.6953 19.5494C17.5391 19.6289 17.4375 19.7912 17.4375 19.9688L17.4375 22.3125L13.4062 22.3125L13.4062 16.6617C13.4062 15.7092 14.1211 14.9192 15.0703 14.8239C15.0781 14.8225 17.3867 14.473 18.5352 13.3271L19.5859 12.2747C19.8555 12.0063 20.2383 11.9388 20.5625 12.0532L20.5625 12.0532C20.5625 12.0532 20.5625 12.0533 20.5625 12.0533C20.9375 12.1855 21.1875 12.5408 21.1875 12.9375C21.1875 13.1877 21.0898 13.4231 20.9141 13.6003L18.5117 16.0012C18.3281 16.1843 18.3281 16.4811 18.5117 16.6642C18.6953 16.8472 18.9922 16.8472 19.1758 16.6641L21.5742 14.2632C21.9297 13.9089 22.125 13.4381 22.125 12.9375C22.125 12.2607 21.7578 11.6443 21.1875 11.3138L21.1875 7.3125C21.1875 6.79553 21.6094 6.375 22.125 6.375C22.6406 6.375 23.0625 6.79553 23.0625 7.3125L23.0625 13.68C23.0625 14.5376 22.8477 15.389 22.4375 16.1423C22.3125 16.3697 22.3984 16.6543 22.625 16.778C22.8516 16.9016 23.1367 16.8175 23.2617 16.59C23.7461 15.6999 24 14.6936 24 13.68L24 7.3125C24 6.27863 23.1602 5.4375 22.125 5.4375Z" fill="#84BE51" fill-opacity="1.000000" fill-rule="nonzero"/>
	</g>
</svg>
