<svg width="15.000000" height="15.000000" viewBox="0 0 15 15" fill="none" xmlns="http://www.w3.org/2000/svg" xmlns:xlink="http://www.w3.org/1999/xlink">
	<desc>
			Created with Pixso.
	</desc>
	<defs>
		<clipPath id="clip25_1169">
			<rect width="15.000000" height="15.000000" fill="white" fill-opacity="0"/>
		</clipPath>
	</defs>
	<rect width="15.000000" height="15.000000" fill="#FFFFFF" fill-opacity="0"/>
	<g clip-path="url(#clip25_1169)">
		<path d="M14.8169 13.9331L10.5513 9.66754C11.3774 8.64694 11.875 7.35007 11.875 5.93759C11.875 2.66385 9.21094 0.00012207 5.9375 0.00012207C2.66357 0.00012207 0 2.66382 0 5.93756C0 9.21127 2.66357 11.875 5.9375 11.875C7.3501 11.875 8.64697 11.3775 9.66748 10.5513L13.9331 14.8169C14.0547 14.9387 14.2148 15 14.375 15C14.5347 15 14.6948 14.9387 14.8169 14.8169C15.061 14.5725 15.061 14.1775 14.8169 13.9331ZM5.9375 10.625C3.35254 10.625 1.25 8.52252 1.25 5.93756C1.25 3.35257 3.35254 1.25009 5.9375 1.25009C8.52246 1.25009 10.625 3.35257 10.625 5.93756C10.625 8.52252 8.52246 10.625 5.9375 10.625Z" fill="#84BE51" fill-opacity="1.000000" fill-rule="nonzero"/>
	</g>
</svg>
