<svg width="24.000000" height="24.000000" viewBox="0 0 24 24" fill="none" xmlns="http://www.w3.org/2000/svg" xmlns:xlink="http://www.w3.org/1999/xlink">
	<desc>
			Created with Pixso.
	</desc>
	<defs>
		<clipPath id="clip91_3090">
			<rect id="seeds 2" width="24.000000" height="24.000000" fill="white" fill-opacity="0"/>
		</clipPath>
	</defs>
	<rect id="seeds 2" width="24.000000" height="24.000000" fill="#FFFFFF" fill-opacity="0"/>
	<g clip-path="url(#clip91_3090)">
		<path id="Vector" d="M19.7744 17.1734C19.6406 17.0325 19.4189 17.0267 19.2773 17.1603C17.6416 18.7125 15.7432 20.0925 14.4395 20.6761C13.1543 21.252 11.7441 21.3749 10.3994 21.0397C11.0264 20.6756 11.5918 20.2159 12.0762 19.6807C12.0762 19.6807 12.0762 19.6807 12.0762 19.6807C14.9102 19.3196 16.9463 17.2751 17.0312 17.1882C17.167 17.0496 17.165 16.827 17.0264 16.691C16.8877 16.555 16.665 16.5571 16.5293 16.6956C16.5117 16.7133 14.9385 18.2945 12.7227 18.8447C13.4434 17.7516 13.8633 16.4437 13.8633 15.0393C13.8633 14.7872 13.8496 14.5051 13.8223 14.2007C13.8047 14.0074 13.6338 13.8655 13.4404 13.8823C13.2471 13.8997 13.1045 14.0706 13.1221 14.264C13.1475 14.5474 13.1602 14.8082 13.1602 15.0393C13.1602 18.4738 10.3662 21.268 6.93164 21.268C3.49707 21.2679 0.703125 18.4738 0.703125 15.0392C0.703125 13.1668 1.50098 9.99127 2.60059 7.48846C3.92871 4.4657 5.50781 2.73206 6.93164 2.73206C8.22461 2.73206 9.36621 4.10626 10.0957 5.25922C10.2002 5.42334 10.417 5.47217 10.5811 5.36823C10.7451 5.2644 10.7939 5.04724 10.6904 4.88318C9.49121 2.98926 8.22656 2.02887 6.93164 2.02887C5.97461 2.02887 5.02441 2.56296 4.10547 3.61627C3.34082 4.49292 2.61816 5.7005 1.95703 7.20557C0.804688 9.82843 0 13.0497 0 15.0392C0 18.8615 3.10938 21.9711 6.93164 21.9711C7.8291 21.9711 8.6875 21.7997 9.47461 21.488C10.2617 21.7811 11.0791 21.9276 11.8955 21.9276C12.8594 21.9276 13.8213 21.7238 14.7266 21.3179C16.1182 20.6949 18.0469 19.2974 19.7617 17.6704C19.9023 17.5367 19.9082 17.3143 19.7744 17.1734Z" fill="#84BE51" fill-opacity="1.000000" fill-rule="nonzero"/>
		<path id="Vector" d="M19.3213 16.8987Q19.2227 16.9366 19.1396 17.0153L19.1396 17.0153Q17.9229 18.1704 16.6162 19.1196Q15.3164 20.0645 14.3574 20.4937Q13.7744 20.7548 13.1641 20.8876Q12.7988 20.9669 12.4238 21.0004Q11.9834 21.0397 11.5459 21.0142Q11.2354 20.9959 10.9268 20.9449Q11.1543 20.7903 11.3691 20.619Q11.7979 20.2773 12.1738 19.8694Q13.1406 19.7362 14.1104 19.336Q14.918 19.0027 15.6934 18.4994Q16.2549 18.135 16.749 17.7161Q17.0137 17.4916 17.1738 17.3282Q17.2539 17.2467 17.2939 17.1488Q17.333 17.051 17.332 16.9368Q17.3311 16.8224 17.2891 16.7253Q17.248 16.6282 17.167 16.5483Q17.085 16.4682 16.9873 16.4287Q16.8896 16.3893 16.7754 16.3904Q16.6611 16.3914 16.5635 16.4327Q16.4668 16.4741 16.3867 16.5555Q16.2959 16.6484 16.1084 16.8101Q15.749 17.12 15.3369 17.4061Q14.2617 18.1514 13.1602 18.5111Q13.3115 18.241 13.4375 17.9599Q13.6221 17.5503 13.7549 17.1171Q13.8818 16.701 13.9561 16.2756Q14.0635 15.6669 14.0635 15.0393Q14.0635 14.6504 14.0215 14.1828Q14.0107 14.0693 13.9619 13.9761Q13.9131 13.8824 13.8252 13.809Q13.7383 13.7363 13.6377 13.7048Q13.5371 13.6732 13.4229 13.683Q13.3076 13.6934 13.2129 13.7434Q13.1211 13.7923 13.0488 13.879Q12.9756 13.9668 12.9443 14.0676Q12.9121 14.1683 12.9229 14.282Q12.9609 14.7002 12.9609 15.0393Q12.9609 15.7043 12.8203 16.3384Q12.7031 16.8718 12.4863 17.3834Q12.2744 17.8832 11.9824 18.3304Q11.6416 18.851 11.1924 19.3002Q10.7432 19.7495 10.2227 20.0898Q9.77539 20.3819 9.27637 20.5936Q8.76465 20.8104 8.23047 20.9281Q7.59668 21.068 6.93164 21.068Q6.2666 21.068 5.63281 20.928Q5.09863 20.8102 4.58789 20.5936Q4.08789 20.3818 3.64062 20.0895Q3.12012 19.7494 2.6709 19.3001Q2.22168 18.851 1.88184 18.3305Q1.58887 17.8833 1.37793 17.3834Q1.16113 16.8721 1.04297 16.3389Q0.90332 15.7046 0.90332 15.0392Q0.90332 14.3622 1.04297 13.4518Q1.17969 12.5609 1.43359 11.549Q1.68848 10.5357 2.03027 9.52484Q2.38086 8.48621 2.78418 7.56891Q3.7666 5.33185 4.87793 4.11139Q5.41406 3.52295 5.93945 3.22406Q6.45312 2.93204 6.93164 2.93204Q7.73047 2.93204 8.59082 3.71149Q9.26758 4.32513 9.92676 5.36615Q9.98828 5.46277 10.0742 5.52362Q10.1602 5.58435 10.2725 5.60938Q10.3838 5.63446 10.4873 5.61633Q10.5918 5.59827 10.6875 5.53717Q10.7842 5.47626 10.8447 5.3902Q10.9062 5.30383 10.9307 5.1922Q10.9561 5.08075 10.9385 4.97675Q10.9199 4.87274 10.8594 4.77625Q9.08008 1.9657 7.12305 1.83524Q7.02734 1.82886 6.93164 1.82886Q6.85547 1.82886 6.7793 1.83295Q5.32715 1.91113 3.95508 3.4848Q2.7832 4.82892 1.77344 7.12512Q0.90332 9.10779 0.352539 11.3114Q0.0878906 12.3714 -0.0537109 13.3151Q-0.200195 14.2877 -0.200195 15.0392Q-0.200195 15.8223 -0.0361328 16.5693Q0.103516 17.2041 0.361328 17.8129Q0.613281 18.4069 0.960938 18.9379Q1.3623 19.5508 1.8916 20.0799Q2.41992 20.6089 3.0332 21.0101Q3.56445 21.3579 4.1582 21.6096Q4.7666 21.8676 5.40137 22.007Q6.14844 22.1711 6.93164 22.1711Q7.67578 22.1711 8.38867 22.0223Q8.94238 21.9068 9.47656 21.7018Q10.1875 21.9584 10.9199 22.0604Q11.4033 22.1276 11.8955 22.1276Q12.5381 22.1276 13.1602 22.0145Q14.0029 21.8612 14.8086 21.5004Q15.8701 21.0247 17.2402 20.0326Q18.6035 19.0447 19.8994 17.8155Q19.9824 17.7368 20.0254 17.6404Q20.0684 17.544 20.0713 17.4299Q20.0742 17.3157 20.0361 17.2171Q19.998 17.1186 19.9199 17.0358Q19.8408 16.9527 19.7441 16.9097Q19.6484 16.8669 19.5342 16.864Q19.4199 16.861 19.3213 16.8987ZM9.47461 21.488C10.2617 21.7811 11.0791 21.9276 11.8955 21.9276C12.8594 21.9276 13.8213 21.7238 14.7266 21.3179C16.1182 20.6949 18.0469 19.2974 19.7617 17.6704C19.9023 17.5367 19.9082 17.3143 19.7744 17.1734C19.6406 17.0325 19.4189 17.0267 19.2773 17.1603C17.6416 18.7125 15.7432 20.0925 14.4395 20.6761C13.2441 21.2118 11.9404 21.3555 10.6816 21.1033C10.5869 21.0844 10.4932 21.0632 10.3994 21.0397C10.4814 20.9918 10.5635 20.9423 10.6436 20.8911C11.1738 20.5533 11.6562 20.1456 12.0762 19.6807L12.0762 19.6807C14.9102 19.3196 16.9463 17.2751 17.0312 17.1882C17.167 17.0496 17.165 16.827 17.0264 16.691C16.8877 16.555 16.665 16.5571 16.5293 16.6956C16.5127 16.7125 15.0732 18.1592 13.0098 18.7668C12.915 18.7946 12.8193 18.8206 12.7227 18.8447C12.7764 18.7631 12.8281 18.6804 12.8789 18.5964C13.5039 17.5558 13.8633 16.3389 13.8633 15.0393C13.8633 14.7872 13.8496 14.5051 13.8223 14.2007C13.8047 14.0074 13.6338 13.8655 13.4404 13.8823C13.2471 13.8997 13.1045 14.0706 13.1221 14.264C13.1475 14.5474 13.1602 14.8082 13.1602 15.0393C13.1602 18.4738 10.3662 21.268 6.93164 21.268C3.49707 21.2679 0.703125 18.4738 0.703125 15.0392C0.703125 13.1668 1.50098 9.99127 2.60059 7.48846C3.92871 4.4657 5.50781 2.73206 6.93164 2.73206C8.22461 2.73206 9.36621 4.10626 10.0957 5.25922C10.2002 5.42334 10.417 5.47217 10.5811 5.36823C10.7451 5.2644 10.7939 5.04724 10.6904 4.88318C9.49121 2.98926 8.22656 2.02887 6.93164 2.02887C5.97461 2.02887 5.02441 2.56296 4.10547 3.61627C3.34082 4.49292 2.61816 5.7005 1.95703 7.20557C0.804688 9.82843 0 13.0497 0 15.0392C0 18.8615 3.10938 21.9711 6.93164 21.9711C7.8291 21.9711 8.6875 21.7997 9.47461 21.488Z" fill="#84BE51" fill-opacity="1.000000" fill-rule="evenodd"/>
		<path id="Vector" d="M23.7656 9.672C23.1807 8.36633 21.4756 7.55237 18.834 7.31818C16.8613 7.14319 14.3809 7.3075 12.1396 7.75714C11.9229 7.22546 11.6924 6.71527 11.4531 6.23938C11.3652 6.06592 11.1543 5.99597 10.9805 6.08325C10.8076 6.17041 10.7373 6.38177 10.8242 6.55524C11.7432 8.38129 12.5254 10.7278 12.918 12.832C12.9492 13.0011 13.0977 13.1192 13.2637 13.1192C13.2852 13.1192 13.3066 13.1172 13.3281 13.1132C13.5195 13.0776 13.6445 12.8939 13.6094 12.7031C13.4893 12.0593 13.333 11.3933 13.1494 10.7258C16.9551 9.37122 19.8086 10.0082 19.8369 10.0148C20.0264 10.0594 20.2148 9.9422 20.2598 9.7533C20.3047 9.56427 20.1875 9.375 19.998 9.33044C19.873 9.30084 16.9434 8.63879 12.9531 10.0494C12.7852 9.49927 12.5996 8.95312 12.4004 8.42218C14.5459 8.00336 16.8984 7.85242 18.7725 8.01849C20.4268 8.16516 22.5244 8.62097 23.124 9.95941C23.7324 11.3173 22.7021 13.5689 20.2969 16.1367C20.1641 16.2784 20.1709 16.5009 20.3125 16.6336C20.3809 16.6971 20.4668 16.7286 20.5527 16.7286C20.6465 16.7286 20.7402 16.6912 20.8096 16.6174C22.3428 14.9809 24.7656 11.9025 23.7656 9.672Z" fill="#84BE51" fill-opacity="1.000000" fill-rule="nonzero"/>
		<path id="Vector" d="M22.1572 7.91278Q20.8691 7.29779 18.8516 7.11896Q17.3594 6.98657 15.5742 7.10388Q13.8809 7.21521 12.2617 7.52917Q11.957 6.79767 11.6318 6.14954Q11.5801 6.04724 11.5 5.97821Q11.4199 5.90942 11.3115 5.87366Q11.2041 5.83777 11.0986 5.84546Q10.9932 5.85315 10.8906 5.90454Q10.7891 5.95581 10.7197 6.03552Q10.6514 6.11548 10.6152 6.22406Q10.5791 6.33252 10.5869 6.43781Q10.5947 6.54303 10.6455 6.64508Q11.3281 8.00171 11.8789 9.65259Q12.4297 11.304 12.7217 12.8687Q12.7402 12.9678 12.7881 13.0494Q12.8359 13.1301 12.9131 13.1935Q12.9912 13.2573 13.0801 13.2888Q13.166 13.3192 13.2637 13.3192Q13.2939 13.3192 13.3252 13.3158Q13.3447 13.3135 13.3652 13.3098Q13.4775 13.2888 13.5654 13.2314Q13.6543 13.1738 13.7188 13.0794Q13.7832 12.9852 13.8047 12.8819Q13.8271 12.7787 13.8057 12.6664Q13.6416 11.7869 13.3906 10.8531Q14.5977 10.4399 15.8281 10.2397Q16.8848 10.0678 17.9111 10.0599Q18.6455 10.0542 19.292 10.1312Q19.624 10.1709 19.792 10.2097Q19.9004 10.2354 20.0029 10.2194Q20.1094 10.2029 20.208 10.1417Q20.3047 10.0815 20.3672 9.99585Q20.4287 9.91022 20.4541 9.79913Q20.4805 9.68793 20.4639 9.58374Q20.4473 9.47961 20.3867 9.38245Q20.3262 9.28534 20.2412 9.22369Q20.1553 9.16199 20.0439 9.1358Q19.8125 9.08112 19.4307 9.03345Q18.7227 8.94531 17.9238 8.94983Q16.8242 8.95612 15.6875 9.14038Q14.377 9.35284 13.083 9.7926Q12.8896 9.17566 12.6699 8.5744Q14.1582 8.29865 15.7012 8.20056Q17.3672 8.09467 18.7549 8.21771Q20.2549 8.35071 21.2744 8.72955Q22.5693 9.211 22.9414 10.0412Q23.1465 10.498 23.0781 11.1146Q23.0088 11.7457 22.6592 12.5111Q21.9326 14.0979 20.1504 16Q20.0723 16.0832 20.0352 16.1818Q19.998 16.2807 20.002 16.395Q20.0059 16.5092 20.0488 16.6053Q20.0928 16.7015 20.1758 16.7796Q20.2559 16.8542 20.3506 16.8915Q20.4443 16.9286 20.5527 16.9286Q20.6729 16.9286 20.7734 16.8849Q20.874 16.8412 20.9561 16.7541Q22.5742 15.0262 23.4141 13.462Q24.5918 11.2671 24.0107 9.74133Q23.9814 9.66492 23.9482 9.59021Q23.9307 9.55029 23.9111 9.51099Q23.4287 8.51984 22.1572 7.91278ZM12.4707 8.61218C12.4473 8.54865 12.4238 8.48529 12.4004 8.42218C12.4668 8.40924 12.5332 8.39655 12.5996 8.38416C14.6904 7.99432 16.9561 7.85754 18.7725 8.01849C20.4268 8.16516 22.5244 8.62097 23.124 9.95941C23.7324 11.3173 22.7021 13.5689 20.2969 16.1367C20.1641 16.2784 20.1709 16.5009 20.3125 16.6336C20.3809 16.6971 20.4668 16.7286 20.5527 16.7286C20.6465 16.7286 20.7402 16.6912 20.8096 16.6174C22.3428 14.9809 24.7656 11.9025 23.7656 9.672C23.1807 8.36633 21.4756 7.55237 18.834 7.31818C16.8613 7.14319 14.3809 7.3075 12.1396 7.75714C11.9229 7.22546 11.6924 6.71527 11.4531 6.23938C11.3652 6.06592 11.1543 5.99597 10.9805 6.08325C10.8076 6.17041 10.7373 6.38177 10.8242 6.55524C11.7432 8.38129 12.5254 10.7278 12.918 12.832C12.9492 13.0011 13.0977 13.1192 13.2637 13.1192C13.2852 13.1192 13.3066 13.1172 13.3281 13.1132C13.5195 13.0776 13.6445 12.8939 13.6094 12.7031C13.4893 12.0593 13.333 11.3933 13.1494 10.7258C16.9551 9.37122 19.8086 10.0082 19.8369 10.0148C20.0264 10.0594 20.2148 9.9422 20.2598 9.7533C20.3047 9.56427 20.1875 9.375 19.998 9.33044C19.875 9.30127 17.0352 8.65967 13.1416 9.98383C13.0791 10.0051 13.0156 10.027 12.9531 10.0494C12.9336 9.98553 12.9141 9.92181 12.8936 9.85809C12.7627 9.43805 12.6211 9.02106 12.4707 8.61218Z" fill="#84BE51" fill-opacity="1.000000" fill-rule="evenodd"/>
		<path id="Vector" d="M19.0029 13.1295C18.918 12.9551 18.707 12.8834 18.5322 12.969L14.4414 14.9795C14.2676 15.0651 14.1953 15.2759 14.2812 15.4501C14.3428 15.5745 14.4668 15.6467 14.5967 15.6467C14.6494 15.6467 14.7021 15.6351 14.752 15.6106L18.8428 13.6001C19.0166 13.5144 19.0889 13.3037 19.0029 13.1295Z" fill="#84BE51" fill-opacity="1.000000" fill-rule="nonzero"/>
		<path id="Vector" d="M18.6523 12.7324Q18.5469 12.7391 18.4443 12.7895L18.4443 12.7895L14.3535 14.8Q14.251 14.8504 14.1816 14.9296Q14.1113 15.0089 14.0752 15.117Q14.0381 15.2252 14.0449 15.3306Q14.0518 15.4359 14.1016 15.5383Q14.1377 15.6117 14.1904 15.6693Q14.2422 15.7249 14.3096 15.7658Q14.376 15.8066 14.4482 15.8268Q14.5195 15.8467 14.5967 15.8467Q14.6572 15.8467 14.7158 15.834Q14.7793 15.8198 14.8398 15.7901L18.9307 13.7795Q19.0332 13.7292 19.1035 13.6499Q19.1729 13.5707 19.21 13.4625Q19.2471 13.3544 19.2402 13.249Q19.2334 13.1437 19.1826 13.0413Q19.1318 12.9387 19.0527 12.869Q18.9736 12.7993 18.8652 12.7625Q18.7578 12.7256 18.6523 12.7324ZM19.0029 13.1295C18.918 12.9551 18.707 12.8834 18.5322 12.969L14.4414 14.9795C14.2676 15.0651 14.1953 15.2759 14.2812 15.4501C14.3428 15.5745 14.4668 15.6467 14.5967 15.6467C14.6494 15.6467 14.7021 15.6351 14.752 15.6106L18.8428 13.6001C19.0166 13.5144 19.0889 13.3037 19.0029 13.1295Z" fill="#84BE51" fill-opacity="1.000000" fill-rule="evenodd"/>
		<path id="Vector" d="M5.57129 5.26141C5.41699 5.14355 5.19629 5.1731 5.0791 5.32727C5.04395 5.37299 4.21582 6.47015 3.56348 8.47314C2.96582 10.3094 2.41211 13.292 3.16602 17.0724C3.19922 17.2396 3.3457 17.3553 3.50977 17.3552C3.5332 17.3552 3.55566 17.353 3.5791 17.3484C3.76953 17.3104 3.89355 17.1252 3.85547 16.9349C3.13477 13.3197 3.65723 10.4737 4.22168 8.7229C4.83496 6.82306 5.62988 5.76434 5.6377 5.75385C5.75488 5.59961 5.72559 5.37921 5.57129 5.26141Z" fill="#84BE51" fill-opacity="1.000000" fill-rule="nonzero"/>
		<path id="Vector" d="M5.08008 5.06219Q4.98926 5.11511 4.91992 5.20575L4.91992 5.20581Q4.85254 5.29382 4.75195 5.44629Q4.56543 5.72839 4.37695 6.06952Q3.78809 7.13593 3.37305 8.41125Q2.81445 10.1282 2.65918 12.0273Q2.45312 14.5229 2.96973 17.1115Q2.98926 17.2095 3.03809 17.2898Q3.08594 17.3695 3.16309 17.4318Q3.24023 17.4946 3.3291 17.5255Q3.41406 17.5553 3.51074 17.5552Q3.53613 17.5552 3.56055 17.5529Q3.58984 17.5502 3.61816 17.5445Q3.73047 17.5222 3.81738 17.4637Q3.90527 17.405 3.96973 17.3098Q4.0332 17.2148 4.05371 17.1112Q4.07422 17.0078 4.05176 16.8958Q3.56836 14.474 3.75586 12.1458Q3.89746 10.378 4.41211 8.7843Q4.79004 7.61383 5.33203 6.6261Q5.50098 6.3175 5.66699 6.06445Q5.75195 5.93475 5.79688 5.87476Q5.86523 5.78473 5.89258 5.68359Q5.91992 5.58118 5.9043 5.46735Q5.88965 5.35425 5.83691 5.26306Q5.78418 5.17181 5.69336 5.10254Q5.60254 5.0332 5.5 5.0061Q5.39844 4.97894 5.28516 4.99408Q5.17188 5.00922 5.08008 5.06219ZM5.57129 5.26141C5.41699 5.14355 5.19629 5.1731 5.0791 5.32727C5.04395 5.37299 4.21582 6.47015 3.56348 8.47314C2.96582 10.3094 2.41211 13.292 3.16602 17.0724C3.19922 17.2396 3.3457 17.3553 3.50977 17.3552C3.5332 17.3552 3.55566 17.353 3.5791 17.3484C3.76953 17.3104 3.89355 17.1252 3.85547 16.9349C3.13477 13.3197 3.65723 10.4737 4.22168 8.7229C4.83496 6.82306 5.62988 5.76434 5.6377 5.75385C5.75488 5.59961 5.72559 5.37921 5.57129 5.26141Z" fill="#84BE51" fill-opacity="1.000000" fill-rule="evenodd"/>
		<path id="Vector" d="M11.5967 14.1389C11.5273 12.5148 11.0566 11.2986 11.0371 11.2476C10.9658 11.0669 10.7627 10.978 10.582 11.0485C10.4014 11.1192 10.3115 11.323 10.3818 11.5038C10.3867 11.5154 10.834 12.6785 10.8945 14.1902C10.9746 16.179 10.3828 17.805 9.13477 19.0231C8.99512 19.1587 8.99219 19.3812 9.12793 19.5202C9.19727 19.5908 9.28809 19.6263 9.37988 19.6263C9.46875 19.6263 9.55664 19.593 9.625 19.5262C11.0078 18.1774 11.6895 16.3144 11.5967 14.1389Z" fill="#84BE51" fill-opacity="1.000000" fill-rule="nonzero"/>
		<path id="Vector" d="M11.2236 11.1746L11.2236 11.1745Q11.1816 11.0683 11.1084 10.9923Q11.0352 10.9163 10.9307 10.8706Q10.8262 10.825 10.7207 10.8228Q10.6152 10.8207 10.5088 10.8622Q10.4023 10.9038 10.3262 10.9769Q10.25 11.05 10.2051 11.1546Q10.1592 11.2592 10.1562 11.3647Q10.1543 11.4701 10.1963 11.5764Q10.3037 11.855 10.4229 12.3328Q10.6572 13.2729 10.6953 14.1982Q10.7773 16.2372 9.9082 17.7184Q9.53809 18.3499 8.99512 18.8799Q8.91309 18.9597 8.87109 19.0568Q8.83008 19.1537 8.82812 19.2679Q8.82715 19.3821 8.86621 19.4802Q8.90527 19.5781 8.98535 19.6599Q9.06641 19.7432 9.16504 19.7848Q9.26367 19.8262 9.37988 19.8262Q9.49219 19.8262 9.58789 19.7871Q9.68457 19.7479 9.76562 19.6694Q10.2549 19.1917 10.6289 18.6362Q11.0713 17.9783 11.3516 17.2112Q11.8672 15.8018 11.7959 14.1304Q11.752 13.0906 11.4922 12.0547Q11.3574 11.5159 11.2236 11.1746ZM11.5967 14.1389C11.5273 12.5148 11.0566 11.2986 11.0371 11.2476C10.9658 11.0669 10.7627 10.978 10.582 11.0485C10.4014 11.1192 10.3115 11.323 10.3818 11.5038C10.3867 11.5154 10.834 12.6785 10.8945 14.1902C10.9746 16.179 10.3828 17.805 9.13477 19.0231C8.99512 19.1587 8.99219 19.3812 9.12793 19.5202C9.19727 19.5908 9.28809 19.6263 9.37988 19.6263C9.46875 19.6263 9.55664 19.593 9.625 19.5262C11.0078 18.1774 11.6895 16.3144 11.5967 14.1389Z" fill="#84BE51" fill-opacity="1.000000" fill-rule="evenodd"/>
		<path id="Vector" d="M8.50391 8.1272C8.49707 7.93317 8.33398 7.7829 8.13965 7.78833C7.94629 7.79523 7.79395 7.95813 7.80078 8.15222L7.96289 12.7076C7.96973 12.8975 8.12598 13.0468 8.31445 13.0468C8.31836 13.0468 8.32227 13.0466 8.32715 13.0465C8.52051 13.0396 8.67285 12.8767 8.66602 12.6827L8.50391 8.1272Z" fill="#84BE51" fill-opacity="1.000000" fill-rule="nonzero"/>
		<path id="Vector" d="M8.34961 7.62347Q8.25 7.58521 8.13379 7.58844L8.13281 7.5885Q8.01855 7.59253 7.92285 7.63635Q7.82617 7.68018 7.74902 7.76379Q7.6709 7.84735 7.63379 7.94623Q7.59668 8.0451 7.60156 8.1593L7.7627 12.7148Q7.7666 12.8264 7.80957 12.921Q7.85156 13.0152 7.93164 13.0924Q8.01172 13.1699 8.1084 13.2085Q8.20312 13.2468 8.31445 13.2468Q8.32324 13.2468 8.33301 13.2464Q8.44824 13.2423 8.54492 13.1979Q8.64062 13.1542 8.71777 13.0711Q8.7959 12.9875 8.83301 12.8886Q8.86914 12.7897 8.86523 12.6755L8.70312 8.12012Q8.69922 8.0058 8.65527 7.90973Q8.61133 7.81403 8.52832 7.73645Q8.44629 7.66052 8.34961 7.62347ZM8.50391 8.1272C8.49707 7.93317 8.33398 7.7829 8.13965 7.78833C7.94629 7.79523 7.79395 7.95813 7.80078 8.15222L7.96289 12.7076C7.96973 12.8975 8.12598 13.0468 8.31445 13.0468C8.31836 13.0468 8.32227 13.0466 8.32715 13.0465C8.52051 13.0396 8.67285 12.8767 8.66602 12.6827L8.50391 8.1272Z" fill="#84BE51" fill-opacity="1.000000" fill-rule="evenodd"/>
		<path id="Vector" d="M5.95703 19.5104C5.16309 19.2216 4.48633 18.4848 4.47559 18.4725C4.3457 18.3287 4.12305 18.3174 3.97949 18.4476C3.83496 18.5778 3.82422 18.8001 3.9541 18.9442C3.98633 18.9798 4.75391 19.8207 5.7168 20.1711C5.75684 20.1856 5.79688 20.1924 5.83691 20.1924C5.98047 20.1924 6.11523 20.1038 6.16699 19.9609C6.2334 19.7785 6.13965 19.5768 5.95703 19.5104Z" fill="#84BE51" fill-opacity="1.000000" fill-rule="nonzero"/>
		<path id="Vector" d="M5.0498 18.7333Q4.78125 18.5126 4.62402 18.3383L4.62402 18.3383Q4.54688 18.2537 4.45215 18.2085Q4.35645 18.1633 4.24219 18.1576Q4.12891 18.1519 4.0293 18.1873Q3.92969 18.2227 3.84473 18.2993Q3.76074 18.3757 3.71484 18.471Q3.66992 18.5664 3.66406 18.6805Q3.6582 18.7947 3.69336 18.8941Q3.72949 18.9935 3.80566 19.0782Q4.02344 19.32 4.35938 19.5945Q5.01172 20.1275 5.64844 20.3591Q5.69434 20.3759 5.74219 20.3843Q5.78906 20.3924 5.83691 20.3924Q5.9209 20.3924 5.99805 20.3688Q6.07812 20.3445 6.15039 20.295Q6.22168 20.2457 6.27246 20.1802Q6.3252 20.1132 6.35547 20.0293Q6.39453 19.9221 6.38965 19.8168Q6.38477 19.7112 6.33691 19.6076Q6.28809 19.5042 6.21094 19.4329Q6.13281 19.3616 6.02539 19.3225Q5.56055 19.1534 5.0498 18.7333ZM5.95703 19.5104C5.16309 19.2216 4.48633 18.4848 4.47559 18.4725C4.3457 18.3287 4.12305 18.3174 3.97949 18.4476C3.83496 18.5778 3.82422 18.8001 3.9541 18.9442C3.98633 18.9798 4.75391 19.8207 5.7168 20.1711C5.75684 20.1856 5.79688 20.1924 5.83691 20.1924C5.98047 20.1924 6.11523 20.1038 6.16699 19.9609C6.2334 19.7785 6.13965 19.5768 5.95703 19.5104Z" fill="#84BE51" fill-opacity="1.000000" fill-rule="evenodd"/>
		<path id="Vector" d="M8.5127 13.7461C8.31836 13.7461 8.16113 13.9034 8.16113 14.0977L8.16113 14.1296C8.16113 14.3238 8.31836 14.4811 8.5127 14.4811C8.70703 14.4811 8.86426 14.3238 8.86426 14.1296L8.86426 14.0977C8.86426 13.9034 8.70703 13.7461 8.5127 13.7461Z" fill="#84BE51" fill-opacity="1.000000" fill-rule="nonzero"/>
		<path id="Vector" d="M8.00195 13.8858Q7.96094 13.9833 7.96094 14.0977L7.96094 14.1296Q7.96094 14.2439 8.00195 14.3414Q8.04199 14.4388 8.12305 14.5196Q8.20312 14.6003 8.30078 14.6407Q8.39844 14.6812 8.5127 14.6812Q8.62695 14.6812 8.72461 14.6407Q8.82227 14.6003 8.90234 14.5196Q8.9834 14.4388 9.02344 14.3414Q9.06445 14.2439 9.06445 14.1296L9.06445 14.0977Q9.06445 13.9833 9.02344 13.8858Q8.9834 13.7884 8.90234 13.7076Q8.82227 13.6269 8.72461 13.5865Q8.62695 13.5461 8.5127 13.5461Q8.39844 13.5461 8.30078 13.5865Q8.20312 13.6269 8.12305 13.7076Q8.04199 13.7884 8.00195 13.8858ZM8.16113 14.0977C8.16113 13.9034 8.31836 13.7461 8.5127 13.7461C8.70703 13.7461 8.86426 13.9034 8.86426 14.0977L8.86426 14.1296C8.86426 14.3238 8.70703 14.4811 8.5127 14.4811C8.31836 14.4811 8.16113 14.3238 8.16113 14.1296L8.16113 14.0977Z" fill="#84BE51" fill-opacity="1.000000" fill-rule="evenodd"/>
		<path id="Vector" d="M7.64648 14.6724C7.45215 14.6724 7.29492 14.8297 7.29492 15.0239L7.29492 15.0558C7.29492 15.2501 7.45215 15.4074 7.64648 15.4074C7.84082 15.4074 7.99805 15.2501 7.99805 15.0558L7.99805 15.0239C7.99805 14.8298 7.84082 14.6724 7.64648 14.6724Z" fill="#84BE51" fill-opacity="1.000000" fill-rule="nonzero"/>
		<path id="Vector" d="M7.13574 14.8121Q7.09473 14.9096 7.09473 15.0239L7.09473 15.0558Q7.09473 15.1702 7.13574 15.2677Q7.17578 15.3651 7.25684 15.4459Q7.33691 15.5266 7.43457 15.567Q7.53223 15.6074 7.64648 15.6074Q7.76074 15.6074 7.8584 15.567Q7.95605 15.5266 8.03613 15.4459Q8.11719 15.3651 8.15723 15.2677Q8.19824 15.1702 8.19824 15.0558L8.19824 15.0239Q8.19824 14.9097 8.15723 14.8121Q8.11719 14.7147 8.03613 14.6339Q7.95605 14.5532 7.8584 14.5128Q7.76074 14.4724 7.64648 14.4724Q7.53223 14.4724 7.43457 14.5128Q7.33691 14.5532 7.25684 14.6339Q7.17578 14.7147 7.13574 14.8121ZM7.29492 15.0239C7.29492 14.8297 7.45215 14.6724 7.64648 14.6724C7.84082 14.6724 7.99805 14.8298 7.99805 15.0239L7.99805 15.0558C7.99805 15.2501 7.84082 15.4074 7.64648 15.4074C7.45215 15.4074 7.29492 15.2501 7.29492 15.0558L7.29492 15.0239Z" fill="#84BE51" fill-opacity="1.000000" fill-rule="evenodd"/>
		<path id="Vector" d="M8.76465 16.247C8.57031 16.247 8.41309 16.4044 8.41309 16.5986L8.41309 16.6305C8.41309 16.8246 8.57031 16.9821 8.76465 16.9821C8.95898 16.9821 9.11621 16.8247 9.11621 16.6305L9.11621 16.5986C9.11621 16.4044 8.95898 16.247 8.76465 16.247Z" fill="#84BE51" fill-opacity="1.000000" fill-rule="nonzero"/>
		<path id="Vector" d="M8.25391 16.3867Q8.21289 16.4843 8.21289 16.5986L8.21289 16.6305Q8.21289 16.7447 8.25391 16.8422Q8.29395 16.9397 8.375 17.0205Q8.45508 17.1013 8.55273 17.1417Q8.65039 17.1821 8.76465 17.1821Q8.87891 17.1821 8.97656 17.1417Q9.07422 17.1013 9.1543 17.0205Q9.23535 16.9398 9.27539 16.8423Q9.31641 16.7448 9.31641 16.6305L9.31641 16.5986Q9.31641 16.4843 9.27539 16.3867Q9.23535 16.2893 9.1543 16.2086Q9.07422 16.1278 8.97656 16.0874Q8.87891 16.047 8.76465 16.047Q8.65039 16.047 8.55273 16.0874Q8.45508 16.1278 8.375 16.2086Q8.29395 16.2893 8.25391 16.3867ZM8.41309 16.5986C8.41309 16.4044 8.57031 16.247 8.76465 16.247C8.95898 16.247 9.11621 16.4044 9.11621 16.5986L9.11621 16.6305C9.11621 16.8247 8.95898 16.9821 8.76465 16.9821C8.57031 16.9821 8.41309 16.8246 8.41309 16.6305L8.41309 16.5986Z" fill="#84BE51" fill-opacity="1.000000" fill-rule="evenodd"/>
	</g>
</svg>
