<svg width="50.000000" height="50.000000" viewBox="0 0 50 50" fill="none" xmlns="http://www.w3.org/2000/svg" xmlns:xlink="http://www.w3.org/1999/xlink">
	<desc>
			Created with Pixso.
	</desc>
	<defs>
		<clipPath id="clip190_9715">
			<rect id="unlock 2" width="50.000000" height="50.000000" fill="white" fill-opacity="0"/>
		</clipPath>
	</defs>
	<rect id="unlock 2" width="50.000000" height="50.000000" fill="#FFFFFF" fill-opacity="0"/>
	<g clip-path="url(#clip190_9715)">
		<path id="Vector" d="M35.9375 18.75L17.1875 18.75L17.1875 13.6094C17.1875 11.6575 17.9609 9.78564 19.3438 8.40552C20.7227 7.02539 22.5938 6.25 24.5469 6.25L25.4531 6.25C27.4062 6.25 29.2773 7.02539 30.6562 8.40552C32.0391 9.78564 32.8125 11.6575 32.8125 13.6094C32.8125 14.0237 32.9766 14.4211 33.2695 14.7141C33.5625 15.0073 33.9609 15.1719 34.375 15.1719C34.7891 15.1719 35.1875 15.0073 35.4805 14.7141C35.7734 14.4211 35.9375 14.0237 35.9375 13.6094C35.9336 10.8301 34.8281 8.16577 32.8633 6.20044C30.8984 4.23511 28.2344 3.12915 25.4531 3.125L24.5469 3.125C21.7656 3.12915 19.1016 4.23511 17.1367 6.20044C15.1719 8.16577 14.0664 10.8301 14.0625 13.6094L14.0625 18.75C12.8203 18.75 11.6289 19.2439 10.7461 20.123C9.86719 21.002 9.375 22.1943 9.375 23.4375L9.375 37.9688C9.37891 40.3296 10.3203 42.5925 11.9883 44.262C13.6562 45.9312 15.9219 46.8708 18.2812 46.875L31.7188 46.875C34.0781 46.8708 36.3438 45.9312 38.0117 44.262C39.6797 42.5925 40.6211 40.3296 40.625 37.9688L40.625 23.4375C40.625 22.1943 40.1328 21.002 39.2539 20.123C38.3711 19.2439 37.1797 18.75 35.9375 18.75ZM37.5 37.9688C37.5 39.502 36.8906 40.9724 35.8086 42.0566C34.7227 43.1409 33.2539 43.75 31.7188 43.75L18.2812 43.75C16.7461 43.75 15.2773 43.1409 14.1914 42.0566C13.1094 40.9724 12.5 39.502 12.5 37.9688L12.5 23.4375C12.5 23.0232 12.6641 22.6257 12.957 22.3328C13.25 22.0396 13.6484 21.875 14.0625 21.875L35.9375 21.875C36.3516 21.875 36.75 22.0396 37.043 22.3328C37.3359 22.6257 37.5 23.0232 37.5 23.4375L37.5 37.9688ZM26.5625 32.375L26.5625 37.5C26.5625 37.9143 26.3984 38.3118 26.1055 38.6047C25.8125 38.8979 25.4141 39.0625 25 39.0625C24.5859 39.0625 24.1875 38.8979 23.8945 38.6047C23.6016 38.3118 23.4375 37.9143 23.4375 37.5L23.4375 32.375C22.8398 32.031 22.375 31.5 22.1133 30.8645C21.8516 30.229 21.8047 29.5244 21.9805 28.8599C22.1602 28.1953 22.5508 27.6082 23.0977 27.1895C23.6445 26.7708 24.3125 26.5437 25 26.5437C25.6875 26.5437 26.3555 26.7708 26.9023 27.1895C27.4492 27.6082 27.8398 28.1953 28.0195 28.8599C28.1953 29.5244 28.1484 30.229 27.8867 30.8645C27.625 31.5 27.1602 32.031 26.5625 32.375Z" fill="#84C551" fill-opacity="1.000000" fill-rule="nonzero"/>
	</g>
</svg>
